<svg id="Layer_2" data-name="Layer 2" xmlns="http://www.w3.org/2000/svg" xmlns:xlink="http://www.w3.org/1999/xlink" viewBox="0 0 612 158.05"><defs><style>.cls-1{fill:none;}.cls-2{clip-path:url(#clip-path);}.cls-3{fill:url(#linear-gradient);}.cls-4{clip-path:url(#clip-path-2);}.cls-5{fill:url(#linear-gradient-2);}.cls-6{clip-path:url(#clip-path-3);}.cls-7{fill:url(#linear-gradient-3);}.cls-8{fill:#fff;}.cls-9{fill:#767576;}</style><clipPath id="clip-path"><path class="cls-1" d="M53.55,12.78C43.69,17.05,33.6,23.59,26.75,32c.11-.15,1.36,0,1.54,0l12.62.07,20.43.13,22.26.13,18.12.11h2.49c5.79,0,11.69,0,17.07,2.26A16.72,16.72,0,0,1,131.34,47.1a33.41,33.41,0,0,1-.82,14.64c-.14.55-1.67,7-2.33,7H101.7c1.52-3.89,2.76-9.44-1.29-12.27a12.11,12.11,0,0,0-6.76-1.74c-3.33,0-7.3-.08-10.47,1-1,0-2.37,1.06-3.12,1.58a14,14,0,0,0-2.72,2.49,16.37,16.37,0,0,0-3,6.57c-1.76,6.39-3.7,12.73-5.54,19.09L66,95.29c-1,3.53-2.29,7.64.66,10.66,2,2.09,5.24,2.56,8,2.56A31,31,0,0,0,85,106.94c4.55-1.74,7-5.46,8.31-10,.06-.22,1.19-4,1.06-4h27.49C119.19,108,111,122.32,96.22,128.36c-7.58,3.11-15,3.11-23.06,3.11H26.58A63.65,63.65,0,0,0,40,141.69C57.29,151.58,78.29,153.9,97.5,149c.89-.23,1.79-.47,2.67-.74A80.15,80.15,0,0,0,147,110.49C158,90.57,159.21,64,148.46,43.68A68.28,68.28,0,0,0,129.19,20.8,76,76,0,0,0,102.71,8.22a71,71,0,0,0-17.17-2,81.3,81.3,0,0,0-32,6.59"/></clipPath><linearGradient id="linear-gradient" x1="-672.44" y1="313.06" x2="-670.53" y2="313.06" gradientTransform="matrix(67.53, 0, 0, -67.53, 45433.53, 21219.42)" gradientUnits="userSpaceOnUse"><stop offset="0" stop-color="#e55025"/><stop offset="0.1" stop-color="#e75827"/><stop offset="0.26" stop-color="#ec6e2e"/><stop offset="0.45" stop-color="#f49239"/><stop offset="0.58" stop-color="#faaf42"/><stop offset="1" stop-color="#f9cc10"/></linearGradient><clipPath id="clip-path-2"><path class="cls-1" d="M10.82,58.7c-1.68,2.68-3,11.4-3,11.4H45.36a43.37,43.37,0,0,1,4-11.4Z"/></clipPath><linearGradient id="linear-gradient-2" x1="-654.8" y1="316.91" x2="-652.88" y2="316.91" gradientTransform="matrix(21.71, 0, 0, -21.71, 14225.33, 6945.53)" xlink:href="#linear-gradient"/><clipPath id="clip-path-3"><path class="cls-1" d="M7.46,92.9a60.5,60.5,0,0,0,2.35,10.73H36.3c0-4.69,2.35-10.73,2.35-10.73Z"/></clipPath><linearGradient id="linear-gradient-3" x1="-646.07" y1="317.76" x2="-644.16" y2="317.76" gradientTransform="matrix(16.28, 0, 0, -16.28, 10528.54, 5272.83)" xlink:href="#linear-gradient"/></defs><g class="cls-2"><rect class="cls-3" x="26.58" y="6.19" width="132.63" height="147.72"/></g><g class="cls-4"><rect class="cls-5" x="7.8" y="58.7" width="41.59" height="11.4"/></g><g class="cls-6"><rect class="cls-7" x="7.46" y="92.9" width="31.19" height="10.73"/></g><path class="cls-8" d="M243.63,50.83H228.84l1.28-4.37a2.8,2.8,0,0,0,0-.45c0-.66-.5-1-1.48-1h-6.56A2,2,0,0,0,220,46.46l-6.1,21.85a3,3,0,0,0-.05.49c0,.64.47,1,1.43,1h6.56A2,2,0,0,0,224,68.31l1.23-4.43H240l-3.15,11.49a11.81,11.81,0,0,1-4.83,7c-2.37,1.48-6.41,2.22-12.13,2.25H208c-5.72,0-9.34-.77-10.85-2.25a5.15,5.15,0,0,1-1.48-3.88,11.66,11.66,0,0,1,.49-3.15l9.91-36a11.83,11.83,0,0,1,4.83-7q3.56-2.2,12.13-2.24H235q8.58,0,10.85,2.24a5.2,5.2,0,0,1,1.48,3.88,11.77,11.77,0,0,1-.5,3.16Z"/><path class="cls-8" d="M295.7,50.83H280.9l1.28-4.37a2.8,2.8,0,0,0,.05-.45c0-.66-.49-1-1.48-1h-6.56A2,2,0,0,0,272,46.46l-6.1,21.85a3,3,0,0,0-.05.49c0,.64.48,1,1.43,1h6.56a2,2,0,0,0,2.22-1.44l1.23-4.43H292.1l-3.16,11.49a11.81,11.81,0,0,1-4.83,7c-2.37,1.48-6.41,2.22-12.13,2.25H260.05c-5.72,0-9.34-.77-10.85-2.25a5.18,5.18,0,0,1-1.48-3.88,11.7,11.7,0,0,1,.5-3.15l9.91-36a11.75,11.75,0,0,1,4.83-7q3.54-2.2,12.13-2.24H287q8.58,0,10.84,2.24a5.16,5.16,0,0,1,1.48,3.88,11.72,11.72,0,0,1-.49,3.16Z"/><path class="cls-8" d="M321,30.06h25.09l-2.22,54.59H328.14l.54-10.31H314.13L309,84.65H293.18Zm8.24,15-9.87,18.85h9.71Z"/><path class="cls-8" d="M371.9,67.53l-4.57,17.12H351.55l15-54.59h26.82q8.58,0,10.85,2.24a5.2,5.2,0,0,1,1.48,3.88,11.77,11.77,0,0,1-.5,3.16l-3.65,13.2q-1.27,4.76-7.29,7c-1,.35-1.58.63-1.68.83v0c0,.21.41.46,1.24.76Q398,63,398,66.46a7.3,7.3,0,0,1-.24,1.79l-4.54,16.4H377.49L381.66,69a2.91,2.91,0,0,0,0-.46c0-.66-.49-1-1.48-1ZM378.14,45l-2.67,10.1h8.33A2,2,0,0,0,386,53.68l1.88-7.2A2.07,2.07,0,0,0,388,46c0-.66-.49-1-1.48-1Z"/><path class="cls-8" d="M421.66,71.71l-3.55,12.94H401.35l3.55-12.94Z"/><path class="cls-8" d="M454.05,84.65,451.69,47,441.33,84.65H426.54l15-54.59h21.2L465.1,69l23.71-38.91H510L495,84.65H480.18L490.54,47,468,84.65Z"/><path class="cls-8" d="M511.34,30.06h15.78l3.2,23.13,16-23.13h15.77L534.42,67l-4.89,17.65H513.76l4.88-17.73Z"/><path class="cls-9" d="M207.12,114.21h4.08l1.15-6h4.58l-1.15,6h2.56v4.05H215l-.84,4.33h4.17v4H213.4l-1.15,6h-4.58l1.15-6h-4.09l-1.15,6H199l1.15-6H197.6v-4h3.33l.83-4.33H197.6v-4.05h4.94l1.15-6h4.58Zm-1.61,8.38h4.09l.83-4.33h-4.09Z"/><path class="cls-9" d="M224.22,113.29c.68-.28,1.39-.6,2.13-1s1.46-.76,2.17-1.19,1.38-.9,2-1.38a13,13,0,0,0,1.74-1.53H236v24.41H230.7V115.05a15.9,15.9,0,0,1-2.36,1.29c-.87.39-1.71.72-2.53,1Z"/><path class="cls-9" d="M267.11,133.12q-6,0-9.07-3.31t-3.11-9.41a14.32,14.32,0,0,1,.95-5.4,11.78,11.78,0,0,1,2.6-4,11,11,0,0,1,3.95-2.48,14.27,14.27,0,0,1,5-.84,15.18,15.18,0,0,1,2.82.23,17.47,17.47,0,0,1,2.22.52A11.1,11.1,0,0,1,274,109c.43.21.73.38.92.49L273.35,114a13.36,13.36,0,0,0-2.63-1,12.61,12.61,0,0,0-3.4-.42,7.56,7.56,0,0,0-2.48.42,5.6,5.6,0,0,0-2.15,1.35,6.76,6.76,0,0,0-1.49,2.42,10,10,0,0,0-.57,3.59,13.08,13.08,0,0,0,.37,3.15,6.7,6.7,0,0,0,1.2,2.52,5.72,5.72,0,0,0,2.17,1.67,7.71,7.71,0,0,0,3.24.62,15.27,15.27,0,0,0,2.14-.14,16.74,16.74,0,0,0,1.69-.34,8.35,8.35,0,0,0,1.31-.44l1-.45,1.51,4.4a12.54,12.54,0,0,1-3.27,1.26A18.9,18.9,0,0,1,267.11,133.12Z"/><path class="cls-9" d="M286.94,113.61a11.89,11.89,0,0,1,3.87.53,6,6,0,0,1,2.48,1.51,5.43,5.43,0,0,1,1.32,2.4,11.71,11.71,0,0,1,.39,3.13V132.1c-.75.16-1.79.35-3.13.58A30.56,30.56,0,0,1,287,133a15.49,15.49,0,0,1-3.26-.31,7.35,7.35,0,0,1-2.52-1,4.8,4.8,0,0,1-1.62-1.89,6.55,6.55,0,0,1-.56-2.85,5.48,5.48,0,0,1,.65-2.75,5.06,5.06,0,0,1,1.74-1.79,7.81,7.81,0,0,1,2.5-1,14.07,14.07,0,0,1,2.93-.3,16.2,16.2,0,0,1,1.81.09,7.61,7.61,0,0,1,1.29.23v-.5a2.89,2.89,0,0,0-.81-2.14,3.93,3.93,0,0,0-2.82-.81,17.84,17.84,0,0,0-2.64.19,11.92,11.92,0,0,0-2.26.54l-.67-4.22c.31-.09.69-.2,1.15-.3s1-.2,1.5-.28,1.11-.15,1.7-.21S286.33,113.61,286.94,113.61Zm.42,15.35c.52,0,1,0,1.48,0a9,9,0,0,0,1.13-.11v-4c-.22,0-.53-.09-1-.14a9.72,9.72,0,0,0-1.16-.07,10.25,10.25,0,0,0-1.39.09,3.81,3.81,0,0,0-1.14.33,2,2,0,0,0-.78.67,1.94,1.94,0,0,0-.28,1.06,1.81,1.81,0,0,0,.83,1.71A4.65,4.65,0,0,0,287.36,129Z"/><path class="cls-9" d="M312.4,118.75c-.47-.12-1-.24-1.66-.37a10.1,10.1,0,0,0-2-.19,11.27,11.27,0,0,0-1.18.08,7.12,7.12,0,0,0-1,.2v14.16h-5.24V115.09a31.81,31.81,0,0,1,3.32-.94,19.44,19.44,0,0,1,4.28-.43,10.13,10.13,0,0,1,1,0c.4,0,.8.08,1.2.14s.8.13,1.2.21a5.2,5.2,0,0,1,1,.3Z"/><path class="cls-9" d="M334.51,128.43a7.85,7.85,0,0,0,1.92-.19,3.45,3.45,0,0,0,1.22-.53,1.76,1.76,0,0,0,.63-.79,2.73,2.73,0,0,0,.18-1,2.37,2.37,0,0,0-1.13-2,16,16,0,0,0-3.87-1.71c-.8-.28-1.6-.6-2.4-1a8.84,8.84,0,0,1-2.15-1.37,6.59,6.59,0,0,1-1.55-2,6.38,6.38,0,0,1-.59-2.87,7.13,7.13,0,0,1,.63-3,6.35,6.35,0,0,1,1.8-2.31,8.23,8.23,0,0,1,2.81-1.46,12.72,12.72,0,0,1,3.74-.51,14.93,14.93,0,0,1,4.26.53,15.62,15.62,0,0,1,3,1.16l-1.59,4.33a15.33,15.33,0,0,0-2.27-.93,9.82,9.82,0,0,0-3-.41,5.47,5.47,0,0,0-2.84.55,1.84,1.84,0,0,0-.86,1.67,2,2,0,0,0,.32,1.13,3,3,0,0,0,.9.82,7.5,7.5,0,0,0,1.33.67c.51.2,1.07.41,1.68.62,1.26.47,2.37.93,3.31,1.39a8.84,8.84,0,0,1,2.34,1.6,5.91,5.91,0,0,1,1.39,2.15,8.74,8.74,0,0,1,.46,3,6.34,6.34,0,0,1-2.4,5.3q-2.39,1.89-7.22,1.89a19.8,19.8,0,0,1-2.92-.2,17,17,0,0,1-2.31-.47,13.52,13.52,0,0,1-1.72-.6,12.7,12.7,0,0,1-1.22-.6l1.55-4.36a14.72,14.72,0,0,0,2.7,1.07A13.79,13.79,0,0,0,334.51,128.43Z"/><path class="cls-9" d="M366.81,123.33a12,12,0,0,1-.64,4,8.56,8.56,0,0,1-1.83,3.1,8.27,8.27,0,0,1-2.87,2,10.18,10.18,0,0,1-7.47,0,8.27,8.27,0,0,1-2.87-2,9.06,9.06,0,0,1-1.86-3.1,11.29,11.29,0,0,1-.67-4,11,11,0,0,1,.69-4,9,9,0,0,1,1.9-3.07,8.64,8.64,0,0,1,2.88-2,9.94,9.94,0,0,1,7.33,0,8.5,8.5,0,0,1,2.87,2,9,9,0,0,1,1.87,3.07A11.46,11.46,0,0,1,366.81,123.33Zm-5.36,0a6.54,6.54,0,0,0-1-3.82,3.14,3.14,0,0,0-2.76-1.39,3.19,3.19,0,0,0-2.78,1.39,6.47,6.47,0,0,0-1,3.82,6.63,6.63,0,0,0,1,3.85,3.18,3.18,0,0,0,2.78,1.43,3.13,3.13,0,0,0,2.76-1.43A6.71,6.71,0,0,0,361.45,123.33Z"/><path class="cls-9" d="M371.45,123.36a11,11,0,0,1,.65-3.78,8.92,8.92,0,0,1,4.88-5.2,10,10,0,0,1,4-.77,12.35,12.35,0,0,1,5.1,1L385,118.82a12.43,12.43,0,0,0-1.62-.49,8.5,8.5,0,0,0-2-.21,4.16,4.16,0,0,0-3.47,1.44,6,6,0,0,0-1.14,3.8,6.15,6.15,0,0,0,1.07,3.88c.72.91,2,1.37,3.75,1.37a12.53,12.53,0,0,0,2-.18,8.24,8.24,0,0,0,2-.56l.74,4.3a12.24,12.24,0,0,1-2.29.67,15.62,15.62,0,0,1-3,.28,11.26,11.26,0,0,1-4.36-.76,8,8,0,0,1-3-2.06,7.92,7.92,0,0,1-1.73-3.08A13.24,13.24,0,0,1,371.45,123.36Z"/><path class="cls-9" d="M397.16,108.75a2.88,2.88,0,0,1-.93,2.27,3.33,3.33,0,0,1-4.4,0,3.21,3.21,0,0,1,0-4.54,3.33,3.33,0,0,1,4.4,0A2.88,2.88,0,0,1,397.16,108.75Zm-.49,23.88h-5.25V114.1h5.25Z"/><path class="cls-9" d="M409.73,113.61a12,12,0,0,1,3.88.53,6,6,0,0,1,2.48,1.51,5.64,5.64,0,0,1,1.32,2.4,11.71,11.71,0,0,1,.39,3.13V132.1c-.76.16-1.8.35-3.14.58a30.56,30.56,0,0,1-4.86.33,15.56,15.56,0,0,1-3.26-.31,7.21,7.21,0,0,1-2.51-1,4.64,4.64,0,0,1-1.62-1.89,6.4,6.4,0,0,1-.57-2.85,5.38,5.38,0,0,1,.66-2.75,4.9,4.9,0,0,1,1.74-1.79,7.81,7.81,0,0,1,2.5-1,14,14,0,0,1,2.92-.3,16.39,16.39,0,0,1,1.82.09,7.66,7.66,0,0,1,1.28.23v-.5a2.89,2.89,0,0,0-.81-2.14,3.93,3.93,0,0,0-2.82-.81,17.84,17.84,0,0,0-2.64.19,11.62,11.62,0,0,0-2.25.54l-.67-4.22c.3-.09.69-.2,1.14-.3s1-.2,1.5-.28,1.11-.15,1.71-.21S409.12,113.61,409.73,113.61Zm.42,15.35c.52,0,1,0,1.48,0a8.78,8.78,0,0,0,1.13-.11v-4c-.21,0-.53-.09-.95-.14a9.84,9.84,0,0,0-1.16-.07,10,10,0,0,0-1.39.09,3.79,3.79,0,0,0-1.15.33,2,2,0,0,0-.77.67,1.86,1.86,0,0,0-.29,1.06,1.81,1.81,0,0,0,.83,1.71A4.65,4.65,0,0,0,410.15,129Z"/><path class="cls-9" d="M431.42,133a13.13,13.13,0,0,1-3.71-.5,5.54,5.54,0,0,1-2.26-1.28,4.26,4.26,0,0,1-1.12-2,10.76,10.76,0,0,1-.3-2.66V106.14l5.25-.84v20.18a7,7,0,0,0,.1,1.27,2.22,2.22,0,0,0,.41,1,2.16,2.16,0,0,0,.86.63,4.89,4.89,0,0,0,1.51.32Z"/><path class="cls-9" d="M454.24,107.94q5.46,0,8.38,1.92t2.93,6.28q0,4.41-3,6.36c-2,1.3-4.79,2-8.45,2h-1.73v8.17h-5.49V108.57a31.23,31.23,0,0,1,3.8-.49C452.06,108,453.23,107.94,454.24,107.94Zm.35,4.68c-.39,0-.79,0-1.17,0l-1,.07v7h1.73a9.41,9.41,0,0,0,4.29-.77,3,3,0,0,0,1.45-2.89,3.55,3.55,0,0,0-.37-1.69,2.82,2.82,0,0,0-1.06-1.08,5,5,0,0,0-1.67-.56A14.61,14.61,0,0,0,454.59,112.62Z"/><path class="cls-9" d="M478.12,133a13.15,13.15,0,0,1-3.72-.5,5.44,5.44,0,0,1-2.25-1.28,4.27,4.27,0,0,1-1.13-2,10.76,10.76,0,0,1-.3-2.66V106.14l5.25-.84v20.18a7,7,0,0,0,.11,1.27,2.21,2.21,0,0,0,.4,1,2.32,2.32,0,0,0,.86.63,5,5,0,0,0,1.52.32Z"/><path class="cls-9" d="M490.51,113.61a12,12,0,0,1,3.88.53,6,6,0,0,1,2.48,1.51,5.64,5.64,0,0,1,1.32,2.4,11.71,11.71,0,0,1,.39,3.13V132.1c-.75.16-1.8.35-3.14.58a30.38,30.38,0,0,1-4.86.33,15.46,15.46,0,0,1-3.25-.31,7.19,7.19,0,0,1-2.52-1,4.72,4.72,0,0,1-1.62-1.89,6.41,6.41,0,0,1-.56-2.85,5.38,5.38,0,0,1,.65-2.75,4.9,4.9,0,0,1,1.74-1.79,7.81,7.81,0,0,1,2.5-1,14,14,0,0,1,2.92-.3,16.39,16.39,0,0,1,1.82.09,7.47,7.47,0,0,1,1.28.23v-.5a2.89,2.89,0,0,0-.81-2.14,3.91,3.91,0,0,0-2.81-.81,17.87,17.87,0,0,0-2.65.19,11.8,11.8,0,0,0-2.25.54l-.67-4.22c.31-.09.69-.2,1.15-.3s.95-.2,1.49-.28,1.11-.15,1.71-.21S489.9,113.61,490.51,113.61Zm.43,15.35c.51,0,1,0,1.48,0a8.78,8.78,0,0,0,1.12-.11v-4c-.21,0-.52-.09-1-.14a9.84,9.84,0,0,0-1.16-.07,10.15,10.15,0,0,0-1.39.09,3.79,3.79,0,0,0-1.15.33,2.09,2.09,0,0,0-.77.67,1.86,1.86,0,0,0-.28,1.06,1.81,1.81,0,0,0,.82,1.71A4.69,4.69,0,0,0,490.94,129Z"/><path class="cls-9" d="M504.63,109.49l5.25-.85v5.46h6.31v4.37h-6.31V125a5.22,5.22,0,0,0,.58,2.64,2.49,2.49,0,0,0,2.34,1,9.65,9.65,0,0,0,1.75-.16,8.53,8.53,0,0,0,1.64-.44l.73,4.09a14.57,14.57,0,0,1-2.11.67,12.69,12.69,0,0,1-2.85.28,9.57,9.57,0,0,1-3.56-.58,5.58,5.58,0,0,1-2.25-1.62,6,6,0,0,1-1.18-2.52,15.09,15.09,0,0,1-.34-3.28Z"/><path class="cls-9" d="M530,105.3a11.56,11.56,0,0,1,2.72.3,13.14,13.14,0,0,1,1.9.58l-1,4.19a7.2,7.2,0,0,0-1.53-.48,8.79,8.79,0,0,0-1.54-.15,4.19,4.19,0,0,0-1.6.26,2.51,2.51,0,0,0-1,.72,2.85,2.85,0,0,0-.53,1.09,6,6,0,0,0-.16,1.38v.91h6.48v4.37h-6.48v14.16h-5.24V113.12a7.9,7.9,0,0,1,2-5.71Q526,105.3,530,105.3Z"/><path class="cls-9" d="M555.31,123.33a12,12,0,0,1-.63,4,8.72,8.72,0,0,1-1.84,3.1,8.09,8.09,0,0,1-2.87,2,9.53,9.53,0,0,1-3.75.71,9.44,9.44,0,0,1-3.71-.71,8.18,8.18,0,0,1-2.87-2,9.08,9.08,0,0,1-1.87-3.1,11.29,11.29,0,0,1-.67-4,11,11,0,0,1,.69-4,9.1,9.1,0,0,1,1.9-3.07,8.58,8.58,0,0,1,2.89-2,9.26,9.26,0,0,1,3.64-.7,9.36,9.36,0,0,1,3.68.7,8.4,8.4,0,0,1,2.87,2,9,9,0,0,1,1.87,3.07A11.23,11.23,0,0,1,555.31,123.33Zm-5.35,0a6.62,6.62,0,0,0-1-3.82,3.17,3.17,0,0,0-2.77-1.39,3.21,3.21,0,0,0-2.78,1.39,6.47,6.47,0,0,0-1,3.82,6.63,6.63,0,0,0,1,3.85,3.2,3.2,0,0,0,2.78,1.43,3.16,3.16,0,0,0,2.77-1.43A6.79,6.79,0,0,0,550,123.33Z"/><path class="cls-9" d="M572,118.75c-.47-.12-1-.24-1.65-.37a10.27,10.27,0,0,0-2.05-.19,11.27,11.27,0,0,0-1.18.08,6.94,6.94,0,0,0-1,.2v14.16h-5.25V115.09a33.29,33.29,0,0,1,3.32-.94,19.44,19.44,0,0,1,4.28-.43,10.18,10.18,0,0,1,1,0c.39,0,.79.08,1.19.14s.8.13,1.2.21a5.2,5.2,0,0,1,1,.3Z"/><path class="cls-9" d="M587.36,122.8a7.14,7.14,0,0,0-.66-3.59,2.4,2.4,0,0,0-2.23-1.06c-.33,0-.67,0-1,0l-1,.13v14.3h-5.25V114.74c.44-.12,1-.25,1.57-.37s1.23-.25,1.9-.36,1.35-.18,2.06-.24,1.39-.09,2.07-.09a8.74,8.74,0,0,1,3.26.51,7.38,7.38,0,0,1,2.06,1.22,9.83,9.83,0,0,1,5.28-1.73,9.48,9.48,0,0,1,3.65.61A5.57,5.57,0,0,1,601.3,116a6.61,6.61,0,0,1,1.16,2.67,17.48,17.48,0,0,1,.32,3.46v10.46h-5.25V122.8a7.16,7.16,0,0,0-.65-3.59,2.4,2.4,0,0,0-2.24-1.06,5.81,5.81,0,0,0-2.43.74,7.84,7.84,0,0,1,.32,1.71c.05.6.07,1.24.07,1.92v10.11h-5.24Z"/></svg>