<svg id="Layer_1" data-name="Layer 1" xmlns="http://www.w3.org/2000/svg" xmlns:xlink="http://www.w3.org/1999/xlink" viewBox="0 0 389 96.52"><defs><style>.cls-1{fill:none;}.cls-2{clip-path:url(#clip-path);}.cls-3{fill:url(#linear-gradient);}.cls-4{clip-path:url(#clip-path-2);}.cls-5{fill:url(#linear-gradient-2);}.cls-6{clip-path:url(#clip-path-3);}.cls-7{fill:url(#linear-gradient-3);}.cls-8{fill:#fff;}</style><clipPath id="clip-path" transform="translate(-6 -9.21)"><path class="cls-1" d="M36.11,13.51c-6.44,2.8-13,7.07-17.51,12.59a3.81,3.81,0,0,1,1,0l8.24.05,13.35.08,14.55.09,11.84.07h1.63c3.78,0,7.64,0,11.15,1.48A10.91,10.91,0,0,1,87,36a21.93,21.93,0,0,1-.54,9.56c-.09.36-1.09,4.59-1.52,4.59H67.57c1-2.54,1.81-6.18-.84-8a7.91,7.91,0,0,0-4.42-1.14,21.45,21.45,0,0,0-6.83.65,4.9,4.9,0,0,0-2,1,9.18,9.18,0,0,0-1.78,1.63,10.62,10.62,0,0,0-2,4.29c-1.14,4.17-2.41,8.32-3.62,12.47-.62,2.14-1.23,4.28-1.86,6.41-.66,2.31-1.49,5,.44,7,1.33,1.36,3.42,1.67,5.24,1.67a20.19,20.19,0,0,0,6.73-1c3-1.13,4.58-3.56,5.43-6.52,0-.15.78-2.65.69-2.65h18C79,75.76,73.63,85.09,64,89c-5,2-9.78,2-15.07,2H18.49a41.61,41.61,0,0,0,8.77,6.68,50.81,50.81,0,0,0,37.57,4.76c.59-.14,1.17-.31,1.75-.48a52.34,52.34,0,0,0,30.6-24.67c7.15-13,8-30.41.95-43.65A44.62,44.62,0,0,0,85.54,18.76a49.42,49.42,0,0,0-17.31-8.22A46.42,46.42,0,0,0,57,9.21a53.42,53.42,0,0,0-20.91,4.3"/></clipPath><linearGradient id="linear-gradient" x1="-152.38" y1="273.4" x2="-151.13" y2="273.4" gradientTransform="matrix(67.53, 0, 0, -67.53, 10302.07, 18509.85)" gradientUnits="userSpaceOnUse"><stop offset="0" stop-color="#e55025"/><stop offset="0.1" stop-color="#e75827"/><stop offset="0.26" stop-color="#ec6e2e"/><stop offset="0.45" stop-color="#f49239"/><stop offset="0.58" stop-color="#faaf42"/><stop offset="1" stop-color="#f9cc10"/></linearGradient><clipPath id="clip-path-2" transform="translate(-6 -9.21)"><path class="cls-1" d="M8.19,43.52c-1.1,1.76-2,7.45-2,7.45H30.76a28.64,28.64,0,0,1,2.63-7.45Z"/></clipPath><linearGradient id="linear-gradient-2" x1="-151.19" y1="276.48" x2="-149.94" y2="276.48" gradientTransform="matrix(21.71, 0, 0, -21.71, 3282.93, 6041.29)" xlink:href="#linear-gradient"/><clipPath id="clip-path-3" transform="translate(-6 -9.21)"><path class="cls-1" d="M6,65.87a39.88,39.88,0,0,0,1.53,7H24.84a23.75,23.75,0,0,1,1.54-7Z"/></clipPath><linearGradient id="linear-gradient-3" x1="-150.59" y1="277.7" x2="-149.33" y2="277.7" gradientTransform="matrix(16.28, 0, 0, -16.28, 2452.24, 4582.5)" xlink:href="#linear-gradient"/></defs><title>ccar header logo</title><g class="cls-2"><rect class="cls-3" x="12.49" width="86.67" height="96.52"/></g><g class="cls-4"><rect class="cls-5" x="0.22" y="34.31" width="27.17" height="7.45"/></g><g class="cls-6"><rect class="cls-7" y="56.66" width="20.38" height="7.01"/></g><path class="cls-8" d="M163.8,37.1H153.06l.93-3.17a2.38,2.38,0,0,0,0-.34c0-.47-.36-.71-1.08-.71h-4.76a1.42,1.42,0,0,0-1.57,1l-4.43,15.86a1.47,1.47,0,0,0,0,.36c0,.46.35.69,1,.69H148a1.45,1.45,0,0,0,1.61-1.05l.89-3.22h10.74l-2.29,8.34A8.61,8.61,0,0,1,155.39,60c-1.72,1.07-4.65,1.61-8.81,1.63h-8.66c-4.15,0-6.78-.56-7.87-1.63A3.75,3.75,0,0,1,129,57.2a8.5,8.5,0,0,1,.36-2.29l7.2-26.16a8.58,8.58,0,0,1,3.5-5.11c1.72-1.06,4.66-1.61,8.81-1.63h8.66c4.15,0,6.78.57,7.88,1.63a3.78,3.78,0,0,1,1.07,2.82,8.45,8.45,0,0,1-.36,2.29Z" transform="translate(-6 -9.21)"/><path class="cls-8" d="M201.6,37.1H190.86l.93-3.17a2.38,2.38,0,0,0,0-.34c0-.47-.36-.71-1.08-.71H186a1.42,1.42,0,0,0-1.57,1L180,49.79a1.47,1.47,0,0,0,0,.36c0,.46.35.69,1,.69h4.76a1.45,1.45,0,0,0,1.61-1.05l.89-3.22H199l-2.29,8.34A8.61,8.61,0,0,1,193.19,60c-1.72,1.07-4.65,1.61-8.81,1.63h-8.66c-4.15,0-6.78-.56-7.87-1.63a3.75,3.75,0,0,1-1.08-2.82,8.5,8.5,0,0,1,.36-2.29l7.2-26.16a8.58,8.58,0,0,1,3.5-5.11c1.72-1.06,4.66-1.61,8.81-1.63h8.66c4.15,0,6.78.57,7.88,1.63a3.78,3.78,0,0,1,1.07,2.82,8.45,8.45,0,0,1-.36,2.29Z" transform="translate(-6 -9.21)"/><path class="cls-8" d="M220,22h18.22l-1.61,39.64H225.15l.4-7.48H215l-3.76,7.48H199.78Zm6,10.88-7.17,13.68h7.05Z" transform="translate(-6 -9.21)"/><path class="cls-8" d="M256.93,49.22l-3.32,12.43H242.16L253.07,22h19.48c4.15,0,6.77.57,7.87,1.63a3.75,3.75,0,0,1,1.07,2.82,8.81,8.81,0,0,1-.35,2.29l-2.65,9.59q-.93,3.45-5.3,5.11c-.74.26-1.15.46-1.22.61v0c0,.15.3.34.9.56q3,1.32,3,3.81a5.2,5.2,0,0,1-.18,1.3l-3.29,11.9H261l3-11.38a1.47,1.47,0,0,0,0-.33c0-.48-.36-.72-1.07-.72Zm4.53-16.33-1.94,7.33h6.05a1.45,1.45,0,0,0,1.61-1l1.37-5.23a2.24,2.24,0,0,0,0-.34c0-.47-.35-.71-1.07-.71Z" transform="translate(-6 -9.21)"/><path class="cls-8" d="M293.06,52.26l-2.58,9.39H278.31l2.58-9.39Z" transform="translate(-6 -9.21)"/><path class="cls-8" d="M316.57,61.65l-1.71-27.34-7.52,27.34H296.6L307.52,22h15.39l1.68,28.26L341.81,22H357.2L346.28,61.65H335.55l7.51-27.34L326.67,61.65Z" transform="translate(-6 -9.21)"/><path class="cls-8" d="M358.17,22h11.45L372,38.81,383.55,22H395L374.92,48.83l-3.55,12.82H359.92l3.54-12.87Z" transform="translate(-6 -9.21)"/><path class="cls-8" d="M136.46,79h2.67l.75-3.91h3L142.12,79h1.67v2.65h-2.18l-.54,2.83h2.72v2.65h-3.23L139.81,91h-3l.75-3.91H134.9L134.15,91h-3l.75-3.91h-1.67V84.46h2.18l.54-2.83h-2.72V79h3.23l.75-3.91h3Zm-1.05,5.48h2.67l.54-2.83H136Z" transform="translate(-6 -9.21)"/><path class="cls-8" d="M147.64,78.39c.44-.19.91-.4,1.39-.64s.95-.5,1.41-.78.9-.58,1.33-.9a9.27,9.27,0,0,0,1.14-1h2.39V91h-3.43V79.54a11.69,11.69,0,0,1-1.54.84c-.57.25-1.12.47-1.66.65Z" transform="translate(-6 -9.21)"/><path class="cls-8" d="M175.66,91.34a7.75,7.75,0,0,1-5.92-2.16,8.61,8.61,0,0,1-2-6.15,9.54,9.54,0,0,1,.62-3.53A7.59,7.59,0,0,1,170,76.88a6.94,6.94,0,0,1,2.57-1.62,9.28,9.28,0,0,1,3.25-.56,10.38,10.38,0,0,1,1.84.15,12.4,12.4,0,0,1,1.45.35,6.74,6.74,0,0,1,1,.4l.6.32-1,2.9a9.49,9.49,0,0,0-1.72-.67,8.33,8.33,0,0,0-2.22-.27,5,5,0,0,0-1.62.27,3.64,3.64,0,0,0-1.4.89,4.29,4.29,0,0,0-1,1.58,6.46,6.46,0,0,0-.37,2.34,8.38,8.38,0,0,0,.24,2.06,4.35,4.35,0,0,0,.78,1.65,3.8,3.8,0,0,0,1.42,1.09,5,5,0,0,0,2.12.4,9.88,9.88,0,0,0,1.4-.09,8.89,8.89,0,0,0,1.1-.22,5.65,5.65,0,0,0,.85-.28l.67-.3,1,2.87a8,8,0,0,1-2.14.83A12.24,12.24,0,0,1,175.66,91.34Z" transform="translate(-6 -9.21)"/><path class="cls-8" d="M188.62,78.59a8,8,0,0,1,2.53.35,4,4,0,0,1,1.62,1,3.62,3.62,0,0,1,.86,1.56,7.72,7.72,0,0,1,.26,2.05v7.13c-.49.11-1.18.24-2,.38a19.15,19.15,0,0,1-3.18.22,10,10,0,0,1-2.13-.21,4.57,4.57,0,0,1-1.64-.67,3.19,3.19,0,0,1-1.06-1.24,4.28,4.28,0,0,1-.37-1.86,3.54,3.54,0,0,1,.43-1.79A3.15,3.15,0,0,1,185,84.32a5.13,5.13,0,0,1,1.63-.63,9.16,9.16,0,0,1,1.91-.2,10.49,10.49,0,0,1,1.19.06,5.9,5.9,0,0,1,.84.15v-.32a1.94,1.94,0,0,0-.53-1.41,2.59,2.59,0,0,0-1.84-.52,12.36,12.36,0,0,0-1.73.12,7.9,7.9,0,0,0-1.47.36l-.44-2.76.75-.2c.3-.07.62-.13,1-.18s.72-.1,1.11-.14A11.71,11.71,0,0,1,188.62,78.59Zm.27,10c.34,0,.66,0,1,0a5.82,5.82,0,0,0,.74-.07v-2.6l-.62-.09a7.24,7.24,0,0,0-.76,0,6.42,6.42,0,0,0-.91.06,2.28,2.28,0,0,0-.75.22,1.29,1.29,0,0,0-.51.44,1.22,1.22,0,0,0-.18.69,1.16,1.16,0,0,0,.54,1.11A2.93,2.93,0,0,0,188.89,88.63Z" transform="translate(-6 -9.21)"/><path class="cls-8" d="M205.25,82l-1.08-.24a7,7,0,0,0-1.33-.13,5.87,5.87,0,0,0-.77.06,4.11,4.11,0,0,0-.68.13V91H198V79.56a19.08,19.08,0,0,1,2.17-.61,12.68,12.68,0,0,1,2.8-.29,5.92,5.92,0,0,1,.67,0q.39,0,.78.09c.26,0,.52.08.78.14a3.92,3.92,0,0,1,.67.19Z" transform="translate(-6 -9.21)"/><path class="cls-8" d="M219.71,88.28a4.89,4.89,0,0,0,1.25-.13,2.32,2.32,0,0,0,.79-.34,1.22,1.22,0,0,0,.42-.52,2,2,0,0,0,.11-.67,1.54,1.54,0,0,0-.73-1.3A10.84,10.84,0,0,0,219,84.21c-.52-.19-1-.4-1.56-.64a5.47,5.47,0,0,1-1.4-.89,4.17,4.17,0,0,1-1-1.32,4.07,4.07,0,0,1-.39-1.87,4.57,4.57,0,0,1,.42-2A4.19,4.19,0,0,1,216.23,76a5.43,5.43,0,0,1,1.84-.95,8,8,0,0,1,2.44-.34,10,10,0,0,1,2.79.35,9.82,9.82,0,0,1,1.93.76l-1,2.83a9.14,9.14,0,0,0-1.48-.61,6.34,6.34,0,0,0-2-.27,3.55,3.55,0,0,0-1.85.36,1.19,1.19,0,0,0-.56,1.09,1.26,1.26,0,0,0,.2.74,2.07,2.07,0,0,0,.59.54,5,5,0,0,0,.87.44c.33.13.7.26,1.1.4.82.31,1.55.61,2.16.91a5.89,5.89,0,0,1,1.53,1.05,3.73,3.73,0,0,1,.91,1.4,5.65,5.65,0,0,1,.3,2,4.14,4.14,0,0,1-1.57,3.46,7.53,7.53,0,0,1-4.71,1.23,12.2,12.2,0,0,1-1.91-.13,10.52,10.52,0,0,1-1.51-.31,8.18,8.18,0,0,1-1.13-.39c-.31-.14-.58-.27-.79-.39l1-2.85a8.7,8.7,0,0,0,4.33,1Z" transform="translate(-6 -9.21)"/><path class="cls-8" d="M240.81,84.94a7.68,7.68,0,0,1-.42,2.61,5.37,5.37,0,0,1-3.07,3.33,6.22,6.22,0,0,1-2.45.46,6.16,6.16,0,0,1-2.43-.46,5.38,5.38,0,0,1-1.87-1.3,5.74,5.74,0,0,1-1.22-2,7.85,7.85,0,0,1,0-5.21,5.89,5.89,0,0,1,1.24-2,5.67,5.67,0,0,1,1.89-1.29,6.44,6.44,0,0,1,4.78,0,5.53,5.53,0,0,1,1.88,1.29,5.84,5.84,0,0,1,1.22,2A7.47,7.47,0,0,1,240.81,84.94Zm-3.5,0a4.29,4.29,0,0,0-.63-2.49,2.27,2.27,0,0,0-3.63,0,4.21,4.21,0,0,0-.64,2.49,4.35,4.35,0,0,0,.64,2.52,2.24,2.24,0,0,0,3.63,0A4.43,4.43,0,0,0,237.31,84.94Z" transform="translate(-6 -9.21)"/><path class="cls-8" d="M243.84,85a7,7,0,0,1,.43-2.48,5.78,5.78,0,0,1,1.23-2,5.86,5.86,0,0,1,2-1.37,6.38,6.38,0,0,1,2.62-.51,8.86,8.86,0,0,1,1.77.17,9.56,9.56,0,0,1,1.57.5L252.7,82a8.34,8.34,0,0,0-1.06-.32,5.07,5.07,0,0,0-1.28-.14,2.71,2.71,0,0,0-2.27.94,3.89,3.89,0,0,0-.75,2.49,4,4,0,0,0,.7,2.53,2.94,2.94,0,0,0,2.45.89,8.06,8.06,0,0,0,1.34-.11,5.86,5.86,0,0,0,1.31-.37l.48,2.81a8.42,8.42,0,0,1-1.49.44,10.11,10.11,0,0,1-2,.18,7.47,7.47,0,0,1-2.86-.49,5.36,5.36,0,0,1-2-1.35,5.24,5.24,0,0,1-1.13-2A8.53,8.53,0,0,1,243.84,85Z" transform="translate(-6 -9.21)"/><path class="cls-8" d="M260.64,75.42A1.86,1.86,0,0,1,260,76.9a2.19,2.19,0,0,1-2.88,0,1.89,1.89,0,0,1-.6-1.48,1.91,1.91,0,0,1,.6-1.49,2.19,2.19,0,0,1,2.88,0A1.88,1.88,0,0,1,260.64,75.42ZM260.32,91h-3.43V78.91h3.43Z" transform="translate(-6 -9.21)"/><path class="cls-8" d="M268.86,78.59a8,8,0,0,1,2.53.35,4,4,0,0,1,1.62,1,3.62,3.62,0,0,1,.86,1.56,7.73,7.73,0,0,1,.25,2.05v7.13c-.49.11-1.17.24-2,.38a19.31,19.31,0,0,1-3.18.22,10,10,0,0,1-2.13-.21,4.57,4.57,0,0,1-1.64-.67,3.11,3.11,0,0,1-1.06-1.24,4.14,4.14,0,0,1-.37-1.86,3.44,3.44,0,0,1,.43-1.79,3.15,3.15,0,0,1,1.14-1.18,5.13,5.13,0,0,1,1.63-.63,9.16,9.16,0,0,1,1.91-.2,10.3,10.3,0,0,1,1.18.06,5.41,5.41,0,0,1,.84.15v-.32a1.93,1.93,0,0,0-.52-1.41,2.61,2.61,0,0,0-1.85-.52,12.32,12.32,0,0,0-1.72.12,7.9,7.9,0,0,0-1.47.36l-.44-2.76.75-.2c.3-.07.62-.13,1-.18s.73-.1,1.12-.14A11.71,11.71,0,0,1,268.86,78.59Zm.27,10c.34,0,.66,0,1,0a5.64,5.64,0,0,0,.73-.07v-2.6a5.88,5.88,0,0,0-.62-.09,7.07,7.07,0,0,0-.76,0,6.62,6.62,0,0,0-.91.06,2.29,2.29,0,0,0-.74.22,1.17,1.17,0,0,0-.69,1.13,1.16,1.16,0,0,0,.54,1.11A2.93,2.93,0,0,0,269.13,88.63Z" transform="translate(-6 -9.21)"/><path class="cls-8" d="M283,91.25a8.72,8.72,0,0,1-2.43-.32,3.6,3.6,0,0,1-1.47-.84,2.79,2.79,0,0,1-.74-1.32A7,7,0,0,1,278.2,87V73.71l3.43-.55V86.35a4.28,4.28,0,0,0,.07.83,1.39,1.39,0,0,0,.26.62,1.43,1.43,0,0,0,.56.41,3.05,3.05,0,0,0,1,.21Z" transform="translate(-6 -9.21)"/><path class="cls-8" d="M297.94,74.89a10.06,10.06,0,0,1,5.48,1.25,5.39,5.39,0,0,1,0,8.26,10,10,0,0,1-5.52,1.28h-1.13V91h-3.59V75.3a21.13,21.13,0,0,1,2.49-.32C296.51,74.92,297.28,74.89,297.94,74.89Zm.23,3.06-.77,0-.66,0v4.6h1.13a6.09,6.09,0,0,0,2.81-.51,1.92,1.92,0,0,0,.94-1.88,2.28,2.28,0,0,0-.24-1.11,1.85,1.85,0,0,0-.69-.7,3,3,0,0,0-1.09-.37A9,9,0,0,0,298.17,78Z" transform="translate(-6 -9.21)"/><path class="cls-8" d="M313.54,91.25a8.78,8.78,0,0,1-2.43-.32,3.6,3.6,0,0,1-1.47-.84,2.77,2.77,0,0,1-.73-1.32,6.58,6.58,0,0,1-.2-1.73V73.71l3.43-.55V86.35a4.28,4.28,0,0,0,.07.83,1.27,1.27,0,0,0,.83,1,2.93,2.93,0,0,0,1,.21Z" transform="translate(-6 -9.21)"/><path class="cls-8" d="M321.64,78.59a7.91,7.91,0,0,1,2.53.35,3.84,3.84,0,0,1,1.62,1,3.63,3.63,0,0,1,.87,1.56,7.73,7.73,0,0,1,.25,2.05v7.13c-.49.11-1.17.24-2.05.38a19.1,19.1,0,0,1-3.17.22,9.92,9.92,0,0,1-2.13-.21,4.54,4.54,0,0,1-1.65-.67,3.08,3.08,0,0,1-1.05-1.24,4.14,4.14,0,0,1-.37-1.86,3.54,3.54,0,0,1,.42-1.79,3.31,3.31,0,0,1,1.14-1.18,5.19,5.19,0,0,1,1.64-.63,9.16,9.16,0,0,1,1.91-.2,10.3,10.3,0,0,1,1.18.06,5.41,5.41,0,0,1,.84.15v-.32a1.94,1.94,0,0,0-.53-1.41,2.58,2.58,0,0,0-1.84-.52,12.47,12.47,0,0,0-1.73.12,8.32,8.32,0,0,0-1.47.36l-.43-2.76c.19-.06.44-.13.74-.2s.63-.13,1-.18.73-.1,1.12-.14A11.51,11.51,0,0,1,321.64,78.59Zm.28,10q.51,0,1,0a5.64,5.64,0,0,0,.74-.07v-2.6c-.14,0-.34-.06-.62-.09a7.24,7.24,0,0,0-.76,0,6.62,6.62,0,0,0-.91.06,2.44,2.44,0,0,0-.75.22,1.26,1.26,0,0,0-.5.44,1.39,1.39,0,0,0,.35,1.8A3,3,0,0,0,321.92,88.63Z" transform="translate(-6 -9.21)"/><path class="cls-8" d="M330.87,75.9l3.43-.55v3.56h4.12v2.86H334.3V86a3.31,3.31,0,0,0,.38,1.73,1.62,1.62,0,0,0,1.53.64,6.51,6.51,0,0,0,1.14-.1,5.57,5.57,0,0,0,1.07-.29l.48,2.67a9.33,9.33,0,0,1-1.38.44,8.28,8.28,0,0,1-1.87.18,6,6,0,0,1-2.32-.38,3.65,3.65,0,0,1-1.47-1,3.88,3.88,0,0,1-.77-1.65,9.45,9.45,0,0,1-.22-2.14Z" transform="translate(-6 -9.21)"/><path class="cls-8" d="M347.41,73.16a7.57,7.57,0,0,1,1.78.2,7.85,7.85,0,0,1,1.24.38l-.67,2.74a4.5,4.5,0,0,0-1-.32,6.26,6.26,0,0,0-1-.1,2.92,2.92,0,0,0-1.05.17,1.78,1.78,0,0,0-.67.48,1.8,1.8,0,0,0-.34.71,3.65,3.65,0,0,0-.1.9v.59h4.23v2.86H345.6V91h-3.43V78.27a4.7,4.7,0,0,1,5.24-5.11Z" transform="translate(-6 -9.21)"/><path class="cls-8" d="M364,84.94a7.94,7.94,0,0,1-.41,2.61,5.7,5.7,0,0,1-1.2,2,5.42,5.42,0,0,1-1.88,1.3,6.67,6.67,0,0,1-4.87,0,5.42,5.42,0,0,1-1.88-1.3,5.88,5.88,0,0,1-1.22-2,7.44,7.44,0,0,1-.44-2.61,7.24,7.24,0,0,1,.45-2.6,5.91,5.91,0,0,1,1.25-2,5.53,5.53,0,0,1,1.88-1.29,6.46,6.46,0,0,1,4.79,0,5.49,5.49,0,0,1,1.87,1.29,5.69,5.69,0,0,1,1.22,2A7.24,7.24,0,0,1,364,84.94Zm-3.5,0a4.29,4.29,0,0,0-.63-2.49,2.06,2.06,0,0,0-1.81-.91,2.08,2.08,0,0,0-1.81.91,4.21,4.21,0,0,0-.65,2.49,4.35,4.35,0,0,0,.65,2.52,2.07,2.07,0,0,0,1.81.93,2.05,2.05,0,0,0,1.81-.93A4.43,4.43,0,0,0,360.48,84.94Z" transform="translate(-6 -9.21)"/><path class="cls-8" d="M374.89,82l-1.08-.24a7.08,7.08,0,0,0-1.34-.13,6,6,0,0,0-.77.06,4.34,4.34,0,0,0-.68.13V91h-3.43V79.56a19.3,19.3,0,0,1,2.18-.61,12.59,12.59,0,0,1,2.79-.29,5.79,5.79,0,0,1,.67,0q.39,0,.78.09c.26,0,.52.08.79.14a3.79,3.79,0,0,1,.66.19Z" transform="translate(-6 -9.21)"/><path class="cls-8" d="M384.92,84.6a4.65,4.65,0,0,0-.43-2.35,1.56,1.56,0,0,0-1.46-.69l-.66,0c-.23,0-.46,0-.67.09V91h-3.43V79.33q.44-.12,1-.24c.4-.09.81-.16,1.25-.23s.88-.13,1.34-.16.92-.06,1.36-.06a5.77,5.77,0,0,1,2.13.33,4.87,4.87,0,0,1,1.35.8,5.67,5.67,0,0,1,1.69-.83,5.86,5.86,0,0,1,1.76-.3,6,6,0,0,1,2.38.4A3.55,3.55,0,0,1,394,80.18a4.28,4.28,0,0,1,.76,1.75,11.11,11.11,0,0,1,.21,2.25V91h-3.43V84.6a4.78,4.78,0,0,0-.42-2.35,1.6,1.6,0,0,0-1.47-.69,3.24,3.24,0,0,0-.77.14,3.08,3.08,0,0,0-.81.34,5.83,5.83,0,0,1,.2,1.12c0,.39.05.81.05,1.25V91h-3.43Z" transform="translate(-6 -9.21)"/></svg>