<svg xmlns="http://www.w3.org/2000/svg" xmlns:xlink="http://www.w3.org/1999/xlink" viewBox="0 0 706.64 148"><defs><style>.cls-1{isolation:isolate;}.cls-2{fill:#fff;}.cls-3{fill:none;}.cls-4{fill:#bea48a;}.cls-5,.cls-6{fill:#aa8454;}.cls-6{opacity:0.23;}.cls-15,.cls-16,.cls-6,.cls-9{mix-blend-mode:multiply;}.cls-7,.cls-8,.cls-9{fill:#d7b981;}.cls-8{opacity:0.5;mix-blend-mode:screen;}.cls-16,.cls-9{opacity:0.4;}.cls-10{fill:url(#linear-gradient);}.cls-11{fill:url(#linear-gradient-2);}.cls-12{fill:url(#linear-gradient-3);}.cls-13,.cls-15{fill:#db443f;}.cls-14,.cls-16{fill:#fdba48;}.cls-15{opacity:0.19;}.cls-17{fill:#fff8e3;}</style><linearGradient id="linear-gradient" x1="104.41" y1="300.73" x2="211.69" y2="300.73" gradientUnits="userSpaceOnUse"><stop offset="0" stop-color="#e55025"/><stop offset="0.1" stop-color="#e75827"/><stop offset="0.26" stop-color="#ec6e2e"/><stop offset="0.45" stop-color="#f49239"/><stop offset="0.58" stop-color="#faaf42"/><stop offset="1" stop-color="#f9cc10"/></linearGradient><linearGradient id="linear-gradient-2" x1="88.83" y1="288.76" x2="123.33" y2="288.76" xlink:href="#linear-gradient"/><linearGradient id="linear-gradient-3" x1="88.55" y1="316.86" x2="114.42" y2="316.86" xlink:href="#linear-gradient"/></defs><title>ccar cny</title><g class="cls-1"><g id="Layer_1" data-name="Layer 1"><path class="cls-2" d="M330.23,252.55h-21.4l1.84-6.31a3.55,3.55,0,0,0,.07-.67c0-.95-.71-1.43-2.14-1.43h-9.49c-1.71,0-2.76.7-3.14,2.1l-8.83,31.61a4.85,4.85,0,0,0-.07.72c0,.91.69,1.37,2.07,1.37h9.49c1.76,0,2.83-.69,3.21-2.09l1.78-6.41H325l-4.56,16.63q-1.93,6.89-7,10.18t-17.55,3.25H278.64q-12.4,0-15.69-3.25a7.46,7.46,0,0,1-2.14-5.61,16.84,16.84,0,0,1,.71-4.57l14.34-52.15q1.93-6.87,7-10.18t17.56-3.25h17.27q12.4.06,15.69,3.25a7.48,7.48,0,0,1,2.14,5.61,17.18,17.18,0,0,1-.71,4.57Z" transform="translate(-84.47 -213)"/><path class="cls-2" d="M405.58,252.55h-21.4l1.84-6.31a3.65,3.65,0,0,0,.08-.67c0-.95-.72-1.43-2.15-1.43h-9.48c-1.72,0-2.76.7-3.14,2.1l-8.84,31.61a4.85,4.85,0,0,0-.07.72c0,.91.69,1.37,2.07,1.37H374c1.76,0,2.83-.69,3.21-2.09l1.78-6.41h21.41l-4.57,16.63q-1.94,6.89-7,10.18t-17.56,3.25H354q-12.42,0-15.7-3.25a7.46,7.46,0,0,1-2.14-5.61,16.84,16.84,0,0,1,.71-4.57l14.34-52.15q1.94-6.87,7-10.18t17.56-3.25H393q12.41.06,15.69,3.25a7.48,7.48,0,0,1,2.14,5.61,17.18,17.18,0,0,1-.71,4.57Z" transform="translate(-84.47 -213)"/><path class="cls-2" d="M442.26,222.49h36.32l-3.21,79H452.54l.78-14.92H432.27l-7.49,14.92H402Zm11.93,21.67-14.28,27.28h14Z" transform="translate(-84.47 -213)"/><path class="cls-2" d="M515.87,276.73l-6.61,24.77H486.43l21.76-79H547q12.4.06,15.69,3.25a7.48,7.48,0,0,1,2.14,5.61,16.78,16.78,0,0,1-.71,4.57L558.85,255q-1.86,6.89-10.56,10.19c-1.47.51-2.28.91-2.42,1.21v.05c0,.3.59.66,1.78,1.1q6.06,2.66,6.06,7.6a10.7,10.7,0,0,1-.35,2.59l-6.57,23.73H524l6-22.68a3.53,3.53,0,0,0,.07-.66c0-1-.71-1.43-2.14-1.43Zm9-32.57L521,258.77h12.06c1.76,0,2.83-.69,3.21-2.09L539,246.25a4.37,4.37,0,0,0,.07-.66c0-1-.72-1.43-2.14-1.43Z" transform="translate(-84.47 -213)"/><path class="cls-2" d="M587.89,282.78l-5.13,18.72H558.5l5.13-18.72Z" transform="translate(-84.47 -213)"/><path class="cls-2" d="M634.77,301.5,631.35,247l-15,54.51H595l21.76-79H647.4l3.36,56.33,34.32-56.33h30.68L694,301.5H672.59l15-54.51L654.9,301.5Z" transform="translate(-84.47 -213)"/><path class="cls-2" d="M717.69,222.49h22.83L745.16,256l23.12-33.48h22.83l-40,53.46L744,301.5H721.18l7.07-25.66Z" transform="translate(-84.47 -213)"/><path class="cls-2" d="M275.73,336.05h5.32l1.5-7.8h6l-1.49,7.8h3.33v5.28H286L284.92,347h5.43v5.28h-6.44l-1.5,7.79h-6l1.5-7.79h-5.32l-1.5,7.79h-6l1.49-7.79h-3.33V347h4.34l1.09-5.64h-5.43v-5.28h6.44l1.5-7.8h6ZM273.64,347H279l1.08-5.64h-5.32Z" transform="translate(-84.47 -213)"/><path class="cls-2" d="M298,334.86c.88-.37,1.81-.79,2.77-1.26A29.73,29.73,0,0,0,303.6,332c.92-.56,1.8-1.16,2.64-1.79a17.72,17.72,0,0,0,2.27-2h4.77V360h-6.83V337.15a20.34,20.34,0,0,1-3.08,1.68c-1.13.5-2.23.94-3.3,1.31Z" transform="translate(-84.47 -213)"/><path class="cls-2" d="M353.88,360.69q-7.75,0-11.81-4.31T338,344.13a18.73,18.73,0,0,1,1.24-7,15,15,0,0,1,3.39-5.23,14.33,14.33,0,0,1,5.14-3.24,18.56,18.56,0,0,1,6.46-1.1,20.57,20.57,0,0,1,3.67.3,23.77,23.77,0,0,1,2.89.69,13.65,13.65,0,0,1,2.07.8c.55.27.95.49,1.19.64L362,335.73a17.55,17.55,0,0,0-3.42-1.33,16.62,16.62,0,0,0-4.43-.55,9.92,9.92,0,0,0-3.23.55,7.33,7.33,0,0,0-2.8,1.77,8.84,8.84,0,0,0-1.95,3.14,13.18,13.18,0,0,0-.73,4.68,16.64,16.64,0,0,0,.48,4.1,8.61,8.61,0,0,0,1.56,3.28,7.44,7.44,0,0,0,2.82,2.18,10,10,0,0,0,4.22.81,19.57,19.57,0,0,0,2.8-.19c.82-.12,1.56-.27,2.2-.43a11.22,11.22,0,0,0,1.7-.58l1.33-.59,2,5.73a16.83,16.83,0,0,1-4.27,1.65A24.77,24.77,0,0,1,353.88,360.69Z" transform="translate(-84.47 -213)"/><path class="cls-2" d="M379.7,335.27a15.83,15.83,0,0,1,5.05.69,7.93,7.93,0,0,1,3.23,2,7.33,7.33,0,0,1,1.72,3.12,15.32,15.32,0,0,1,.51,4.09v14.22c-1,.21-2.34.46-4.09.75a39.18,39.18,0,0,1-6.33.44,20.4,20.4,0,0,1-4.24-.41,9.26,9.26,0,0,1-3.28-1.36,6.11,6.11,0,0,1-2.11-2.45,8.48,8.48,0,0,1-.73-3.72,7,7,0,0,1,.85-3.57,6.45,6.45,0,0,1,2.27-2.34,10.21,10.21,0,0,1,3.25-1.27,18.23,18.23,0,0,1,3.81-.39,20.61,20.61,0,0,1,2.36.12,9.18,9.18,0,0,1,1.68.3v-.64a3.79,3.79,0,0,0-1.06-2.8,5.08,5.08,0,0,0-3.67-1.06,24.54,24.54,0,0,0-3.44.25,15.17,15.17,0,0,0-2.93.71l-.88-5.5c.4-.12.9-.25,1.49-.39s1.25-.26,1.95-.37,1.45-.19,2.23-.27A23.16,23.16,0,0,1,379.7,335.27Zm.55,20c.67,0,1.32,0,1.93,0a13.62,13.62,0,0,0,1.47-.14v-5.18c-.28-.06-.69-.12-1.24-.19a14.14,14.14,0,0,0-1.52-.09,13,13,0,0,0-1.81.12,4.72,4.72,0,0,0-1.49.43,2.69,2.69,0,0,0-1,.87,2.49,2.49,0,0,0-.37,1.38,2.36,2.36,0,0,0,1.08,2.23A6,6,0,0,0,380.25,355.27Z" transform="translate(-84.47 -213)"/><path class="cls-2" d="M412.87,342c-.62-.15-1.33-.31-2.16-.48a13.21,13.21,0,0,0-2.66-.25,13.68,13.68,0,0,0-1.54.11,10.11,10.11,0,0,0-1.35.25V360h-6.83V337.2a41.84,41.84,0,0,1,4.33-1.22,25.1,25.1,0,0,1,5.57-.57c.37,0,.81,0,1.33.07s1,.11,1.56.18,1,.17,1.56.28a7.65,7.65,0,0,1,1.33.39Z" transform="translate(-84.47 -213)"/><path class="cls-2" d="M441.67,354.58a10.25,10.25,0,0,0,2.5-.25,4.33,4.33,0,0,0,1.59-.69,2.3,2.3,0,0,0,.82-1,3.71,3.71,0,0,0,.23-1.33,3.07,3.07,0,0,0-1.47-2.59,20.78,20.78,0,0,0-5-2.22q-1.56-.56-3.12-1.26a11.28,11.28,0,0,1-2.8-1.8,8.31,8.31,0,0,1-2-2.61,8.18,8.18,0,0,1-.78-3.74,9.2,9.2,0,0,1,.83-4,8.4,8.4,0,0,1,2.34-3,10.72,10.72,0,0,1,3.67-1.9,16.18,16.18,0,0,1,4.86-.67,19.5,19.5,0,0,1,9.4,2.2l-2.06,5.65a19.64,19.64,0,0,0-3-1.22,12.86,12.86,0,0,0-3.92-.53,7.25,7.25,0,0,0-3.7.71,2.4,2.4,0,0,0-1.12,2.18,2.57,2.57,0,0,0,.41,1.47,4.09,4.09,0,0,0,1.17,1.08,10.57,10.57,0,0,0,1.75.87c.65.26,1.38.53,2.18.8,1.65.61,3.08,1.22,4.31,1.82a11.52,11.52,0,0,1,3.05,2.08,7.64,7.64,0,0,1,1.81,2.8,11.18,11.18,0,0,1,.6,3.9,8.27,8.27,0,0,1-3.12,6.9q-3.12,2.46-9.41,2.46a25.93,25.93,0,0,1-3.81-.26,22.18,22.18,0,0,1-3-.62,17.71,17.71,0,0,1-2.25-.77c-.62-.28-1.15-.54-1.58-.78l2-5.69a18.55,18.55,0,0,0,3.51,1.4A18.29,18.29,0,0,0,441.67,354.58Z" transform="translate(-84.47 -213)"/><path class="cls-2" d="M483.74,347.93a15.68,15.68,0,0,1-.83,5.21,11.31,11.31,0,0,1-2.39,4,10.78,10.78,0,0,1-3.73,2.59,12.57,12.57,0,0,1-4.89.92,12.39,12.39,0,0,1-4.84-.92,10.82,10.82,0,0,1-3.74-2.59,11.85,11.85,0,0,1-2.43-4,15,15,0,0,1-.87-5.21,14.55,14.55,0,0,1,.89-5.18,11.88,11.88,0,0,1,2.48-4,11.19,11.19,0,0,1,3.76-2.57,12.83,12.83,0,0,1,9.54,0,10.82,10.82,0,0,1,3.74,2.57,11.62,11.62,0,0,1,2.43,4A14.78,14.78,0,0,1,483.74,347.93Zm-7,0a8.58,8.58,0,0,0-1.26-5,4.12,4.12,0,0,0-3.6-1.82,4.17,4.17,0,0,0-3.62,1.82,8.43,8.43,0,0,0-1.29,5,8.7,8.7,0,0,0,1.29,5,4.15,4.15,0,0,0,3.62,1.85,4.1,4.1,0,0,0,3.6-1.85A8.85,8.85,0,0,0,476.76,347.93Z" transform="translate(-84.47 -213)"/><path class="cls-2" d="M489.79,348a14.11,14.11,0,0,1,.85-4.93,11.68,11.68,0,0,1,2.45-4,11.91,11.91,0,0,1,3.9-2.73,12.91,12.91,0,0,1,5.23-1,16.83,16.83,0,0,1,3.53.35,17.93,17.93,0,0,1,3.12,1l-1.42,5.46a17.57,17.57,0,0,0-2.11-.64,11.24,11.24,0,0,0-2.57-.28,5.41,5.41,0,0,0-4.52,1.89,7.74,7.74,0,0,0-1.49,5,8.07,8.07,0,0,0,1.4,5q1.39,1.79,4.89,1.78a16,16,0,0,0,2.66-.23,11,11,0,0,0,2.61-.73l1,5.6a16.66,16.66,0,0,1-3,.87,19.91,19.91,0,0,1-3.94.37,14.81,14.81,0,0,1-5.69-1,10.71,10.71,0,0,1-3.92-2.68,10.32,10.32,0,0,1-2.25-4A17.11,17.11,0,0,1,489.79,348Z" transform="translate(-84.47 -213)"/><path class="cls-2" d="M523.27,328.94a3.73,3.73,0,0,1-1.21,3,4.34,4.34,0,0,1-5.73,0,4.2,4.2,0,0,1,0-5.92,4.37,4.37,0,0,1,5.73,0A3.76,3.76,0,0,1,523.27,328.94Zm-.64,31.1H515.8V335.92h6.83Z" transform="translate(-84.47 -213)"/><path class="cls-2" d="M539.65,335.27a15.83,15.83,0,0,1,5.05.69,7.93,7.93,0,0,1,3.23,2,7.33,7.33,0,0,1,1.72,3.12,15.33,15.33,0,0,1,.5,4.09v14.22c-1,.21-2.33.46-4.08.75a39.18,39.18,0,0,1-6.33.44,20.4,20.4,0,0,1-4.24-.41,9.26,9.26,0,0,1-3.28-1.36,6.11,6.11,0,0,1-2.11-2.45,8.47,8.47,0,0,1-.74-3.72,7.06,7.06,0,0,1,.85-3.57,6.61,6.61,0,0,1,2.27-2.34,10.36,10.36,0,0,1,3.26-1.27,18.23,18.23,0,0,1,3.81-.39,20.73,20.73,0,0,1,2.36.12,8.89,8.89,0,0,1,1.67.3v-.64a3.78,3.78,0,0,0-1.05-2.8,5.08,5.08,0,0,0-3.67-1.06,24.54,24.54,0,0,0-3.44.25,15.47,15.47,0,0,0-2.94.71l-.87-5.5c.4-.12.9-.25,1.49-.39s1.25-.26,1.95-.37,1.45-.19,2.23-.27A23,23,0,0,1,539.65,335.27Zm.55,20c.67,0,1.32,0,1.93,0a13.15,13.15,0,0,0,1.46-.14v-5.18c-.27-.06-.68-.12-1.23-.19a14.14,14.14,0,0,0-1.52-.09,13,13,0,0,0-1.81.12,4.65,4.65,0,0,0-1.49.43,2.62,2.62,0,0,0-1,.87,2.49,2.49,0,0,0-.37,1.38,2.36,2.36,0,0,0,1.08,2.23A6,6,0,0,0,540.2,355.27Z" transform="translate(-84.47 -213)"/><path class="cls-2" d="M567.9,360.5a16.9,16.9,0,0,1-4.83-.64,7.19,7.19,0,0,1-2.94-1.67,5.54,5.54,0,0,1-1.47-2.62,14.08,14.08,0,0,1-.39-3.46V325.55l6.84-1.1v26.28a9.13,9.13,0,0,0,.13,1.65,2.92,2.92,0,0,0,.53,1.24,2.85,2.85,0,0,0,1.13.83,6.14,6.14,0,0,0,2,.41Z" transform="translate(-84.47 -213)"/><path class="cls-2" d="M597.63,327.89q7.11,0,10.92,2.5t3.8,8.19q0,5.73-3.85,8.28t-11,2.54h-2.25V360h-7.15V328.72a39.24,39.24,0,0,1,4.95-.65C594.79,328,596.31,327.89,597.63,327.89Zm.46,6.1c-.52,0-1,0-1.54.05l-1.31.09v9.17h2.25a12.24,12.24,0,0,0,5.6-1,3.88,3.88,0,0,0,1.88-3.76,4.51,4.51,0,0,0-.48-2.2,3.64,3.64,0,0,0-1.38-1.4,6.09,6.09,0,0,0-2.18-.73A17.59,17.59,0,0,0,598.09,334Z" transform="translate(-84.47 -213)"/><path class="cls-2" d="M628.73,360.5a17,17,0,0,1-4.84-.64,7.09,7.09,0,0,1-2.93-1.67,5.54,5.54,0,0,1-1.47-2.62,14.08,14.08,0,0,1-.39-3.46V325.55l6.83-1.1v26.28a9.07,9.07,0,0,0,.14,1.65,2.62,2.62,0,0,0,1.65,2.07,6.27,6.27,0,0,0,2,.41Z" transform="translate(-84.47 -213)"/><path class="cls-2" d="M644.88,335.27a15.8,15.8,0,0,1,5,.69,7.8,7.8,0,0,1,3.23,2,7.25,7.25,0,0,1,1.73,3.12,15.75,15.75,0,0,1,.5,4.09v14.22q-1.47.31-4.08.75a39.36,39.36,0,0,1-6.33.44,20.5,20.5,0,0,1-4.25-.41,9.34,9.34,0,0,1-3.28-1.36,6.19,6.19,0,0,1-2.11-2.45,8.48,8.48,0,0,1-.73-3.72,7,7,0,0,1,.85-3.57,6.45,6.45,0,0,1,2.27-2.34,10.27,10.27,0,0,1,3.26-1.27,18.21,18.21,0,0,1,3.8-.39,20.79,20.79,0,0,1,2.37.12,9.21,9.21,0,0,1,1.67.3v-.64a3.78,3.78,0,0,0-1.05-2.8A5.09,5.09,0,0,0,644.1,341a24.69,24.69,0,0,0-3.45.25,15.17,15.17,0,0,0-2.93.71l-.87-5.5c.4-.12.89-.25,1.49-.39s1.24-.26,1.95-.37,1.44-.19,2.22-.27A23.21,23.21,0,0,1,644.88,335.27Zm.55,20c.67,0,1.31,0,1.92,0a13.62,13.62,0,0,0,1.47-.14v-5.18c-.28-.06-.69-.12-1.24-.19a14,14,0,0,0-1.51-.09,12.89,12.89,0,0,0-1.81.12,4.57,4.57,0,0,0-1.49.43,2.62,2.62,0,0,0-1,.87,2.41,2.41,0,0,0-.37,1.38,2.36,2.36,0,0,0,1.08,2.23A6,6,0,0,0,645.43,355.27Z" transform="translate(-84.47 -213)"/><path class="cls-2" d="M663.27,329.91l6.83-1.1v7.11h8.21v5.68H670.1v8.49a6.8,6.8,0,0,0,.76,3.44c.5.86,1.52,1.28,3,1.28a12.75,12.75,0,0,0,2.27-.2,11.38,11.38,0,0,0,2.13-.58l1,5.33a21.74,21.74,0,0,1-2.75.87,16.37,16.37,0,0,1-3.72.36,12.32,12.32,0,0,1-4.63-.75,7.35,7.35,0,0,1-2.94-2.11,7.92,7.92,0,0,1-1.54-3.28,19.48,19.48,0,0,1-.43-4.27Z" transform="translate(-84.47 -213)"/><path class="cls-2" d="M696.25,324.45a15,15,0,0,1,3.53.39,17.92,17.92,0,0,1,2.48.75l-1.33,5.46a8.81,8.81,0,0,0-2-.61,10.37,10.37,0,0,0-2-.21,5.58,5.58,0,0,0-2.09.34,3.17,3.17,0,0,0-1.33.94,3.69,3.69,0,0,0-.69,1.42,7.85,7.85,0,0,0-.2,1.79v1.2h8.44v5.68h-8.44V360h-6.84V334.63a10.27,10.27,0,0,1,2.64-7.43C690.19,325.37,692.79,324.45,696.25,324.45Z" transform="translate(-84.47 -213)"/><path class="cls-2" d="M729.28,347.93a15.68,15.68,0,0,1-.83,5.21,11.29,11.29,0,0,1-2.38,4,10.82,10.82,0,0,1-3.74,2.59,13.32,13.32,0,0,1-9.73,0,10.82,10.82,0,0,1-3.74-2.59,11.85,11.85,0,0,1-2.43-4,15,15,0,0,1-.87-5.21,14.55,14.55,0,0,1,.89-5.18,11.88,11.88,0,0,1,2.48-4,11.19,11.19,0,0,1,3.76-2.57,12.85,12.85,0,0,1,9.55,0,10.87,10.87,0,0,1,3.73,2.57,11.62,11.62,0,0,1,2.43,4A14.55,14.55,0,0,1,729.28,347.93Zm-7,0a8.58,8.58,0,0,0-1.26-5,4.12,4.12,0,0,0-3.6-1.82,4.17,4.17,0,0,0-3.62,1.82,8.43,8.43,0,0,0-1.29,5,8.7,8.7,0,0,0,1.29,5,4.15,4.15,0,0,0,3.62,1.85A4.1,4.1,0,0,0,721,353,8.85,8.85,0,0,0,722.3,347.93Z" transform="translate(-84.47 -213)"/><path class="cls-2" d="M751,342q-.91-.23-2.16-.48a13.14,13.14,0,0,0-2.66-.25,13.37,13.37,0,0,0-1.53.11,10,10,0,0,0-1.36.25V360h-6.83V337.2a41.84,41.84,0,0,1,4.33-1.22,25.2,25.2,0,0,1,5.58-.57c.36,0,.81,0,1.33.07s1,.11,1.55.18,1,.17,1.57.28a8.21,8.21,0,0,1,1.33.39Z" transform="translate(-84.47 -213)"/><path class="cls-2" d="M771,347.25a9.48,9.48,0,0,0-.85-4.68,3.15,3.15,0,0,0-2.91-1.38,12.23,12.23,0,0,0-1.33.07l-1.33.16V360h-6.84v-23.3q.87-.23,2-.48c.78-.17,1.61-.32,2.48-.46s1.77-.24,2.68-.32,1.82-.11,2.71-.11a11.43,11.43,0,0,1,4.24.66,9.6,9.6,0,0,1,2.69,1.58A11.76,11.76,0,0,1,778,336a12.62,12.62,0,0,1,8.26.21,7.1,7.1,0,0,1,2.95,2.27,8.6,8.6,0,0,1,1.52,3.48,23,23,0,0,1,.41,4.5V360h-6.84V347.25a9.5,9.5,0,0,0-.84-4.68,3.16,3.16,0,0,0-2.92-1.38,5.87,5.87,0,0,0-1.53.28,5.75,5.75,0,0,0-1.63.69,10.51,10.51,0,0,1,.41,2.22c.06.78.09,1.61.09,2.5V360H771Z" transform="translate(-84.47 -213)"/><path class="cls-3" d="M198,261.11l-.5.23-.27.1c.5.55,1,1.12,1.46,1.69a16.45,16.45,0,0,1-.63-1.95l1.12-.64-.52.28Z" transform="translate(-84.47 -213)"/><path class="cls-4" d="M218.94,254.17c-4.78-1.35-14.6,3.57-18.82,5.87l-.27.16c-.19.12-.39.22-.59.32l0,0-1.12.64a16.45,16.45,0,0,0,.63,1.95,56.83,56.83,0,0,1,4.64,6.36c2.42,1.72,5.84,2.53,10.6.7C222,267.11,221.16,254.8,218.94,254.17Zm-.09,6.87h0a8.34,8.34,0,0,1-2.59,5.38c-5,4.28-8.95,2.38-10.86.86h0l-.08-.07-.42-.36-.1-.1-.3-.29-.07-.07-.19-.22,0,0-.07-.09s10-1.81,12.83-8.61a2.84,2.84,0,0,1,.38-.67l.11-.12a.68.68,0,0,1,.26-.18.27.27,0,0,1,.12,0,.49.49,0,0,1,.25.08.35.35,0,0,1,.08.05,1.24,1.24,0,0,1,.3.41l0,.08a5.06,5.06,0,0,1,.2.59c0,.07,0,.14.05.21s.08.44.11.69l0,.22a8.11,8.11,0,0,1,0,1v0c0,.37,0,.77-.07,1.17A.09.09,0,0,1,218.85,261Z" transform="translate(-84.47 -213)"/><path class="cls-5" d="M218.17,256.58a1.24,1.24,0,0,1,.3.41A1.24,1.24,0,0,0,218.17,256.58Z" transform="translate(-84.47 -213)"/><path class="cls-5" d="M217.84,256.45a.49.49,0,0,1,.25.08A.49.49,0,0,0,217.84,256.45Z" transform="translate(-84.47 -213)"/><path class="cls-5" d="M218.93,259.82c0,.37,0,.77-.07,1.17C218.9,260.59,218.93,260.19,218.93,259.82Z" transform="translate(-84.47 -213)"/><path class="cls-5" d="M218.89,258.78a8.11,8.11,0,0,1,0,1A8.11,8.11,0,0,0,218.89,258.78Z" transform="translate(-84.47 -213)"/><path class="cls-5" d="M218.75,257.87c0,.21.08.44.11.69C218.83,258.31,218.79,258.08,218.75,257.87Z" transform="translate(-84.47 -213)"/><path class="cls-5" d="M218.5,257.07a5.06,5.06,0,0,1,.2.59A5.06,5.06,0,0,0,218.5,257.07Z" transform="translate(-84.47 -213)"/><path class="cls-5" d="M205.32,267.22l-.42-.36Z" transform="translate(-84.47 -213)"/><path class="cls-5" d="M204.43,266.4l-.19-.22Z" transform="translate(-84.47 -213)"/><path class="cls-5" d="M204.8,266.76l-.3-.29Z" transform="translate(-84.47 -213)"/><path class="cls-5" d="M204.21,266.15l-.07-.09Z" transform="translate(-84.47 -213)"/><path class="cls-5" d="M217,257.45a2.84,2.84,0,0,1,.38-.67A2.84,2.84,0,0,0,217,257.45Z" transform="translate(-84.47 -213)"/><path class="cls-5" d="M217.46,256.66a.68.68,0,0,1,.26-.18A.68.68,0,0,0,217.46,256.66Z" transform="translate(-84.47 -213)"/><path class="cls-5" d="M216.26,266.43a8.34,8.34,0,0,0,2.59-5.38c-3.88,4.53-10.79,5.88-13.45,6.24C207.31,268.81,211.23,270.71,216.26,266.43Z" transform="translate(-84.47 -213)"/><path class="cls-4" d="M217.35,256.78l.11-.12Z" transform="translate(-84.47 -213)"/><path class="cls-6" d="M217.35,256.78l.11-.12Z" transform="translate(-84.47 -213)"/><path class="cls-4" d="M204.9,266.86l-.1-.1Z" transform="translate(-84.47 -213)"/><path class="cls-6" d="M204.9,266.86l-.1-.1Z" transform="translate(-84.47 -213)"/><path class="cls-4" d="M204.24,266.18l0,0Z" transform="translate(-84.47 -213)"/><path class="cls-6" d="M204.24,266.18l0,0Z" transform="translate(-84.47 -213)"/><path class="cls-4" d="M218.47,257l0,.08Z" transform="translate(-84.47 -213)"/><path class="cls-6" d="M218.47,257l0,.08Z" transform="translate(-84.47 -213)"/><path class="cls-4" d="M218.09,256.53a.35.35,0,0,1,.08.05A.35.35,0,0,0,218.09,256.53Z" transform="translate(-84.47 -213)"/><path class="cls-6" d="M218.09,256.53a.35.35,0,0,1,.08.05A.35.35,0,0,0,218.09,256.53Z" transform="translate(-84.47 -213)"/><path class="cls-4" d="M204.5,266.47l-.07-.07Z" transform="translate(-84.47 -213)"/><path class="cls-6" d="M204.5,266.47l-.07-.07Z" transform="translate(-84.47 -213)"/><path class="cls-4" d="M205.4,267.29h0l-.08-.07Z" transform="translate(-84.47 -213)"/><path class="cls-6" d="M205.4,267.29h0l-.08-.07Z" transform="translate(-84.47 -213)"/><path class="cls-4" d="M218.85,261a.09.09,0,0,0,0-.05.13.13,0,0,0,0,.06Z" transform="translate(-84.47 -213)"/><path class="cls-6" d="M218.85,261a.09.09,0,0,0,0-.05.13.13,0,0,0,0,.06Z" transform="translate(-84.47 -213)"/><path class="cls-4" d="M217.72,256.48l.12,0A.27.27,0,0,0,217.72,256.48Z" transform="translate(-84.47 -213)"/><path class="cls-6" d="M217.72,256.48l.12,0A.27.27,0,0,0,217.72,256.48Z" transform="translate(-84.47 -213)"/><path class="cls-4" d="M218.7,257.66c0,.07,0,.14.05.21S218.72,257.73,218.7,257.66Z" transform="translate(-84.47 -213)"/><path class="cls-6" d="M218.7,257.66c0,.07,0,.14.05.21S218.72,257.73,218.7,257.66Z" transform="translate(-84.47 -213)"/><path class="cls-4" d="M218.86,258.56l0,.22Z" transform="translate(-84.47 -213)"/><path class="cls-6" d="M218.86,258.56l0,.22Z" transform="translate(-84.47 -213)"/><path class="cls-4" d="M218.93,259.78v0Z" transform="translate(-84.47 -213)"/><path class="cls-6" d="M218.93,259.78v0Z" transform="translate(-84.47 -213)"/><path class="cls-5" d="M218.93,259.78a8.11,8.11,0,0,0,0-1l0-.22c0-.25-.07-.48-.11-.69s0-.14-.05-.21a5.06,5.06,0,0,0-.2-.59l0-.08a1.24,1.24,0,0,0-.3-.41.35.35,0,0,0-.08-.05.49.49,0,0,0-.25-.08l-.12,0a.68.68,0,0,0-.26.18l-.11.12a2.84,2.84,0,0,0-.38.67c-2.81,6.8-12.83,8.61-12.83,8.61l.07.09,0,0,.19.22.07.07.3.29.1.1.42.36.08.07c2.66-.36,9.57-1.71,13.45-6.24a.13.13,0,0,1,0-.06c0-.4.07-.8.07-1.17Z" transform="translate(-84.47 -213)"/><path class="cls-6" d="M218.93,259.78a8.11,8.11,0,0,0,0-1l0-.22c0-.25-.07-.48-.11-.69s0-.14-.05-.21a5.06,5.06,0,0,0-.2-.59l0-.08a1.24,1.24,0,0,0-.3-.41.35.35,0,0,0-.08-.05.49.49,0,0,0-.25-.08l-.12,0a.68.68,0,0,0-.26.18l-.11.12a2.84,2.84,0,0,0-.38.67c-2.81,6.8-12.83,8.61-12.83,8.61l.07.09,0,0,.19.22.07.07.3.29.1.1.42.36.08.07c2.66-.36,9.57-1.71,13.45-6.24a.13.13,0,0,1,0-.06c0-.4.07-.8.07-1.17Z" transform="translate(-84.47 -213)"/><path class="cls-7" d="M201,234.84l-.18-.59Z" transform="translate(-84.47 -213)"/><path class="cls-7" d="M200.23,244.49a6.34,6.34,0,0,0,.35-.61A6.34,6.34,0,0,1,200.23,244.49Z" transform="translate(-84.47 -213)"/><path class="cls-7" d="M201.22,235.82c-.05-.2-.1-.4-.16-.59C201.12,235.42,201.17,235.62,201.22,235.82Z" transform="translate(-84.47 -213)"/><path class="cls-7" d="M194.46,249.21l.94-.47Z" transform="translate(-84.47 -213)"/><path class="cls-7" d="M201.43,236.85l-.12-.62Z" transform="translate(-84.47 -213)"/><path class="cls-7" d="M200.65,233.89l-.22-.63Z" transform="translate(-84.47 -213)"/><path class="cls-7" d="M192.74,249.91c.37-.13.72-.27,1.06-.42C193.46,249.64,193.11,249.78,192.74,249.91Z" transform="translate(-84.47 -213)"/><path class="cls-7" d="M190.76,250.55c.43-.12.84-.24,1.23-.38C191.6,250.31,191.19,250.43,190.76,250.55Z" transform="translate(-84.47 -213)"/><path class="cls-7" d="M198.74,229.39l-.12-.26Z" transform="translate(-84.47 -213)"/><path class="cls-7" d="M200,232.11c-.11-.27-.22-.53-.33-.77C199.75,231.58,199.86,231.84,200,232.11Z" transform="translate(-84.47 -213)"/><path class="cls-7" d="M201.58,237.93c0-.23-.05-.46-.08-.69C201.53,237.47,201.56,237.7,201.58,237.93Z" transform="translate(-84.47 -213)"/><path class="cls-7" d="M199.53,231.09l-.23-.51C199.37,230.75,199.45,230.92,199.53,231.09Z" transform="translate(-84.47 -213)"/><path class="cls-7" d="M199.5,245.52c.17-.22.34-.43.49-.65C199.84,245.09,199.67,245.3,199.5,245.52Z" transform="translate(-84.47 -213)"/><path class="cls-7" d="M201.45,241.41c.05-.24.08-.48.11-.72C201.53,240.93,201.5,241.17,201.45,241.41Z" transform="translate(-84.47 -213)"/><path class="cls-7" d="M201.18,242.44c.07-.21.13-.42.18-.64C201.31,242,201.25,242.23,201.18,242.44Z" transform="translate(-84.47 -213)"/><path class="cls-7" d="M199.16,230.27c-.07-.14-.14-.28-.2-.42Z" transform="translate(-84.47 -213)"/><path class="cls-7" d="M201.71,259l-.72.49Z" transform="translate(-84.47 -213)"/><path class="cls-7" d="M201.66,239.32c0,.35,0,.7,0,1C201.64,240,201.66,239.67,201.66,239.32Z" transform="translate(-84.47 -213)"/><path class="cls-7" d="M198.34,246.75c-.3.26-.62.51-1,.76l.09-.06C197.77,247.22,198.07,247,198.34,246.75Z" transform="translate(-84.47 -213)"/><path class="cls-7" d="M199.25,245.83a9.55,9.55,0,0,1-.9.9A9.55,9.55,0,0,0,199.25,245.83Z" transform="translate(-84.47 -213)"/><path class="cls-7" d="M200,232.15l.3.74,0-.08C200.17,232.59,200.08,232.36,200,232.15Z" transform="translate(-84.47 -213)"/><path class="cls-7" d="M201.62,238.37c0,.31,0,.63,0,.94,0-.28,0-.56,0-.85C201.63,238.43,201.62,238.4,201.62,238.37Z" transform="translate(-84.47 -213)"/><path class="cls-7" d="M187.7,251.3c-.64.12-1.32.24-2,.34h0C186.39,251.54,187.06,251.42,187.7,251.3Z" transform="translate(-84.47 -213)"/><path class="cls-7" d="M189.83,250.81l-1.37.32,1-.23Z" transform="translate(-84.47 -213)"/><path class="cls-7" d="M196.74,248c-.26.16-.51.33-.79.49l.68-.42Z" transform="translate(-84.47 -213)"/><path class="cls-7" d="M207.31,245.19a10.13,10.13,0,0,0-4-1.6,12.23,12.23,0,0,1-3.4,5.86,10.48,10.48,0,0,1,2.18,4.78A20.19,20.19,0,0,0,207.31,245.19Z" transform="translate(-84.47 -213)"/><path class="cls-7" d="M207.38,244.89a12.79,12.79,0,0,0-.36-6.71,7.19,7.19,0,0,0-3.71-.43,13.24,13.24,0,0,1,.19,4.89A7.13,7.13,0,0,1,207.38,244.89Z" transform="translate(-84.47 -213)"/><path class="cls-7" d="M207,238.13a17.46,17.46,0,0,0-3.55-6,4.32,4.32,0,0,0-2.06.59,20.08,20.08,0,0,1,1.75,4.36A5.09,5.09,0,0,1,207,238.13Z" transform="translate(-84.47 -213)"/><path class="cls-7" d="M190.17,254.85c1.2,1,2.36,1.93,3.48,3a12.59,12.59,0,0,0-1.27-3.75C191.68,254.34,191,254.61,190.17,254.85Z" transform="translate(-84.47 -213)"/><path class="cls-7" d="M201.92,254.42a13.1,13.1,0,0,0-2.73-4.3,21.94,21.94,0,0,1-5.88,3.57,10.19,10.19,0,0,1,.78,4.54c.47.44.94.88,1.4,1.34A31.08,31.08,0,0,0,201.92,254.42Z" transform="translate(-84.47 -213)"/><path class="cls-7" d="M198.7,260.82l.52-.28,0,0Z" transform="translate(-84.47 -213)"/><path class="cls-7" d="M203.3,231.92a30.09,30.09,0,0,0-4.22-3.91l-.2-.12c-.6-.36-.79-.31-.73,0a28.22,28.22,0,0,1,3,4.22A2.78,2.78,0,0,1,203.3,231.92Z" transform="translate(-84.47 -213)"/><path class="cls-7" d="M197.54,261.34l.5-.23Z" transform="translate(-84.47 -213)"/><path class="cls-7" d="M210.13,247.73c-.11.42-.24.82-.38,1.22C209.89,248.55,210,248.15,210.13,247.73Z" transform="translate(-84.47 -213)"/><path class="cls-7" d="M202.83,258.18l-.71.56Z" transform="translate(-84.47 -213)"/><path class="cls-7" d="M210.25,240.84c.1.42.19.84.25,1.25C210.44,241.68,210.35,241.26,210.25,240.84Z" transform="translate(-84.47 -213)"/><path class="cls-7" d="M205,232.38c.39.37.77.74,1.12,1.11C205.74,233.12,205.36,232.75,205,232.38Z" transform="translate(-84.47 -213)"/><path class="cls-7" d="M210.42,246.4c-.07.41-.15.83-.26,1.23C210.27,247.23,210.35,246.81,210.42,246.4Z" transform="translate(-84.47 -213)"/><path class="cls-7" d="M206,255.18q-.34.42-.72.81Q205.64,255.6,206,255.18Z" transform="translate(-84.47 -213)"/><path class="cls-7" d="M208.53,251.61c-.2.36-.42.72-.65,1.08C208.11,252.33,208.33,252,208.53,251.61Z" transform="translate(-84.47 -213)"/><path class="cls-7" d="M203.4,231c.44.36.87.72,1.26,1.07C204.27,231.72,203.84,231.36,203.4,231Z" transform="translate(-84.47 -213)"/><path class="cls-7" d="M206.33,233.77c.34.38.68.76,1,1.14C207,234.53,206.67,234.15,206.33,233.77Z" transform="translate(-84.47 -213)"/><path class="cls-7" d="M209.81,239.4c.15.42.29.85.4,1.26C210.1,240.25,210,239.82,209.81,239.4Z" transform="translate(-84.47 -213)"/><path class="cls-7" d="M208.44,236.57c.25.41.48.81.69,1.22C208.92,237.38,208.69,237,208.44,236.57Z" transform="translate(-84.47 -213)"/><path class="cls-7" d="M210.62,243.65c0,.42,0,.84,0,1.26C210.63,244.49,210.64,244.07,210.62,243.65Z" transform="translate(-84.47 -213)"/><path class="cls-7" d="M209.22,238q.3.62.54,1.23Q209.52,238.62,209.22,238Z" transform="translate(-84.47 -213)"/><path class="cls-7" d="M207.78,252.83c-.22.34-.45.68-.7,1C207.33,253.51,207.56,253.17,207.78,252.83Z" transform="translate(-84.47 -213)"/><path class="cls-7" d="M207.48,235.16c.29.39.58.79.83,1.19C208.06,236,207.77,235.55,207.48,235.16Z" transform="translate(-84.47 -213)"/><path class="cls-7" d="M205,256.23l-.75.74Z" transform="translate(-84.47 -213)"/><path class="cls-7" d="M198.29,228.36a.69.69,0,0,1,0-.13A.69.69,0,0,0,198.29,228.36Z" transform="translate(-84.47 -213)"/><path class="cls-7" d="M201.61,229.66c.49.34,1,.68,1.4,1C202.57,230.34,202.1,230,201.61,229.66Z" transform="translate(-84.47 -213)"/><path class="cls-7" d="M210.51,242.23c.06.43.1.85.12,1.28C210.61,243.08,210.57,242.66,210.51,242.23Z" transform="translate(-84.47 -213)"/><path class="cls-7" d="M204,257.21l-.78.68Z" transform="translate(-84.47 -213)"/><path class="cls-7" d="M207,254c-.24.32-.49.64-.76.95C206.47,254.63,206.72,254.31,207,254Z" transform="translate(-84.47 -213)"/><path class="cls-7" d="M209.17,250.36c-.18.38-.37.76-.57,1.12C208.81,251.12,209,250.74,209.17,250.36Z" transform="translate(-84.47 -213)"/><path class="cls-7" d="M198.48,228.82l-.09-.19Z" transform="translate(-84.47 -213)"/><path class="cls-7" d="M209.71,249.06c-.15.4-.31.79-.48,1.18C209.4,249.85,209.56,249.46,209.71,249.06Z" transform="translate(-84.47 -213)"/><path class="cls-7" d="M199.59,228.33c.53.33,1.06.65,1.54,1C200.65,229,200.12,228.66,199.59,228.33Z" transform="translate(-84.47 -213)"/><path class="cls-7" d="M210.59,245c0,.42-.07.85-.14,1.26C210.52,245.87,210.56,245.44,210.59,245Z" transform="translate(-84.47 -213)"/><path class="cls-7" d="M199.85,260.2l.27-.16.42-.25Z" transform="translate(-84.47 -213)"/><path class="cls-8" d="M198.62,229.13c-.05-.11-.1-.21-.14-.31C198.52,228.92,198.57,229,198.62,229.13Z" transform="translate(-84.47 -213)"/><path class="cls-8" d="M190.76,250.55l-.43.12.28-.07Z" transform="translate(-84.47 -213)"/><path class="cls-8" d="M200.4,233.18l0,.08,0,0Z" transform="translate(-84.47 -213)"/><path class="cls-8" d="M201.58,237.93a.49.49,0,0,1,0,.12V238S201.58,238,201.58,237.93Z" transform="translate(-84.47 -213)"/><path class="cls-8" d="M201.66,239.31h0Z" transform="translate(-84.47 -213)"/><path class="cls-8" d="M198.35,246.73v0Z" transform="translate(-84.47 -213)"/><path class="cls-8" d="M200.76,243.53c-.06.11-.11.23-.18.35l.1-.17Z" transform="translate(-84.47 -213)"/><path class="cls-8" d="M201.18,242.44a1.42,1.42,0,0,0-.05.16l0-.09A.64.64,0,0,0,201.18,242.44Z" transform="translate(-84.47 -213)"/><path class="cls-8" d="M198.39,228.63l-.1-.27Z" transform="translate(-84.47 -213)"/><path class="cls-8" d="M200,244.87c.09-.12.16-.25.24-.38C200.15,244.62,200.08,244.75,200,244.87Z" transform="translate(-84.47 -213)"/><path class="cls-8" d="M192,250.17c.26-.08.51-.17.75-.26C192.5,250,192.25,250.09,192,250.17Z" transform="translate(-84.47 -213)"/><path class="cls-8" d="M193.8,249.49l.66-.28Z" transform="translate(-84.47 -213)"/><path class="cls-8" d="M187.7,251.3l.76-.17Z" transform="translate(-84.47 -213)"/><path class="cls-8" d="M201.5,237.24c0-.13-.05-.26-.07-.39C201.45,237,201.48,237.11,201.5,237.24Z" transform="translate(-84.47 -213)"/><path class="cls-8" d="M199.25,245.83c.09-.1.16-.21.25-.31C199.41,245.62,199.34,245.73,199.25,245.83Z" transform="translate(-84.47 -213)"/><path class="cls-8" d="M201.31,236.23l-.09-.41Z" transform="translate(-84.47 -213)"/><path class="cls-8" d="M201.06,235.23c0-.13-.07-.26-.11-.39C201,235,201,235.1,201.06,235.23Z" transform="translate(-84.47 -213)"/><path class="cls-8" d="M195.4,248.74l.55-.3Z" transform="translate(-84.47 -213)"/><path class="cls-8" d="M199.3,230.58a2.92,2.92,0,0,1-.14-.31A2.92,2.92,0,0,0,199.3,230.58Z" transform="translate(-84.47 -213)"/><path class="cls-8" d="M199.64,231.34c0-.09-.07-.17-.11-.25C199.57,231.17,199.6,231.25,199.64,231.34Z" transform="translate(-84.47 -213)"/><path class="cls-8" d="M198.15,227.93a1.88,1.88,0,0,0,.09.3q-.06-.18-.09-.3Z" transform="translate(-84.47 -213)"/><path class="cls-8" d="M199,229.85l-.22-.46Z" transform="translate(-84.47 -213)"/><path class="cls-8" d="M201.56,240.69c0-.11,0-.22.05-.33C201.6,240.47,201.58,240.58,201.56,240.69Z" transform="translate(-84.47 -213)"/><path class="cls-8" d="M200.77,234.25l-.12-.36Z" transform="translate(-84.47 -213)"/><path class="cls-8" d="M201.36,241.8c0-.13.07-.26.09-.39C201.43,241.54,201.39,241.67,201.36,241.8Z" transform="translate(-84.47 -213)"/><path class="cls-8" d="M200,232.15l0,0Z" transform="translate(-84.47 -213)"/><path class="cls-7" d="M190.17,254.85c.78-.24,1.51-.51,2.21-.79a8.13,8.13,0,0,0-2.93-3.15h0l-1,.23-.76.17c-.64.12-1.31.24-2,.34Q188,253.16,190.17,254.85Z" transform="translate(-84.47 -213)"/><path class="cls-8" d="M190.17,254.85c.78-.24,1.51-.51,2.21-.79a8.13,8.13,0,0,0-2.93-3.15h0l-1,.23-.76.17c-.64.12-1.31.24-2,.34Q188,253.16,190.17,254.85Z" transform="translate(-84.47 -213)"/><path class="cls-7" d="M201.18,242.46a8.67,8.67,0,0,1,2.32.18,13.24,13.24,0,0,0-.19-4.89,3.81,3.81,0,0,0-1.68.74v0c0,.29,0,.57,0,.85h0c0,.35,0,.7,0,1,0,.11,0,.22-.05.33s-.06.48-.11.72-.06.26-.09.39-.11.43-.18.64a.64.64,0,0,1,0,.07S201.18,242.48,201.18,242.46Z" transform="translate(-84.47 -213)"/><path class="cls-8" d="M201.18,242.46a8.67,8.67,0,0,1,2.32.18,13.24,13.24,0,0,0-.19-4.89,3.81,3.81,0,0,0-1.68.74v0c0,.29,0,.57,0,.85h0c0,.35,0,.7,0,1,0,.11,0,.22-.05.33s-.06.48-.11.72-.06.26-.09.39-.11.43-.18.64a.64.64,0,0,1,0,.07S201.18,242.48,201.18,242.46Z" transform="translate(-84.47 -213)"/><path class="cls-7" d="M201.56,237.7a4,4,0,0,1,1.59-.66,20.08,20.08,0,0,0-1.75-4.36,4.06,4.06,0,0,0-.91.74,1.8,1.8,0,0,1-.08-.21l0,0,.22.63.12.36.18.59c0,.13.08.26.11.39s.11.39.16.59l.09.41.12.62c0,.13,0,.26.07.39s.06.46.08.69c0,0,0,0,0,.07Z" transform="translate(-84.47 -213)"/><path class="cls-8" d="M201.56,237.7a4,4,0,0,1,1.59-.66,20.08,20.08,0,0,0-1.75-4.36,4.06,4.06,0,0,0-.91.74,1.8,1.8,0,0,1-.08-.21l0,0,.22.63.12.36.18.59c0,.13.08.26.11.39s.11.39.16.59l.09.41.12.62c0,.13,0,.26.07.39s.06.46.08.69c0,0,0,0,0,.07Z" transform="translate(-84.47 -213)"/><path class="cls-7" d="M200.24,232.77a4.43,4.43,0,0,1,.87-.62,28.22,28.22,0,0,0-3-4.22q0,.12.09.3a.69.69,0,0,0,0,.13l.1.27.09.19c0,.1.09.2.14.31l.12.26.22.46c.06.14.13.28.2.42a2.92,2.92,0,0,0,.14.31l.23.51c0,.08.07.16.11.25.11.24.22.5.33.77l0,0c.09.21.18.44.27.66Z" transform="translate(-84.47 -213)"/><path class="cls-8" d="M200.24,232.77a4.43,4.43,0,0,1,.87-.62,28.22,28.22,0,0,0-3-4.22q0,.12.09.3a.69.69,0,0,0,0,.13l.1.27.09.19c0,.1.09.2.14.31l.12.26.22.46c.06.14.13.28.2.42a2.92,2.92,0,0,0,.14.31l.23.51c0,.08.07.16.11.25.11.24.22.5.33.77l0,0c.09.21.18.44.27.66Z" transform="translate(-84.47 -213)"/><path class="cls-7" d="M197.51,247.42a8.85,8.85,0,0,1,2.41,2,12.23,12.23,0,0,0,3.4-5.86,6.26,6.26,0,0,0-2.64.13h0l-.1.17a6.34,6.34,0,0,1-.35.61c-.08.13-.15.26-.24.38s-.32.43-.49.65-.16.21-.25.31a9.55,9.55,0,0,1-.9.9v0c-.27.24-.57.47-.87.7Z" transform="translate(-84.47 -213)"/><path class="cls-8" d="M197.51,247.42a8.85,8.85,0,0,1,2.41,2,12.23,12.23,0,0,0,3.4-5.86,6.26,6.26,0,0,0-2.64.13h0l-.1.17a6.34,6.34,0,0,1-.35.61c-.08.13-.15.26-.24.38s-.32.43-.49.65-.16.21-.25.31a9.55,9.55,0,0,1-.9.9v0c-.27.24-.57.47-.87.7Z" transform="translate(-84.47 -213)"/><path class="cls-7" d="M191,250.49a9.15,9.15,0,0,1,2.31,3.2,21.94,21.94,0,0,0,5.88-3.57,8.68,8.68,0,0,0-2.83-1.92l.27-.18-.68.42-.55.3-.94.47-.66.28c-.34.15-.69.29-1.06.42s-.49.18-.75.26-.8.26-1.23.38l-.15,0Z" transform="translate(-84.47 -213)"/><path class="cls-8" d="M191,250.49a9.15,9.15,0,0,1,2.31,3.2,21.94,21.94,0,0,0,5.88-3.57,8.68,8.68,0,0,0-2.83-1.92l.27-.18-.68.42-.55.3-.94.47-.66.28c-.34.15-.69.29-1.06.42s-.49.18-.75.26-.8.26-1.23.38l-.15,0Z" transform="translate(-84.47 -213)"/><path class="cls-9" d="M206.09,233.49c.09.09.16.19.24.28C206.25,233.68,206.18,233.58,206.09,233.49Z" transform="translate(-84.47 -213)"/><path class="cls-9" d="M204.66,232.07l.31.31Z" transform="translate(-84.47 -213)"/><path class="cls-9" d="M210.63,243.51s0,.09,0,.14S210.63,243.55,210.63,243.51Z" transform="translate(-84.47 -213)"/><path class="cls-9" d="M203,230.68l.39.32Z" transform="translate(-84.47 -213)"/><path class="cls-9" d="M209.13,237.79l.09.21Z" transform="translate(-84.47 -213)"/><path class="cls-9" d="M209.76,239.23c0,.06,0,.12.05.17S209.78,239.29,209.76,239.23Z" transform="translate(-84.47 -213)"/><path class="cls-9" d="M204.26,257l-.27.24Z" transform="translate(-84.47 -213)"/><path class="cls-9" d="M207.08,253.84,207,254Z" transform="translate(-84.47 -213)"/><path class="cls-9" d="M201.13,229.31l.48.35Z" transform="translate(-84.47 -213)"/><path class="cls-9" d="M199.06,228h0l.51.32Z" transform="translate(-84.47 -213)"/><path class="cls-9" d="M210.21,240.66c0,.06,0,.12,0,.18S210.23,240.72,210.21,240.66Z" transform="translate(-84.47 -213)"/><path class="cls-9" d="M201,259.51c-.14.1-.3.18-.45.28C200.69,259.69,200.85,259.61,201,259.51Z" transform="translate(-84.47 -213)"/><path class="cls-9" d="M202.12,258.74c-.14.09-.28.18-.41.28C201.84,258.92,202,258.83,202.12,258.74Z" transform="translate(-84.47 -213)"/><path class="cls-9" d="M205.26,256l-.25.24Z" transform="translate(-84.47 -213)"/><path class="cls-9" d="M203.21,257.89l-.38.29Z" transform="translate(-84.47 -213)"/><path class="cls-9" d="M208.31,236.35a2.53,2.53,0,0,1,.13.22A2.53,2.53,0,0,0,208.31,236.35Z" transform="translate(-84.47 -213)"/><path class="cls-9" d="M206.2,254.94l-.22.24Z" transform="translate(-84.47 -213)"/><path class="cls-9" d="M207.3,234.91c.07.08.12.17.18.25C207.42,235.08,207.37,235,207.3,234.91Z" transform="translate(-84.47 -213)"/><path class="cls-9" d="M210.5,242.09a.66.66,0,0,0,0,.14A.66.66,0,0,1,210.5,242.09Z" transform="translate(-84.47 -213)"/><path class="cls-9" d="M210.16,247.63l0,.1Z" transform="translate(-84.47 -213)"/><path class="cls-9" d="M209.75,249s0,.07,0,.11S209.74,249,209.75,249Z" transform="translate(-84.47 -213)"/><path class="cls-9" d="M207.88,252.69l-.1.14Z" transform="translate(-84.47 -213)"/><path class="cls-9" d="M198,261.11l.66-.29Z" transform="translate(-84.47 -213)"/><path class="cls-9" d="M208.6,251.48c0,.05,0,.08-.07.13S208.58,251.53,208.6,251.48Z" transform="translate(-84.47 -213)"/><path class="cls-9" d="M209.23,250.24l-.06.12Z" transform="translate(-84.47 -213)"/><path class="cls-9" d="M197.27,261.44h0l.27-.1Z" transform="translate(-84.47 -213)"/><path class="cls-9" d="M210.61,244.91s0,.07,0,.11S210.6,244.94,210.61,244.91Z" transform="translate(-84.47 -213)"/><path class="cls-9" d="M210.45,246.28l0,.12Z" transform="translate(-84.47 -213)"/><path class="cls-4" d="M199.85,260.2c-.19.12-.39.22-.59.32C199.46,260.42,199.66,260.32,199.85,260.2Z" transform="translate(-84.47 -213)"/><path class="cls-9" d="M199.85,260.2c-.19.12-.39.22-.59.32C199.46,260.42,199.66,260.32,199.85,260.2Z" transform="translate(-84.47 -213)"/><path class="cls-7" d="M203.3,231.92a3.68,3.68,0,0,1,.49.18h-.33a17.46,17.46,0,0,1,3.55,6l.18.11-.17-.06a12.79,12.79,0,0,1,.36,6.71,8.08,8.08,0,0,1,.67.83s-.28-.23-.74-.53a20.19,20.19,0,0,1-5.21,9,12.32,12.32,0,0,1,.22,1.31s-.13-.45-.4-1.12a31.08,31.08,0,0,1-6.43,5.15c.61.61,1.2,1.23,1.78,1.87l.27-.1.5-.23.66-.29.56-.3c.2-.1.4-.2.59-.32l.69-.41c.15-.1.31-.18.45-.28l.72-.49c.13-.1.27-.19.41-.28l.71-.56.38-.29.78-.68.27-.24.75-.74.25-.24q.38-.39.72-.81l.22-.24c.27-.31.52-.63.76-.95l.12-.15c.25-.33.48-.67.7-1l.1-.14c.23-.36.45-.72.65-1.08,0-.05.05-.08.07-.13.2-.36.39-.74.57-1.12l.06-.12c.17-.39.33-.78.48-1.18,0,0,0-.07,0-.11.14-.4.27-.8.38-1.22l0-.1c.11-.4.19-.82.26-1.23l0-.12c.07-.41.11-.84.14-1.26,0,0,0-.08,0-.11,0-.42,0-.84,0-1.26,0-.05,0-.1,0-.14,0-.43-.06-.85-.12-1.28a.66.66,0,0,1,0-.14c-.06-.41-.15-.83-.25-1.25,0-.06,0-.12,0-.18-.11-.41-.25-.84-.4-1.26,0-.05,0-.11-.05-.17q-.24-.61-.54-1.23l-.09-.21c-.21-.41-.44-.81-.69-1.22a2.53,2.53,0,0,0-.13-.22c-.25-.4-.54-.8-.83-1.19-.06-.08-.11-.17-.18-.25-.29-.38-.63-.76-1-1.14-.08-.09-.15-.19-.24-.28-.35-.37-.73-.74-1.12-1.11l-.31-.31c-.39-.35-.82-.71-1.26-1.07l-.39-.32c-.44-.34-.91-.68-1.4-1l-.48-.35c-.48-.33-1-.65-1.54-1l-.51-.32A30.09,30.09,0,0,1,203.3,231.92Z" transform="translate(-84.47 -213)"/><path class="cls-9" d="M203.3,231.92a3.68,3.68,0,0,1,.49.18h-.33a17.46,17.46,0,0,1,3.55,6l.18.11-.17-.06a12.79,12.79,0,0,1,.36,6.71,8.08,8.08,0,0,1,.67.83s-.28-.23-.74-.53a20.19,20.19,0,0,1-5.21,9,12.32,12.32,0,0,1,.22,1.31s-.13-.45-.4-1.12a31.08,31.08,0,0,1-6.43,5.15c.61.61,1.2,1.23,1.78,1.87l.27-.1.5-.23.66-.29.56-.3c.2-.1.4-.2.59-.32l.69-.41c.15-.1.31-.18.45-.28l.72-.49c.13-.1.27-.19.41-.28l.71-.56.38-.29.78-.68.27-.24.75-.74.25-.24q.38-.39.72-.81l.22-.24c.27-.31.52-.63.76-.95l.12-.15c.25-.33.48-.67.7-1l.1-.14c.23-.36.45-.72.65-1.08,0-.05.05-.08.07-.13.2-.36.39-.74.57-1.12l.06-.12c.17-.39.33-.78.48-1.18,0,0,0-.07,0-.11.14-.4.27-.8.38-1.22l0-.1c.11-.4.19-.82.26-1.23l0-.12c.07-.41.11-.84.14-1.26,0,0,0-.08,0-.11,0-.42,0-.84,0-1.26,0-.05,0-.1,0-.14,0-.43-.06-.85-.12-1.28a.66.66,0,0,1,0-.14c-.06-.41-.15-.83-.25-1.25,0-.06,0-.12,0-.18-.11-.41-.25-.84-.4-1.26,0-.05,0-.11-.05-.17q-.24-.61-.54-1.23l-.09-.21c-.21-.41-.44-.81-.69-1.22a2.53,2.53,0,0,0-.13-.22c-.25-.4-.54-.8-.83-1.19-.06-.08-.11-.17-.18-.25-.29-.38-.63-.76-1-1.14-.08-.09-.15-.19-.24-.28-.35-.37-.73-.74-1.12-1.11l-.31-.31c-.39-.35-.82-.71-1.26-1.07l-.39-.32c-.44-.34-.91-.68-1.4-1l-.48-.35c-.48-.33-1-.65-1.54-1l-.51-.32A30.09,30.09,0,0,1,203.3,231.92Z" transform="translate(-84.47 -213)"/><path class="cls-9" d="M200.29,232.89c0,.1.07.19.11.29a1.34,1.34,0,0,1-.07-.18S200.3,232.93,200.29,232.89Z" transform="translate(-84.47 -213)"/><path class="cls-9" d="M201,242.85l.09-.25c-.11.31-.23.62-.37.93a.14.14,0,0,1,0-.06C200.87,243.27,201,243.06,201,242.85Z" transform="translate(-84.47 -213)"/><path class="cls-9" d="M197.24,247.62l.14-.11c-.2.15-.42.29-.64.44l.1-.07C197,247.79,197.12,247.71,197.24,247.62Z" transform="translate(-84.47 -213)"/><path class="cls-9" d="M201.59,238.05l0,.32v-.09Z" transform="translate(-84.47 -213)"/><path class="cls-9" d="M190.33,250.67l-.5.14.14,0Z" transform="translate(-84.47 -213)"/><path class="cls-7" d="M197.47,247.45l-.09.06-.14.11Z" transform="translate(-84.47 -213)"/><path class="cls-9" d="M197.47,247.45l-.09.06-.14.11Z" transform="translate(-84.47 -213)"/><path class="cls-7" d="M203.3,231.92a2.78,2.78,0,0,0-2.19.23c.1.18.2.35.29.53a4.32,4.32,0,0,1,2.06-.59Z" transform="translate(-84.47 -213)"/><path class="cls-9" d="M203.3,231.92a2.78,2.78,0,0,0-2.19.23c.1.18.2.35.29.53a4.32,4.32,0,0,1,2.06-.59Z" transform="translate(-84.47 -213)"/><path class="cls-7" d="M192.38,254.06a12.59,12.59,0,0,1,1.27,3.75l.44.42a10.19,10.19,0,0,0-.78-4.54C193,253.82,192.69,253.94,192.38,254.06Z" transform="translate(-84.47 -213)"/><path class="cls-9" d="M192.38,254.06a12.59,12.59,0,0,1,1.27,3.75l.44.42a10.19,10.19,0,0,0-.78-4.54C193,253.82,192.69,253.94,192.38,254.06Z" transform="translate(-84.47 -213)"/><path class="cls-7" d="M196.84,247.88l-.1.07-.11.07Z" transform="translate(-84.47 -213)"/><path class="cls-9" d="M196.84,247.88l-.1.07-.11.07Z" transform="translate(-84.47 -213)"/><path class="cls-7" d="M190,250.78l-.14,0-.36.09Z" transform="translate(-84.47 -213)"/><path class="cls-9" d="M190,250.78l-.14,0-.36.09Z" transform="translate(-84.47 -213)"/><path class="cls-7" d="M201.62,238.28v.09s0,.06,0,.09S201.62,238.34,201.62,238.28Z" transform="translate(-84.47 -213)"/><path class="cls-9" d="M201.62,238.28v.09s0,.06,0,.09S201.62,238.34,201.62,238.28Z" transform="translate(-84.47 -213)"/><path class="cls-7" d="M200.78,243.47c.09-.2.18-.41.26-.62C201,243.06,200.87,243.27,200.78,243.47Z" transform="translate(-84.47 -213)"/><path class="cls-9" d="M200.78,243.47c.09-.2.18-.41.26-.62C201,243.06,200.87,243.27,200.78,243.47Z" transform="translate(-84.47 -213)"/><path class="cls-7" d="M207,238.18v-.05a5.09,5.09,0,0,0-3.86-1.09c.06.23.11.47.16.71A7.19,7.19,0,0,1,207,238.18Z" transform="translate(-84.47 -213)"/><path class="cls-9" d="M207,238.18v-.05a5.09,5.09,0,0,0-3.86-1.09c.06.23.11.47.16.71A7.19,7.19,0,0,1,207,238.18Z" transform="translate(-84.47 -213)"/><path class="cls-7" d="M202.1,254.23a10.48,10.48,0,0,0-2.18-4.78c-.23.23-.48.45-.73.67a13.1,13.1,0,0,1,2.73,4.3Z" transform="translate(-84.47 -213)"/><path class="cls-9" d="M202.1,254.23a10.48,10.48,0,0,0-2.18-4.78c-.23.23-.48.45-.73.67a13.1,13.1,0,0,1,2.73,4.3Z" transform="translate(-84.47 -213)"/><path class="cls-7" d="M207.38,244.89a7.13,7.13,0,0,0-3.88-2.25c0,.32-.11.63-.18,1a10.13,10.13,0,0,1,4,1.6C207.34,245.09,207.36,245,207.38,244.89Z" transform="translate(-84.47 -213)"/><path class="cls-9" d="M207.38,244.89a7.13,7.13,0,0,0-3.88-2.25c0,.32-.11.63-.18,1a10.13,10.13,0,0,1,4,1.6C207.34,245.09,207.36,245,207.38,244.89Z" transform="translate(-84.47 -213)"/><path class="cls-7" d="M200.26,232.81l0,.08s0,.07,0,.11Z" transform="translate(-84.47 -213)"/><path class="cls-9" d="M200.26,232.81l0,.08s0,.07,0,.11Z" transform="translate(-84.47 -213)"/><path class="cls-8" d="M190.61,250.6l-.28.07-.36.11Z" transform="translate(-84.47 -213)"/><path class="cls-9" d="M190.61,250.6l-.28.07-.36.11Z" transform="translate(-84.47 -213)"/><path class="cls-8" d="M201.59,238v.05l0,.23Z" transform="translate(-84.47 -213)"/><path class="cls-9" d="M201.59,238v.05l0,.23Z" transform="translate(-84.47 -213)"/><path class="cls-8" d="M200.78,243.47a.14.14,0,0,0,0,.06l-.08.18C200.72,243.63,200.74,243.55,200.78,243.47Z" transform="translate(-84.47 -213)"/><path class="cls-9" d="M200.78,243.47a.14.14,0,0,0,0,.06l-.08.18C200.72,243.63,200.74,243.55,200.78,243.47Z" transform="translate(-84.47 -213)"/><path class="cls-8" d="M201.16,242.51l0,.09-.09.25C201.08,242.74,201.13,242.62,201.16,242.51Z" transform="translate(-84.47 -213)"/><path class="cls-9" d="M201.16,242.51l0,.09-.09.25C201.08,242.74,201.13,242.62,201.16,242.51Z" transform="translate(-84.47 -213)"/><path class="cls-8" d="M196.84,247.88l.4-.26C197.12,247.71,197,247.79,196.84,247.88Z" transform="translate(-84.47 -213)"/><path class="cls-9" d="M196.84,247.88l.4-.26C197.12,247.71,197,247.79,196.84,247.88Z" transform="translate(-84.47 -213)"/><path class="cls-8" d="M200.33,233a1.34,1.34,0,0,0,.07.18v0Z" transform="translate(-84.47 -213)"/><path class="cls-9" d="M200.33,233a1.34,1.34,0,0,0,.07.18v0Z" transform="translate(-84.47 -213)"/><path class="cls-7" d="M191,250.49l-.39.11-.64.18-.5.12h0a8.13,8.13,0,0,1,2.93,3.15c.31-.12.63-.24.93-.37A9.15,9.15,0,0,0,191,250.49Z" transform="translate(-84.47 -213)"/><path class="cls-8" d="M191,250.49l-.39.11-.64.18-.5.12h0a8.13,8.13,0,0,1,2.93,3.15c.31-.12.63-.24.93-.37A9.15,9.15,0,0,0,191,250.49Z" transform="translate(-84.47 -213)"/><path class="cls-9" d="M191,250.49l-.39.11-.64.18-.5.12h0a8.13,8.13,0,0,1,2.93,3.15c.31-.12.63-.24.93-.37A9.15,9.15,0,0,0,191,250.49Z" transform="translate(-84.47 -213)"/><path class="cls-7" d="M201.56,237.7l0,.3,0,.28c0,.06,0,.12,0,.18v0a3.81,3.81,0,0,1,1.68-.74c-.05-.24-.1-.48-.16-.71A4,4,0,0,0,201.56,237.7Z" transform="translate(-84.47 -213)"/><path class="cls-8" d="M201.56,237.7l0,.3,0,.28c0,.06,0,.12,0,.18v0a3.81,3.81,0,0,1,1.68-.74c-.05-.24-.1-.48-.16-.71A4,4,0,0,0,201.56,237.7Z" transform="translate(-84.47 -213)"/><path class="cls-9" d="M201.56,237.7l0,.3,0,.28c0,.06,0,.12,0,.18v0a3.81,3.81,0,0,1,1.68-.74c-.05-.24-.1-.48-.16-.71A4,4,0,0,0,201.56,237.7Z" transform="translate(-84.47 -213)"/><path class="cls-7" d="M200.24,232.77l0,0,.07.19.08.21a1.8,1.8,0,0,0,.08.21,4.06,4.06,0,0,1,.91-.74c-.09-.18-.19-.35-.29-.53A4.43,4.43,0,0,0,200.24,232.77Z" transform="translate(-84.47 -213)"/><path class="cls-8" d="M200.24,232.77l0,0,.07.19.08.21a1.8,1.8,0,0,0,.08.21,4.06,4.06,0,0,1,.91-.74c-.09-.18-.19-.35-.29-.53A4.43,4.43,0,0,0,200.24,232.77Z" transform="translate(-84.47 -213)"/><path class="cls-9" d="M200.24,232.77l0,0,.07.19.08.21a1.8,1.8,0,0,0,.08.21,4.06,4.06,0,0,1,.91-.74c-.09-.18-.19-.35-.29-.53A4.43,4.43,0,0,0,200.24,232.77Z" transform="translate(-84.47 -213)"/><path class="cls-7" d="M199.92,249.45a8.85,8.85,0,0,0-2.41-2l0,0-.23.17-.4.26-.21.14-.27.18a8.68,8.68,0,0,1,2.83,1.92C199.44,249.9,199.69,249.68,199.92,249.45Z" transform="translate(-84.47 -213)"/><path class="cls-8" d="M199.92,249.45a8.85,8.85,0,0,0-2.41-2l0,0-.23.17-.4.26-.21.14-.27.18a8.68,8.68,0,0,1,2.83,1.92C199.44,249.9,199.69,249.68,199.92,249.45Z" transform="translate(-84.47 -213)"/><path class="cls-9" d="M199.92,249.45a8.85,8.85,0,0,0-2.41-2l0,0-.23.17-.4.26-.21.14-.27.18a8.68,8.68,0,0,1,2.83,1.92C199.44,249.9,199.69,249.68,199.92,249.45Z" transform="translate(-84.47 -213)"/><path class="cls-7" d="M201.18,242.46s0,0,0,0-.08.23-.12.34-.17.42-.26.62-.06.16-.1.24h0a6.26,6.26,0,0,1,2.64-.13c.07-.32.14-.63.18-1A8.67,8.67,0,0,0,201.18,242.46Z" transform="translate(-84.47 -213)"/><path class="cls-8" d="M201.18,242.46s0,0,0,0-.08.23-.12.34-.17.42-.26.62-.06.16-.1.24h0a6.26,6.26,0,0,1,2.64-.13c.07-.32.14-.63.18-1A8.67,8.67,0,0,0,201.18,242.46Z" transform="translate(-84.47 -213)"/><path class="cls-9" d="M201.18,242.46s0,0,0,0-.08.23-.12.34-.17.42-.26.62-.06.16-.1.24h0a6.26,6.26,0,0,1,2.64-.13c.07-.32.14-.63.18-1A8.67,8.67,0,0,0,201.18,242.46Z" transform="translate(-84.47 -213)"/><path class="cls-7" d="M202.32,255.54a12.32,12.32,0,0,0-.22-1.31l-.18.19C202.19,255.09,202.32,255.54,202.32,255.54Z" transform="translate(-84.47 -213)"/><path class="cls-9" d="M202.32,255.54a12.32,12.32,0,0,0-.22-1.31l-.18.19C202.19,255.09,202.32,255.54,202.32,255.54Z" transform="translate(-84.47 -213)"/><path class="cls-9" d="M202.32,255.54a12.32,12.32,0,0,0-.22-1.31l-.18.19C202.19,255.09,202.32,255.54,202.32,255.54Z" transform="translate(-84.47 -213)"/><path class="cls-7" d="M207.19,238.24l-.18-.11v.05Z" transform="translate(-84.47 -213)"/><path class="cls-9" d="M207.19,238.24l-.18-.11v.05Z" transform="translate(-84.47 -213)"/><path class="cls-9" d="M207.19,238.24l-.18-.11v.05Z" transform="translate(-84.47 -213)"/><path class="cls-7" d="M208.05,245.72a8.08,8.08,0,0,0-.67-.83c0,.1,0,.2-.07.3C207.77,245.49,208.05,245.72,208.05,245.72Z" transform="translate(-84.47 -213)"/><path class="cls-9" d="M208.05,245.72a8.08,8.08,0,0,0-.67-.83c0,.1,0,.2-.07.3C207.77,245.49,208.05,245.72,208.05,245.72Z" transform="translate(-84.47 -213)"/><path class="cls-9" d="M208.05,245.72a8.08,8.08,0,0,0-.67-.83c0,.1,0,.2-.07.3C207.77,245.49,208.05,245.72,208.05,245.72Z" transform="translate(-84.47 -213)"/><path class="cls-7" d="M203.79,232.1a3.68,3.68,0,0,0-.49-.18l.16.17Z" transform="translate(-84.47 -213)"/><path class="cls-9" d="M203.79,232.1a3.68,3.68,0,0,0-.49-.18l.16.17Z" transform="translate(-84.47 -213)"/><path class="cls-9" d="M203.79,232.1a3.68,3.68,0,0,0-.49-.18l.16.17Z" transform="translate(-84.47 -213)"/><path class="cls-4" d="M99.62,267.87l-.08.07h0c-1.9,1.52-5.82,3.42-10.85-.86a8.27,8.27,0,0,1-2.59-5.38h0v-.05c0-.4-.07-.79-.08-1.17v0c0-.36,0-.69,0-1a1.8,1.8,0,0,0,0-.22,6.15,6.15,0,0,1,.12-.69c0-.07,0-.14,0-.21a3.69,3.69,0,0,1,.2-.59l0-.08a1.24,1.24,0,0,1,.3-.41s0,0,.08-.05a.46.46,0,0,1,.25-.08l.12,0a.65.65,0,0,1,.25.18l.12.12a2.86,2.86,0,0,1,.37.67c2.55,6.16,11,8.22,12.56,8.55a70.75,70.75,0,0,1,4.74-5.62l-.32-.12-.59-.22-.54-.24c-.2-.1-.41-.18-.62-.29s-.39-.21-.59-.31l-.56-.3c-.25-.14-.51-.3-.76-.46l-.38-.23-.78-.54,0,0c-4.68-2.19-10.67-4.43-14.08-3.46-2.23.63-3.06,12.93,5,16a13.32,13.32,0,0,0,6,1q1.26-2,2.66-4Z" transform="translate(-84.47 -213)"/><path class="cls-5" d="M88.68,267.08c5,4.28,8.95,2.38,10.85.86-2.66-.36-9.57-1.71-13.44-6.24A8.27,8.27,0,0,0,88.68,267.08Z" transform="translate(-84.47 -213)"/><path class="cls-5" d="M86.08,261.64c0-.4-.07-.8-.08-1.17C86,260.85,86,261.24,86.08,261.64Z" transform="translate(-84.47 -213)"/><path class="cls-5" d="M99.65,267.85h0l0,0Z" transform="translate(-84.47 -213)"/><path class="cls-5" d="M86.07,259.21a6.15,6.15,0,0,1,.12-.69A6.15,6.15,0,0,0,86.07,259.21Z" transform="translate(-84.47 -213)"/><path class="cls-5" d="M87.22,257.13a.65.65,0,0,1,.25.18A.65.65,0,0,0,87.22,257.13Z" transform="translate(-84.47 -213)"/><path class="cls-5" d="M87.59,257.43a2.86,2.86,0,0,1,.37.67A2.86,2.86,0,0,0,87.59,257.43Z" transform="translate(-84.47 -213)"/><path class="cls-5" d="M86.47,257.64a1.24,1.24,0,0,1,.3-.41A1.24,1.24,0,0,0,86.47,257.64Z" transform="translate(-84.47 -213)"/><path class="cls-5" d="M86,260.44c0-.36,0-.69,0-1C86,259.75,86,260.08,86,260.44Z" transform="translate(-84.47 -213)"/><path class="cls-5" d="M86.24,258.31a3.69,3.69,0,0,1,.2-.59A3.69,3.69,0,0,0,86.24,258.31Z" transform="translate(-84.47 -213)"/><path class="cls-5" d="M86.85,257.18a.46.46,0,0,1,.25-.08A.46.46,0,0,0,86.85,257.18Z" transform="translate(-84.47 -213)"/><path class="cls-4" d="M87.47,257.31l.12.12Z" transform="translate(-84.47 -213)"/><path class="cls-6" d="M87.47,257.31l.12.12Z" transform="translate(-84.47 -213)"/><path class="cls-4" d="M86.05,259.43a1.64,1.64,0,0,0,0-.22A1.8,1.8,0,0,1,86.05,259.43Z" transform="translate(-84.47 -213)"/><path class="cls-6" d="M86.05,259.43a1.64,1.64,0,0,0,0-.22A1.8,1.8,0,0,1,86.05,259.43Z" transform="translate(-84.47 -213)"/><path class="cls-4" d="M87.1,257.1l.12,0Z" transform="translate(-84.47 -213)"/><path class="cls-6" d="M87.1,257.1l.12,0Z" transform="translate(-84.47 -213)"/><path class="cls-4" d="M99.54,267.94l.08-.07-.09.07Z" transform="translate(-84.47 -213)"/><path class="cls-6" d="M99.54,267.94l.08-.07-.09.07Z" transform="translate(-84.47 -213)"/><path class="cls-4" d="M86,260.47v0Z" transform="translate(-84.47 -213)"/><path class="cls-6" d="M86,260.47v0Z" transform="translate(-84.47 -213)"/><path class="cls-4" d="M86.08,261.69h0s0,0,0-.06Z" transform="translate(-84.47 -213)"/><path class="cls-6" d="M86.08,261.69h0s0,0,0-.06Z" transform="translate(-84.47 -213)"/><path class="cls-4" d="M86.77,257.23s0,0,.08-.05S86.79,257.2,86.77,257.23Z" transform="translate(-84.47 -213)"/><path class="cls-6" d="M86.77,257.23s0,0,.08-.05S86.79,257.2,86.77,257.23Z" transform="translate(-84.47 -213)"/><path class="cls-4" d="M86.44,257.72l0-.08Z" transform="translate(-84.47 -213)"/><path class="cls-6" d="M86.44,257.72l0-.08Z" transform="translate(-84.47 -213)"/><path class="cls-4" d="M86.19,258.52c0-.07,0-.14,0-.21S86.21,258.45,86.19,258.52Z" transform="translate(-84.47 -213)"/><path class="cls-6" d="M86.19,258.52c0-.07,0-.14,0-.21S86.21,258.45,86.19,258.52Z" transform="translate(-84.47 -213)"/><path class="cls-5" d="M88,258.1a2.86,2.86,0,0,0-.37-.67l-.12-.12a.65.65,0,0,0-.25-.18l-.12,0a.46.46,0,0,0-.25.08s-.06,0-.08.05a1.24,1.24,0,0,0-.3.41l0,.08a3.69,3.69,0,0,0-.2.59c0,.07,0,.14,0,.21a6.15,6.15,0,0,0-.12.69,1.64,1.64,0,0,1,0,.22c0,.32,0,.65,0,1v0c0,.37,0,.77.08,1.17,0,0,0,0,0,.06,3.87,4.53,10.78,5.88,13.44,6.24l.09-.07,0,0c.29-.4.57-.8.87-1.2C98.94,266.32,90.51,264.26,88,258.1Z" transform="translate(-84.47 -213)"/><path class="cls-6" d="M88,258.1a2.86,2.86,0,0,0-.37-.67l-.12-.12a.65.65,0,0,0-.25-.18l-.12,0a.46.46,0,0,0-.25.08s-.06,0-.08.05a1.24,1.24,0,0,0-.3.41l0,.08a3.69,3.69,0,0,0-.2.59c0,.07,0,.14,0,.21a6.15,6.15,0,0,0-.12.69,1.64,1.64,0,0,1,0,.22c0,.32,0,.65,0,1v0c0,.37,0,.77.08,1.17,0,0,0,0,0,.06,3.87,4.53,10.78,5.88,13.44,6.24l.09-.07,0,0c.29-.4.57-.8.87-1.2C98.94,266.32,90.51,264.26,88,258.1Z" transform="translate(-84.47 -213)"/><path class="cls-7" d="M96.64,255.33c-.27-.27-.52-.56-.77-.85C96.12,254.77,96.37,255.06,96.64,255.33Z" transform="translate(-84.47 -213)"/><path class="cls-7" d="M94.59,234.26c.3-.38.63-.76,1-1.14C95.22,233.5,94.89,233.88,94.59,234.26Z" transform="translate(-84.47 -213)"/><path class="cls-7" d="M95.81,232.83c.34-.37.72-.73,1.11-1.1C96.53,232.1,96.15,232.46,95.81,232.83Z" transform="translate(-84.47 -213)"/><path class="cls-7" d="M97.23,231.42c.4-.36.83-.71,1.27-1.07C98.06,230.71,97.63,231.06,97.23,231.42Z" transform="translate(-84.47 -213)"/><path class="cls-7" d="M93.58,235.7c.25-.4.54-.8.84-1.19C94.12,234.9,93.83,235.3,93.58,235.7Z" transform="translate(-84.47 -213)"/><path class="cls-7" d="M92.14,238.58c.15-.41.34-.82.53-1.23C92.48,237.76,92.29,238.17,92.14,238.58Z" transform="translate(-84.47 -213)"/><path class="cls-7" d="M101.47,232.6c-.08.21-.16.43-.23.64C101.31,233,101.39,232.81,101.47,232.6Z" transform="translate(-84.47 -213)"/><path class="cls-7" d="M98.88,230c.44-.34.92-.68,1.4-1C99.8,229.35,99.32,229.69,98.88,230Z" transform="translate(-84.47 -213)"/><path class="cls-7" d="M102.59,229.93c-.07.16-.15.33-.22.51C102.44,230.26,102.52,230.09,102.59,229.93Z" transform="translate(-84.47 -213)"/><path class="cls-7" d="M102.94,229.19c-.06.14-.13.28-.2.43C102.81,229.47,102.88,229.33,102.94,229.19Z" transform="translate(-84.47 -213)"/><path class="cls-7" d="M91.68,240c.11-.42.25-.84.4-1.26C91.93,239.17,91.79,239.59,91.68,240Z" transform="translate(-84.47 -213)"/><path class="cls-7" d="M102.25,230.68q-.16.38-.33.78Q102.09,231.06,102.25,230.68Z" transform="translate(-84.47 -213)"/><path class="cls-7" d="M103.5,228l-.09.19Z" transform="translate(-84.47 -213)"/><path class="cls-7" d="M103.28,228.47c0,.09-.09.18-.13.28Z" transform="translate(-84.47 -213)"/><path class="cls-7" d="M103.66,227.58s0,.09,0,.13S103.65,227.62,103.66,227.58Z" transform="translate(-84.47 -213)"/><path class="cls-7" d="M100.76,228.66c.49-.33,1-.65,1.54-1C101.77,228,101.25,228.33,100.76,228.66Z" transform="translate(-84.47 -213)"/><path class="cls-7" d="M92.77,237.14c.2-.41.44-.81.68-1.22C93.21,236.33,93,236.73,92.77,237.14Z" transform="translate(-84.47 -213)"/><path class="cls-7" d="M94.81,253.19c-.25-.34-.49-.69-.73-1.05C94.32,252.5,94.56,252.85,94.81,253.19Z" transform="translate(-84.47 -213)"/><path class="cls-7" d="M95.69,254.29c-.26-.31-.52-.63-.76-1C95.17,253.66,95.43,254,95.69,254.29Z" transform="translate(-84.47 -213)"/><path class="cls-7" d="M94,252c-.23-.36-.44-.72-.65-1.09C93.57,251.32,93.78,251.68,94,252Z" transform="translate(-84.47 -213)"/><path class="cls-7" d="M98.69,257.24c-.29-.24-.56-.49-.84-.74C98.13,256.75,98.4,257,98.69,257.24Z" transform="translate(-84.47 -213)"/><path class="cls-7" d="M99.78,258.08l-.78-.6Z" transform="translate(-84.47 -213)"/><path class="cls-7" d="M97.64,256.32c-.27-.25-.54-.52-.8-.79C97.1,255.8,97.37,256.07,97.64,256.32Z" transform="translate(-84.47 -213)"/><path class="cls-7" d="M93.29,250.83c-.2-.37-.39-.74-.56-1.12C92.9,250.09,93.09,250.46,93.29,250.83Z" transform="translate(-84.47 -213)"/><path class="cls-7" d="M91.27,242.86c0-.43.06-.86.11-1.29C91.33,242,91.28,242.43,91.27,242.86Z" transform="translate(-84.47 -213)"/><path class="cls-7" d="M91.29,244.26c0-.42,0-.84,0-1.27C91.26,243.42,91.26,243.84,91.29,244.26Z" transform="translate(-84.47 -213)"/><path class="cls-7" d="M91.45,245.63c-.07-.42-.12-.84-.15-1.27C91.33,244.79,91.38,245.21,91.45,245.63Z" transform="translate(-84.47 -213)"/><path class="cls-7" d="M92.67,249.59c-.18-.4-.35-.81-.5-1.22C92.32,248.78,92.49,249.19,92.67,249.59Z" transform="translate(-84.47 -213)"/><path class="cls-7" d="M91.4,241.44c.06-.42.15-.84.25-1.27C91.55,240.6,91.46,241,91.4,241.44Z" transform="translate(-84.47 -213)"/><path class="cls-7" d="M91.74,247c-.11-.42-.2-.84-.28-1.27C91.54,246.14,91.63,246.56,91.74,247Z" transform="translate(-84.47 -213)"/><path class="cls-7" d="M92.15,248.3c-.15-.4-.27-.81-.38-1.22C91.88,247.49,92,247.9,92.15,248.3Z" transform="translate(-84.47 -213)"/><path class="cls-7" d="M108.1,248.84c.34.15.69.28,1.06.42C108.79,249.12,108.44,249,108.1,248.84Z" transform="translate(-84.47 -213)"/><path class="cls-7" d="M108.1,258.19q2.09-2,4.37-3.77c-1-.31-2-.65-3-1A13,13,0,0,0,108.1,258.19Z" transform="translate(-84.47 -213)"/><path class="cls-7" d="M105.94,247.79c-.28-.16-.53-.33-.79-.5l.11.08Z" transform="translate(-84.47 -213)"/><path class="cls-7" d="M113.44,250.48l-1.38-.32.36.09Z" transform="translate(-84.47 -213)"/><path class="cls-7" d="M108.59,253a22,22,0,0,1-5.88-3.57,13.22,13.22,0,0,0-2.74,4.3,30.71,30.71,0,0,0,6.78,5.35l.26.13.88-.87A10.57,10.57,0,0,1,108.59,253Z" transform="translate(-84.47 -213)"/><path class="cls-7" d="M98.57,242.94a10.13,10.13,0,0,0-4,1.6,20.39,20.39,0,0,0,5.21,9A10.59,10.59,0,0,1,102,248.8,12.17,12.17,0,0,1,98.57,242.94Z" transform="translate(-84.47 -213)"/><path class="cls-7" d="M98.39,242a13.24,13.24,0,0,1,.19-4.89,7.35,7.35,0,0,0-3.71.42,13,13,0,0,0-.36,6.72A7.13,7.13,0,0,1,98.39,242Z" transform="translate(-84.47 -213)"/><path class="cls-7" d="M98.75,236.39a20,20,0,0,1,1.74-4.36,4.31,4.31,0,0,0-2-.59,17.51,17.51,0,0,0-3.55,6A5.12,5.12,0,0,1,98.75,236.39Z" transform="translate(-84.47 -213)"/><path class="cls-7" d="M101.6,232.25l.3-.76c-.09.22-.18.45-.26.67A.36.36,0,0,0,101.6,232.25Z" transform="translate(-84.47 -213)"/><path class="cls-7" d="M100.23,238.63c0-.3,0-.61,0-.92a.31.31,0,0,1,0,.1C100.25,238.08,100.23,238.36,100.23,238.63Z" transform="translate(-84.47 -213)"/><path class="cls-7" d="M104.52,246.86c-.34-.25-.67-.5-1-.76.26.24.56.47.86.7Z" transform="translate(-84.47 -213)"/><path class="cls-7" d="M98.59,231.26a2.84,2.84,0,0,1,2.2.24,28.14,28.14,0,0,1,2.95-4.22c.06-.35-.13-.4-.73-.05l-.2.13A31.88,31.88,0,0,0,98.59,231.26Z" transform="translate(-84.47 -213)"/><path class="cls-7" d="M103.54,246.08a10.75,10.75,0,0,1-.89-.9A10.75,10.75,0,0,0,103.54,246.08Z" transform="translate(-84.47 -213)"/><path class="cls-7" d="M100.29,239.71a9.07,9.07,0,0,1-.06-1A9.07,9.07,0,0,0,100.29,239.71Z" transform="translate(-84.47 -213)"/><path class="cls-7" d="M106.5,248.09c.3.16.61.31.93.46C107.11,248.4,106.8,248.25,106.5,248.09Z" transform="translate(-84.47 -213)"/><path class="cls-7" d="M101.31,243.23l.35.61Z" transform="translate(-84.47 -213)"/><path class="cls-7" d="M100.33,240c0,.24.06.48.11.71C100.39,240.52,100.36,240.28,100.33,240Z" transform="translate(-84.47 -213)"/><path class="cls-7" d="M101.9,244.22c.15.22.32.43.49.64C102.22,244.65,102.05,244.44,101.9,244.22Z" transform="translate(-84.47 -213)"/><path class="cls-7" d="M100.59,235.58a6.18,6.18,0,0,0-.12.62A6.18,6.18,0,0,1,100.59,235.58Z" transform="translate(-84.47 -213)"/><path class="cls-7" d="M100.83,234.57l-.15.6Z" transform="translate(-84.47 -213)"/><path class="cls-7" d="M101.13,233.6c-.07.19-.13.39-.19.59C101,234,101.06,233.79,101.13,233.6Z" transform="translate(-84.47 -213)"/><path class="cls-7" d="M100.4,236.59c0,.23-.06.46-.09.69C100.34,237.05,100.36,236.82,100.4,236.59Z" transform="translate(-84.47 -213)"/><path class="cls-7" d="M100.54,241.15c0,.21.1.43.17.64C100.65,241.58,100.59,241.36,100.54,241.15Z" transform="translate(-84.47 -213)"/><path class="cls-7" d="M114.19,250.64c.8.16,1.63.31,2.52.44C115.82,251,115,250.8,114.19,250.64Z" transform="translate(-84.47 -213)"/><path class="cls-7" d="M109.9,249.52l1.23.38Z" transform="translate(-84.47 -213)"/><path class="cls-7" d="M104.35,260.69l-.54-.24Z" transform="translate(-84.47 -213)"/><path class="cls-7" d="M100.9,258.86l-.78-.54Z" transform="translate(-84.47 -213)"/><path class="cls-7" d="M102,259.55c-.25-.14-.51-.3-.76-.46C101.53,259.25,101.79,259.41,102,259.55Z" transform="translate(-84.47 -213)"/><path class="cls-7" d="M103.19,260.16c-.2-.09-.39-.21-.59-.31C102.8,260,103,260.07,103.19,260.16Z" transform="translate(-84.47 -213)"/><path class="cls-7" d="M105.26,261h0l-.32-.12Z" transform="translate(-84.47 -213)"/><path class="cls-8" d="M103.41,228.17c0,.1-.08.2-.13.3C103.33,228.37,103.37,228.27,103.41,228.17Z" transform="translate(-84.47 -213)"/><path class="cls-8" d="M102.74,229.62l-.15.31Z" transform="translate(-84.47 -213)"/><path class="cls-8" d="M103.15,228.75l-.21.44Z" transform="translate(-84.47 -213)"/><path class="cls-8" d="M102.37,230.44l-.12.24Z" transform="translate(-84.47 -213)"/><path class="cls-8" d="M103.74,227.28h0a1.7,1.7,0,0,1-.08.3A1.7,1.7,0,0,0,103.74,227.28Z" transform="translate(-84.47 -213)"/><path class="cls-8" d="M103.56,246.1l0,0Z" transform="translate(-84.47 -213)"/><path class="cls-8" d="M101.31,243.23c-.06-.12-.12-.24-.17-.36,0,.06,0,.13.07.19Z" transform="translate(-84.47 -213)"/><path class="cls-8" d="M101.92,231.46l0,0Z" transform="translate(-84.47 -213)"/><path class="cls-8" d="M111.58,250l-.45-.13.16,0Z" transform="translate(-84.47 -213)"/><path class="cls-8" d="M103.61,227.71l-.11.27Z" transform="translate(-84.47 -213)"/><path class="cls-8" d="M101.24,233.24c0,.12-.08.24-.11.36C101.16,233.48,101.2,233.36,101.24,233.24Z" transform="translate(-84.47 -213)"/><path class="cls-8" d="M107.43,248.55l.67.29Z" transform="translate(-84.47 -213)"/><path class="cls-8" d="M109.16,249.26l.74.26Z" transform="translate(-84.47 -213)"/><path class="cls-8" d="M105.94,247.79l.56.3Z" transform="translate(-84.47 -213)"/><path class="cls-8" d="M117,251.18a1.11,1.11,0,0,0-.29-.1.9.9,0,0,1,.27.11Z" transform="translate(-84.47 -213)"/><path class="cls-8" d="M113.44,250.48l.75.16Z" transform="translate(-84.47 -213)"/><path class="cls-8" d="M101.66,243.84l.24.38Z" transform="translate(-84.47 -213)"/><path class="cls-8" d="M100.44,240.75c0,.14.06.27.1.4C100.5,241,100.47,240.89,100.44,240.75Z" transform="translate(-84.47 -213)"/><path class="cls-8" d="M100.94,234.19l-.11.38Z" transform="translate(-84.47 -213)"/><path class="cls-8" d="M100.77,242l-.06-.16a.64.64,0,0,1,0,.07Z" transform="translate(-84.47 -213)"/><path class="cls-8" d="M100.68,235.17l-.09.41Z" transform="translate(-84.47 -213)"/><path class="cls-8" d="M100.47,236.2c0,.13,0,.26-.07.39C100.42,236.46,100.44,236.33,100.47,236.2Z" transform="translate(-84.47 -213)"/><path class="cls-8" d="M100.29,239.71c0,.11,0,.22,0,.33C100.32,239.93,100.3,239.82,100.29,239.71Z" transform="translate(-84.47 -213)"/><path class="cls-8" d="M102.39,244.86l.26.32Z" transform="translate(-84.47 -213)"/><path class="cls-8" d="M101.47,232.6l0-.08v0Z" transform="translate(-84.47 -213)"/><path class="cls-8" d="M100.3,237.4s0-.08,0-.12v.12Z" transform="translate(-84.47 -213)"/><path class="cls-8" d="M100.23,238.67v0Z" transform="translate(-84.47 -213)"/><path class="cls-7" d="M100.26,237.84a3.72,3.72,0,0,0-1.68-.74,13.24,13.24,0,0,0-.19,4.89,8.67,8.67,0,0,1,2.32-.18s0,0,0,.05a.64.64,0,0,0,0-.07c-.07-.21-.12-.43-.17-.64s-.07-.26-.1-.4-.08-.47-.11-.71,0-.22,0-.33a9.07,9.07,0,0,1-.06-1v0c0-.27,0-.55,0-.82Z" transform="translate(-84.47 -213)"/><path class="cls-8" d="M100.26,237.84a3.72,3.72,0,0,0-1.68-.74,13.24,13.24,0,0,0-.19,4.89,8.67,8.67,0,0,1,2.32-.18s0,0,0,.05a.64.64,0,0,0,0-.07c-.07-.21-.12-.43-.17-.64s-.07-.26-.1-.4-.08-.47-.11-.71,0-.22,0-.33a9.07,9.07,0,0,1-.06-1v0c0-.27,0-.55,0-.82Z" transform="translate(-84.47 -213)"/><path class="cls-7" d="M101.22,243.06a6.47,6.47,0,0,0-2.65-.12A12.17,12.17,0,0,0,102,248.8a9,9,0,0,1,2.4-2l0,0c-.3-.23-.6-.46-.86-.7l0,0a10.75,10.75,0,0,1-.89-.9l-.26-.32c-.17-.21-.34-.42-.49-.64l-.24-.38-.35-.61-.1-.17Z" transform="translate(-84.47 -213)"/><path class="cls-8" d="M101.22,243.06a6.47,6.47,0,0,0-2.65-.12A12.17,12.17,0,0,0,102,248.8a9,9,0,0,1,2.4-2l0,0c-.3-.23-.6-.46-.86-.7l0,0a10.75,10.75,0,0,1-.89-.9l-.26-.32c-.17-.21-.34-.42-.49-.64l-.24-.38-.35-.61-.1-.17Z" transform="translate(-84.47 -213)"/><path class="cls-7" d="M112.44,250.26a8.11,8.11,0,0,0-2.92,3.15c.91.36,1.9.7,3,1q2.18-1.71,4.51-3.23a.9.9,0,0,0-.27-.11c-.89-.13-1.72-.28-2.52-.44l-.75-.16-1-.23Z" transform="translate(-84.47 -213)"/><path class="cls-8" d="M112.44,250.26a8.11,8.11,0,0,0-2.92,3.15c.91.36,1.9.7,3,1q2.18-1.71,4.51-3.23a.9.9,0,0,0-.27-.11c-.89-.13-1.72-.28-2.52-.44l-.75-.16-1-.23Z" transform="translate(-84.47 -213)"/><path class="cls-7" d="M105.53,247.55a8.49,8.49,0,0,0-2.82,1.92,22,22,0,0,0,5.88,3.57,9,9,0,0,1,2.3-3.2l.4.11-.16,0-1.23-.38-.74-.26c-.37-.14-.72-.27-1.06-.42l-.67-.29c-.32-.15-.63-.3-.93-.46l-.56-.3-.68-.42Z" transform="translate(-84.47 -213)"/><path class="cls-8" d="M105.53,247.55a8.49,8.49,0,0,0-2.82,1.92,22,22,0,0,0,5.88,3.57,9,9,0,0,1,2.3-3.2l.4.11-.16,0-1.23-.38-.74-.26c-.37-.14-.72-.27-1.06-.42l-.67-.29c-.32-.15-.63-.3-.93-.46l-.56-.3-.68-.42Z" transform="translate(-84.47 -213)"/><path class="cls-7" d="M101.41,232.77a3.61,3.61,0,0,0-.92-.74,20,20,0,0,0-1.74,4.36,4,4,0,0,1,1.58.66,2.83,2.83,0,0,0,0,.29v-.06c0-.23,0-.46.09-.69s0-.26.07-.39a6.18,6.18,0,0,1,.12-.62l.09-.41.15-.6.11-.38c.06-.2.12-.4.19-.59s.07-.24.11-.36.15-.43.23-.64l0,0A2,2,0,0,0,101.41,232.77Z" transform="translate(-84.47 -213)"/><path class="cls-8" d="M101.41,232.77a3.61,3.61,0,0,0-.92-.74,20,20,0,0,0-1.74,4.36,4,4,0,0,1,1.58.66,2.83,2.83,0,0,0,0,.29v-.06c0-.23,0-.46.09-.69s0-.26.07-.39a6.18,6.18,0,0,1,.12-.62l.09-.41.15-.6.11-.38c.06-.2.12-.4.19-.59s.07-.24.11-.36.15-.43.23-.64l0,0A2,2,0,0,0,101.41,232.77Z" transform="translate(-84.47 -213)"/><path class="cls-7" d="M101.65,232.12v0c.08-.22.17-.45.26-.67l0,0q.17-.41.33-.78l.12-.24c.07-.18.15-.35.22-.51l.15-.31c.07-.15.14-.29.2-.43l.21-.44c0-.1.09-.19.13-.28s.09-.2.13-.3l.09-.19.11-.27s0-.09,0-.13a1.7,1.7,0,0,0,.08-.3,28.14,28.14,0,0,0-2.95,4.22A4.34,4.34,0,0,1,101.65,232.12Z" transform="translate(-84.47 -213)"/><path class="cls-8" d="M101.65,232.12v0c.08-.22.17-.45.26-.67l0,0q.17-.41.33-.78l.12-.24c.07-.18.15-.35.22-.51l.15-.31c.07-.15.14-.29.2-.43l.21-.44c0-.1.09-.19.13-.28s.09-.2.13-.3l.09-.19.11-.27s0-.09,0-.13a1.7,1.7,0,0,0,.08-.3,28.14,28.14,0,0,0-2.95,4.22A4.34,4.34,0,0,1,101.65,232.12Z" transform="translate(-84.47 -213)"/><path class="cls-9" d="M99.78,258.08c.1.08.2.14.3.21h0C100,258.22,99.88,258.16,99.78,258.08Z" transform="translate(-84.47 -213)"/><path class="cls-9" d="M92.73,249.71l-.06-.12Z" transform="translate(-84.47 -213)"/><path class="cls-9" d="M91.46,245.71s0-.05,0-.08S91.46,245.69,91.46,245.71Z" transform="translate(-84.47 -213)"/><path class="cls-9" d="M92.17,248.37s0,0,0-.07S92.17,248.35,92.17,248.37Z" transform="translate(-84.47 -213)"/><path class="cls-9" d="M91.3,244.36s0-.07,0-.1S91.3,244.33,91.3,244.36Z" transform="translate(-84.47 -213)"/><path class="cls-9" d="M91.27,243v0Z" transform="translate(-84.47 -213)"/><path class="cls-9" d="M93.36,251l-.07-.12Z" transform="translate(-84.47 -213)"/><path class="cls-9" d="M91.65,240.17l0-.16Z" transform="translate(-84.47 -213)"/><path class="cls-9" d="M91.38,241.57s0-.08,0-.13S91.39,241.53,91.38,241.57Z" transform="translate(-84.47 -213)"/><path class="cls-9" d="M97.85,256.5l-.21-.18Z" transform="translate(-84.47 -213)"/><path class="cls-9" d="M94.08,252.14A.86.86,0,0,0,94,252,.86.86,0,0,1,94.08,252.14Z" transform="translate(-84.47 -213)"/><path class="cls-9" d="M96.84,255.53l-.2-.2Z" transform="translate(-84.47 -213)"/><path class="cls-9" d="M99,257.48l-.31-.24Z" transform="translate(-84.47 -213)"/><path class="cls-9" d="M95.87,254.48l-.18-.19Z" transform="translate(-84.47 -213)"/><path class="cls-9" d="M94.93,253.33l-.12-.14Z" transform="translate(-84.47 -213)"/><path class="cls-9" d="M91.77,247.08a.38.38,0,0,1,0-.1A.29.29,0,0,0,91.77,247.08Z" transform="translate(-84.47 -213)"/><path class="cls-9" d="M96.92,231.73l.31-.31Z" transform="translate(-84.47 -213)"/><path class="cls-9" d="M98.5,230.35l.38-.32Z" transform="translate(-84.47 -213)"/><path class="cls-9" d="M102.83,227.34l-.53.34.51-.32Z" transform="translate(-84.47 -213)"/><path class="cls-9" d="M100.28,229c.17-.12.31-.24.48-.35C100.59,228.77,100.45,228.89,100.28,229Z" transform="translate(-84.47 -213)"/><path class="cls-9" d="M95.56,233.12l.25-.29Z" transform="translate(-84.47 -213)"/><path class="cls-9" d="M92.08,238.75l.06-.17Z" transform="translate(-84.47 -213)"/><path class="cls-9" d="M93.45,235.92a2.53,2.53,0,0,0,.13-.22A2.53,2.53,0,0,1,93.45,235.92Z" transform="translate(-84.47 -213)"/><path class="cls-9" d="M92.67,237.35c0-.07.06-.14.1-.21S92.71,237.28,92.67,237.35Z" transform="translate(-84.47 -213)"/><path class="cls-9" d="M94.42,234.51l.17-.25Z" transform="translate(-84.47 -213)"/><path class="cls-4" d="M103.81,260.45c-.2-.1-.41-.18-.62-.29C103.4,260.27,103.61,260.35,103.81,260.45Z" transform="translate(-84.47 -213)"/><path class="cls-9" d="M103.81,260.45c-.2-.1-.41-.18-.62-.29C103.4,260.27,103.61,260.35,103.81,260.45Z" transform="translate(-84.47 -213)"/><path class="cls-4" d="M102.6,259.85l-.56-.3Z" transform="translate(-84.47 -213)"/><path class="cls-9" d="M102.6,259.85l-.56-.3Z" transform="translate(-84.47 -213)"/><path class="cls-4" d="M100.08,258.29h0l0,0Z" transform="translate(-84.47 -213)"/><path class="cls-9" d="M100.08,258.29h0l0,0Z" transform="translate(-84.47 -213)"/><path class="cls-4" d="M104.94,260.91l-.59-.22Z" transform="translate(-84.47 -213)"/><path class="cls-9" d="M104.94,260.91l-.59-.22Z" transform="translate(-84.47 -213)"/><path class="cls-4" d="M101.28,259.09l-.38-.23Z" transform="translate(-84.47 -213)"/><path class="cls-9" d="M101.28,259.09l-.38-.23Z" transform="translate(-84.47 -213)"/><path class="cls-7" d="M100.12,258.32l.78.54.38.23c.25.16.51.32.76.46l.56.3c.2.1.39.22.59.31s.42.19.62.29l.54.24.59.22.32.12c.14-.14.27-.29.41-.44.44-.46.89-.9,1.34-1.34l-.26-.13a30.71,30.71,0,0,1-6.78-5.35c-.26.66-.4,1.12-.4,1.12.05-.47.14-.89.22-1.31a20.39,20.39,0,0,1-5.21-9c-.46.3-.74.53-.74.53a7.13,7.13,0,0,1,.67-.83,13,13,0,0,1,.36-6.72l-.17.07c.07-.05.13-.07.19-.12a17.51,17.51,0,0,1,3.55-6h-.33a3.19,3.19,0,0,1,.48-.19,31.88,31.88,0,0,1,4.22-3.9l-.51.32c-.53.33-1,.65-1.54,1-.17.11-.31.23-.48.35-.48.34-1,.68-1.4,1l-.38.32c-.44.36-.87.71-1.27,1.07l-.31.31c-.39.37-.77.73-1.11,1.1l-.25.29c-.34.38-.67.76-1,1.14l-.17.25c-.3.39-.59.79-.84,1.19a2.53,2.53,0,0,1-.13.22c-.24.41-.48.81-.68,1.22,0,.07-.06.14-.1.21-.19.41-.38.82-.53,1.23l-.06.17c-.15.42-.29.84-.4,1.26l0,.16c-.1.43-.19.85-.25,1.27,0,.05,0,.09,0,.13,0,.43-.1.86-.11,1.29V243c0,.43,0,.85,0,1.27,0,0,0,.07,0,.1,0,.43.08.85.15,1.27,0,0,0,.06,0,.08.08.43.17.85.28,1.27a.38.38,0,0,0,0,.1c.11.41.23.82.38,1.22,0,0,0,0,0,.07.15.41.32.82.5,1.22l.06.12c.17.38.36.75.56,1.12l.07.12c.21.37.42.73.65,1.09a.86.86,0,0,1,.07.1c.24.36.48.71.73,1.05l.12.14c.24.33.5.65.76,1l.18.19c.25.29.5.58.77.85l.2.2c.26.27.53.54.8.79l.21.18c.28.25.55.5.84.74l.31.24.78.6c.1.08.2.14.3.21Z" transform="translate(-84.47 -213)"/><path class="cls-9" d="M100.12,258.32l.78.54.38.23c.25.16.51.32.76.46l.56.3c.2.1.39.22.59.31s.42.19.62.29l.54.24.59.22.32.12c.14-.14.27-.29.41-.44.44-.46.89-.9,1.34-1.34l-.26-.13a30.71,30.71,0,0,1-6.78-5.35c-.26.66-.4,1.12-.4,1.12.05-.47.14-.89.22-1.31a20.39,20.39,0,0,1-5.21-9c-.46.3-.74.53-.74.53a7.13,7.13,0,0,1,.67-.83,13,13,0,0,1,.36-6.72l-.17.07c.07-.05.13-.07.19-.12a17.51,17.51,0,0,1,3.55-6h-.33a3.19,3.19,0,0,1,.48-.19,31.88,31.88,0,0,1,4.22-3.9l-.51.32c-.53.33-1,.65-1.54,1-.17.11-.31.23-.48.35-.48.34-1,.68-1.4,1l-.38.32c-.44.36-.87.71-1.27,1.07l-.31.31c-.39.37-.77.73-1.11,1.1l-.25.29c-.34.38-.67.76-1,1.14l-.17.25c-.3.39-.59.79-.84,1.19a2.53,2.53,0,0,1-.13.22c-.24.41-.48.81-.68,1.22,0,.07-.06.14-.1.21-.19.41-.38.82-.53,1.23l-.06.17c-.15.42-.29.84-.4,1.26l0,.16c-.1.43-.19.85-.25,1.27,0,.05,0,.09,0,.13,0,.43-.1.86-.11,1.29V243c0,.43,0,.85,0,1.27,0,0,0,.07,0,.1,0,.43.08.85.15,1.27,0,0,0,.06,0,.08.08.43.17.85.28,1.27a.38.38,0,0,0,0,.1c.11.41.23.82.38,1.22,0,0,0,0,0,.07.15.41.32.82.5,1.22l.06.12c.17.38.36.75.56,1.12l.07.12c.21.37.42.73.65,1.09a.86.86,0,0,1,.07.1c.24.36.48.71.73,1.05l.12.14c.24.33.5.65.76,1l.18.19c.25.29.5.58.77.85l.2.2c.26.27.53.54.8.79l.21.18c.28.25.55.5.84.74l.31.24.78.6c.1.08.2.14.3.21Z" transform="translate(-84.47 -213)"/><path class="cls-9" d="M112.06,250.16l-.48-.13.35.09Z" transform="translate(-84.47 -213)"/><path class="cls-9" d="M101.5,232.52l.1-.27,0,.1Z" transform="translate(-84.47 -213)"/><path class="cls-9" d="M105.05,247.23l.1.06c-.21-.14-.43-.28-.63-.43l.13.11Z" transform="translate(-84.47 -213)"/><path class="cls-9" d="M100.27,237.71l0-.31a1.64,1.64,0,0,0,0,.23A.22.22,0,0,0,100.27,237.71Z" transform="translate(-84.47 -213)"/><path class="cls-9" d="M101.11,242.82l0,.05a8,8,0,0,1-.37-.92l.09.25C100.93,242.41,101,242.62,101.11,242.82Z" transform="translate(-84.47 -213)"/><path class="cls-7" d="M98.39,242a7.13,7.13,0,0,0-3.88,2.25c0,.1,0,.2.07.3a10.13,10.13,0,0,1,4-1.6C98.5,242.62,98.44,242.31,98.39,242Z" transform="translate(-84.47 -213)"/><path class="cls-9" d="M98.39,242a7.13,7.13,0,0,0-3.88,2.25c0,.1,0,.2.07.3a10.13,10.13,0,0,1,4-1.6C98.5,242.62,98.44,242.31,98.39,242Z" transform="translate(-84.47 -213)"/><path class="cls-7" d="M105.26,247.37l-.11-.08-.1-.06Z" transform="translate(-84.47 -213)"/><path class="cls-9" d="M105.26,247.37l-.11-.08-.1-.06Z" transform="translate(-84.47 -213)"/><path class="cls-7" d="M102,248.8a10.59,10.59,0,0,0-2.19,4.78l.18.19a13.22,13.22,0,0,1,2.74-4.3C102.45,249.25,102.21,249,102,248.8Z" transform="translate(-84.47 -213)"/><path class="cls-9" d="M102,248.8a10.59,10.59,0,0,0-2.19,4.78l.18.19a13.22,13.22,0,0,1,2.74-4.3C102.45,249.25,102.21,249,102,248.8Z" transform="translate(-84.47 -213)"/><path class="cls-7" d="M100.26,237.81a.31.31,0,0,0,0-.1.22.22,0,0,1,0-.08C100.27,237.69,100.27,237.75,100.26,237.81Z" transform="translate(-84.47 -213)"/><path class="cls-9" d="M100.26,237.81a.31.31,0,0,0,0-.1.22.22,0,0,1,0-.08C100.27,237.69,100.27,237.75,100.26,237.81Z" transform="translate(-84.47 -213)"/><path class="cls-7" d="M112.42,250.25l-.36-.09-.13,0Z" transform="translate(-84.47 -213)"/><path class="cls-9" d="M112.42,250.25l-.36-.09-.13,0Z" transform="translate(-84.47 -213)"/><path class="cls-7" d="M108.59,253a10.57,10.57,0,0,0-.7,5.34l.21-.19a13,13,0,0,1,1.42-4.78C109.2,253.29,108.89,253.17,108.59,253Z" transform="translate(-84.47 -213)"/><path class="cls-9" d="M108.59,253a10.57,10.57,0,0,0-.7,5.34l.21-.19a13,13,0,0,1,1.42-4.78C109.2,253.29,108.89,253.17,108.59,253Z" transform="translate(-84.47 -213)"/><path class="cls-7" d="M98.58,237.1c0-.24.1-.48.17-.71a5.12,5.12,0,0,0-3.86,1.08l0,.05A7.35,7.35,0,0,1,98.58,237.1Z" transform="translate(-84.47 -213)"/><path class="cls-9" d="M98.58,237.1c0-.24.1-.48.17-.71a5.12,5.12,0,0,0-3.86,1.08l0,.05A7.35,7.35,0,0,1,98.58,237.1Z" transform="translate(-84.47 -213)"/><path class="cls-7" d="M104.65,247l-.13-.11-.1-.06Z" transform="translate(-84.47 -213)"/><path class="cls-9" d="M104.65,247l-.13-.11-.1-.06Z" transform="translate(-84.47 -213)"/><path class="cls-7" d="M101.56,232.35l0-.1a.36.36,0,0,1,0-.09C101.61,232.23,101.59,232.29,101.56,232.35Z" transform="translate(-84.47 -213)"/><path class="cls-9" d="M101.56,232.35l0-.1a.36.36,0,0,1,0-.09C101.61,232.23,101.59,232.29,101.56,232.35Z" transform="translate(-84.47 -213)"/><path class="cls-7" d="M100.86,242.2c.07.21.16.42.25.62C101,242.62,100.93,242.41,100.86,242.2Z" transform="translate(-84.47 -213)"/><path class="cls-9" d="M100.86,242.2c.07.21.16.42.25.62C101,242.62,100.93,242.41,100.86,242.2Z" transform="translate(-84.47 -213)"/><path class="cls-7" d="M100.79,231.5a2.84,2.84,0,0,0-2.2-.24l-.15.18a4.31,4.31,0,0,1,2,.59Z" transform="translate(-84.47 -213)"/><path class="cls-9" d="M100.79,231.5a2.84,2.84,0,0,0-2.2-.24l-.15.18a4.31,4.31,0,0,1,2,.59Z" transform="translate(-84.47 -213)"/><path class="cls-8" d="M104.65,247l.4.26Z" transform="translate(-84.47 -213)"/><path class="cls-9" d="M104.65,247l.4.26Z" transform="translate(-84.47 -213)"/><path class="cls-8" d="M100.28,237.63a1.64,1.64,0,0,1,0-.23v-.06A2.85,2.85,0,0,0,100.28,237.63Z" transform="translate(-84.47 -213)"/><path class="cls-9" d="M100.28,237.63a1.64,1.64,0,0,1,0-.23v-.06A2.85,2.85,0,0,0,100.28,237.63Z" transform="translate(-84.47 -213)"/><path class="cls-8" d="M100.86,242.2l-.09-.25,0-.09C100.77,242,100.81,242.09,100.86,242.2Z" transform="translate(-84.47 -213)"/><path class="cls-9" d="M100.86,242.2l-.09-.25,0-.09C100.77,242,100.81,242.09,100.86,242.2Z" transform="translate(-84.47 -213)"/><path class="cls-8" d="M101.49,232.55v0l.06-.17C101.54,232.42,101.51,232.49,101.49,232.55Z" transform="translate(-84.47 -213)"/><path class="cls-9" d="M101.49,232.55v0l.06-.17C101.54,232.42,101.51,232.49,101.49,232.55Z" transform="translate(-84.47 -213)"/><path class="cls-8" d="M111.93,250.12l-.35-.09-.29-.08Z" transform="translate(-84.47 -213)"/><path class="cls-9" d="M111.93,250.12l-.35-.09-.29-.08Z" transform="translate(-84.47 -213)"/><path class="cls-8" d="M101.21,243.06c0-.06,0-.13-.07-.19l0-.05A2.44,2.44,0,0,1,101.21,243.06Z" transform="translate(-84.47 -213)"/><path class="cls-9" d="M101.21,243.06c0-.06,0-.13-.07-.19l0-.05A2.44,2.44,0,0,1,101.21,243.06Z" transform="translate(-84.47 -213)"/><path class="cls-7" d="M101.22,243.06h0a2.44,2.44,0,0,0-.1-.24c-.09-.2-.18-.41-.25-.62s-.09-.23-.13-.34,0,0,0-.05a8.67,8.67,0,0,0-2.32.18c0,.32.11.63.18.95A6.47,6.47,0,0,1,101.22,243.06Z" transform="translate(-84.47 -213)"/><path class="cls-8" d="M101.22,243.06h0a2.44,2.44,0,0,0-.1-.24c-.09-.2-.18-.41-.25-.62s-.09-.23-.13-.34,0,0,0-.05a8.67,8.67,0,0,0-2.32.18c0,.32.11.63.18.95A6.47,6.47,0,0,1,101.22,243.06Z" transform="translate(-84.47 -213)"/><path class="cls-9" d="M101.22,243.06h0a2.44,2.44,0,0,0-.1-.24c-.09-.2-.18-.41-.25-.62s-.09-.23-.13-.34,0,0,0-.05a8.67,8.67,0,0,0-2.32.18c0,.32.11.63.18.95A6.47,6.47,0,0,1,101.22,243.06Z" transform="translate(-84.47 -213)"/><path class="cls-7" d="M101.41,232.77a2,2,0,0,1,.08-.22c0-.06.05-.13.07-.2s0-.12.08-.19v0a4.34,4.34,0,0,0-.86-.62l-.3.53A3.61,3.61,0,0,1,101.41,232.77Z" transform="translate(-84.47 -213)"/><path class="cls-8" d="M101.41,232.77a2,2,0,0,1,.08-.22c0-.06.05-.13.07-.2s0-.12.08-.19v0a4.34,4.34,0,0,0-.86-.62l-.3.53A3.61,3.61,0,0,1,101.41,232.77Z" transform="translate(-84.47 -213)"/><path class="cls-9" d="M101.41,232.77a2,2,0,0,1,.08-.22c0-.06.05-.13.07-.2s0-.12.08-.19v0a4.34,4.34,0,0,0-.86-.62l-.3.53A3.61,3.61,0,0,1,101.41,232.77Z" transform="translate(-84.47 -213)"/><path class="cls-7" d="M102.71,249.47a8.49,8.49,0,0,1,2.82-1.92l-.27-.18-.21-.14-.4-.26-.23-.17,0,0a9,9,0,0,0-2.4,2C102.21,249,102.45,249.25,102.71,249.47Z" transform="translate(-84.47 -213)"/><path class="cls-8" d="M102.71,249.47a8.49,8.49,0,0,1,2.82-1.92l-.27-.18-.21-.14-.4-.26-.23-.17,0,0a9,9,0,0,0-2.4,2C102.21,249,102.45,249.25,102.71,249.47Z" transform="translate(-84.47 -213)"/><path class="cls-9" d="M102.71,249.47a8.49,8.49,0,0,1,2.82-1.92l-.27-.18-.21-.14-.4-.26-.23-.17,0,0a9,9,0,0,0-2.4,2C102.21,249,102.45,249.25,102.71,249.47Z" transform="translate(-84.47 -213)"/><path class="cls-7" d="M100.26,237.84v0c0-.06,0-.12,0-.18a8.51,8.51,0,0,0,0-.58,4,4,0,0,0-1.58-.66c-.07.23-.12.47-.17.71A3.72,3.72,0,0,1,100.26,237.84Z" transform="translate(-84.47 -213)"/><path class="cls-8" d="M100.26,237.84v0c0-.06,0-.12,0-.18a8.51,8.51,0,0,0,0-.58,4,4,0,0,0-1.58-.66c-.07.23-.12.47-.17.71A3.72,3.72,0,0,1,100.26,237.84Z" transform="translate(-84.47 -213)"/><path class="cls-9" d="M100.26,237.84v0c0-.06,0-.12,0-.18a8.51,8.51,0,0,0,0-.58,4,4,0,0,0-1.58-.66c-.07.23-.12.47-.17.71A3.72,3.72,0,0,1,100.26,237.84Z" transform="translate(-84.47 -213)"/><path class="cls-7" d="M112.44,250.26h0l-.49-.13-.64-.17-.4-.11a9,9,0,0,0-2.3,3.2c.3.13.61.25.93.37A8.11,8.11,0,0,1,112.44,250.26Z" transform="translate(-84.47 -213)"/><path class="cls-8" d="M112.44,250.26h0l-.49-.13-.64-.17-.4-.11a9,9,0,0,0-2.3,3.2c.3.13.61.25.93.37A8.11,8.11,0,0,1,112.44,250.26Z" transform="translate(-84.47 -213)"/><path class="cls-9" d="M112.44,250.26h0l-.49-.13-.64-.17-.4-.11a9,9,0,0,0-2.3,3.2c.3.13.61.25.93.37A8.11,8.11,0,0,1,112.44,250.26Z" transform="translate(-84.47 -213)"/><path class="cls-7" d="M98.11,231.45h.33l.15-.18A3.19,3.19,0,0,0,98.11,231.45Z" transform="translate(-84.47 -213)"/><path class="cls-9" d="M98.11,231.45h.33l.15-.18A3.19,3.19,0,0,0,98.11,231.45Z" transform="translate(-84.47 -213)"/><path class="cls-9" d="M98.11,231.45h.33l.15-.18A3.19,3.19,0,0,0,98.11,231.45Z" transform="translate(-84.47 -213)"/><path class="cls-7" d="M99.57,254.89s.14-.46.4-1.12l-.18-.19C99.71,254,99.62,254.42,99.57,254.89Z" transform="translate(-84.47 -213)"/><path class="cls-9" d="M99.57,254.89s.14-.46.4-1.12l-.18-.19C99.71,254,99.62,254.42,99.57,254.89Z" transform="translate(-84.47 -213)"/><path class="cls-9" d="M99.57,254.89s.14-.46.4-1.12l-.18-.19C99.71,254,99.62,254.42,99.57,254.89Z" transform="translate(-84.47 -213)"/><path class="cls-7" d="M94.7,237.59l.17-.07,0-.05C94.83,237.52,94.77,237.54,94.7,237.59Z" transform="translate(-84.47 -213)"/><path class="cls-9" d="M94.7,237.59l.17-.07,0-.05C94.83,237.52,94.77,237.54,94.7,237.59Z" transform="translate(-84.47 -213)"/><path class="cls-9" d="M94.7,237.59l.17-.07,0-.05C94.83,237.52,94.77,237.54,94.7,237.59Z" transform="translate(-84.47 -213)"/><path class="cls-7" d="M93.84,245.07s.28-.23.74-.53c0-.1,0-.2-.07-.3A7.13,7.13,0,0,0,93.84,245.07Z" transform="translate(-84.47 -213)"/><path class="cls-9" d="M93.84,245.07s.28-.23.74-.53c0-.1,0-.2-.07-.3A7.13,7.13,0,0,0,93.84,245.07Z" transform="translate(-84.47 -213)"/><path class="cls-9" d="M93.84,245.07s.28-.23.74-.53c0-.1,0-.2-.07-.3A7.13,7.13,0,0,0,93.84,245.07Z" transform="translate(-84.47 -213)"/><path class="cls-10" d="M126.78,245.94c-8.17,3.54-16.55,9-22.23,16,.1-.12,1.13,0,1.28,0l10.47.07,17,.1,18.46.11,15,.09h2.07c4.8,0,9.7,0,14.16,1.88a13.87,13.87,0,0,1,8.35,10.24,27.83,27.83,0,0,1-.68,12.14c-.12.46-1.39,5.83-1.94,5.83h-22c1.26-3.23,2.29-7.84-1.07-10.18a10.09,10.09,0,0,0-5.61-1.45c-2.77,0-6.05-.06-8.68.83a6.21,6.21,0,0,0-2.59,1.32,11.38,11.38,0,0,0-2.26,2.07,13.41,13.41,0,0,0-2.48,5.44c-1.46,5.3-3.07,10.57-4.6,15.84-.79,2.72-1.57,5.43-2.36,8.14-.85,2.93-1.9,6.34.55,8.85,1.69,1.73,4.34,2.12,6.65,2.11a25.22,25.22,0,0,0,8.55-1.3c3.78-1.44,5.81-4.53,6.89-8.28.06-.18,1-3.36.89-3.36h22.81c-2.18,12.55-9,24.4-21.24,29.41-6.29,2.58-12.41,2.58-19.13,2.58H104.41a52.58,52.58,0,0,0,11.14,8.48c14.33,8.21,31.76,10.13,47.69,6.05.74-.19,1.48-.39,2.22-.61A66.53,66.53,0,0,0,204.31,327c9.08-16.52,10.13-38.61,1.21-55.42a56.51,56.51,0,0,0-16-19,62.82,62.82,0,0,0-22-10.44,58.59,58.59,0,0,0-14.23-1.69,67.55,67.55,0,0,0-26.55,5.47" transform="translate(-84.47 -213)"/><path class="cls-11" d="M91.33,284c-1.39,2.23-2.5,9.46-2.5,9.46H120a35.92,35.92,0,0,1,3.34-9.46Z" transform="translate(-84.47 -213)"/><path class="cls-12" d="M88.55,312.41a50.53,50.53,0,0,0,2,8.9h22c0-3.89,2-8.9,2-8.9Z" transform="translate(-84.47 -213)"/><rect class="cls-13" x="35.22" y="22.98" width="20.17" height="1.9"/><path class="cls-13" d="M127,240.88,113,243.24a1.82,1.82,0,0,1-2.12-1.8v-9a1.82,1.82,0,0,1,2.12-1.8L127,233a1.81,1.81,0,0,1,1.52,1.79v4.26A1.82,1.82,0,0,1,127,240.88Z" transform="translate(-84.47 -213)"/><path class="cls-14" d="M112.66,242.24a.79.79,0,0,1-.8-.8v-9a.8.8,0,0,1,.93-.79L126.87,234a.79.79,0,0,1,.67.78v4.26a.8.8,0,0,1-.67.79l-14.08,2.36Zm0-9.89s-.13,0-.13.11v9a.12.12,0,0,0,.12.12h0l14.08-2.37a.11.11,0,0,0,.09-.11v-4.26a.12.12,0,0,0-.09-.11l-14.08-2.36Z" transform="translate(-84.47 -213)"/><path class="cls-15" d="M127,233l-2.68-.45a32.91,32.91,0,0,1-13.52,7.81v1.05a1.82,1.82,0,0,0,2.12,1.8L127,240.88a1.82,1.82,0,0,0,1.52-1.8v-4.26A1.81,1.81,0,0,0,127,233Z" transform="translate(-84.47 -213)"/><rect class="cls-13" x="160.56" y="235.98" width="20.17" height="1.9" transform="translate(256.83 260.87) rotate(180)"/><path class="cls-13" d="M173.4,240.88l14.08,2.36a1.82,1.82,0,0,0,2.12-1.8v-9a1.82,1.82,0,0,0-2.12-1.8L173.4,233a1.82,1.82,0,0,0-1.53,1.79v4.26A1.83,1.83,0,0,0,173.4,240.88Z" transform="translate(-84.47 -213)"/><path class="cls-14" d="M187.64,242.23l-14.07-2.36a.8.8,0,0,1-.67-.79v-4.26a.79.79,0,0,1,.67-.78l14.07-2.37a.8.8,0,0,1,.94.79v9a.8.8,0,0,1-.8.8Zm.12-9.88-14.08,2.36a.12.12,0,0,0-.1.11v4.26a.11.11,0,0,0,.1.11l14.08,2.37h0a.12.12,0,0,0,.11-.12v-9a.11.11,0,0,0-.12-.11Z" transform="translate(-84.47 -213)"/><path class="cls-15" d="M173.4,233l2.67-.45a33,33,0,0,0,13.53,7.81v1.05a1.82,1.82,0,0,1-2.12,1.8l-14.08-2.36a1.83,1.83,0,0,1-1.53-1.8v-4.26A1.82,1.82,0,0,1,173.4,233Z" transform="translate(-84.47 -213)"/><circle class="cls-14" cx="65.81" cy="4.76" r="4.76"/><path class="cls-16" d="M146.9,214.42a4.75,4.75,0,1,0,8.09,4C151.93,218,148.58,216.76,146.9,214.42Z" transform="translate(-84.47 -213)"/><ellipse class="cls-13" cx="65.74" cy="15.14" rx="14.64" ry="9.32"/><path class="cls-15" d="M155.33,223.69c-4.22-.64-9.07-1.29-12.43-3.63-4.37,1.61-7.32,4.62-7.32,8.08,0,5.14,6.55,9.32,14.64,9.32s14.64-4.18,14.64-9.32a6.36,6.36,0,0,0-.94-3.29C161,224.6,158.09,224.11,155.33,223.69Z" transform="translate(-84.47 -213)"/><path class="cls-13" d="M150.22,224.25c-16.25,0-20.64,6.34-20.64,6.34l2.8,13.18s4.54,2.16,17.84,2.16,17.84-2.16,17.84-2.16l2.8-13.18S166.47,224.25,150.22,224.25Z" transform="translate(-84.47 -213)"/><path class="cls-13" d="M150.22,224.25c-16.25,0-20.64,6.34-20.64,6.34l2.8,13.18s4.54,2.16,17.84,2.16,17.84-2.16,17.84-2.16l2.8-13.18S166.47,224.25,150.22,224.25Z" transform="translate(-84.47 -213)"/><path class="cls-14" d="M129.87,232l.35,1.67c3.26-2,9.37-4.43,20-4.43s16.74,2.41,20,4.43l.35-1.67c-3.16-2.06-9.32-4.66-20.35-4.66S133,229.89,129.87,232Z" transform="translate(-84.47 -213)"/><path class="cls-14" d="M132,241.94l.23,1.09c3,.73,8.64,1.64,18,1.64s15-.91,18-1.64l.24-1.09c-3.09.74-8.82,1.65-18.23,1.65S135.08,242.68,132,241.94Z" transform="translate(-84.47 -213)"/><path class="cls-15" d="M147.4,235.93c-5.42-1.49-10.83-3.75-14.61-8a10.68,10.68,0,0,0-3.21,2.61l2.8,13.18s4.54,2.16,17.84,2.16,17.84-2.16,17.84-2.16l1.12-5.27A73.05,73.05,0,0,1,147.4,235.93Z" transform="translate(-84.47 -213)"/><circle class="cls-14" cx="150.29" cy="235.98" r="5.53" transform="translate(-191.14 133.68) rotate(-80.82)"/><path class="cls-17" d="M146.78,237.12v-.75h3.15v-1.61h-1.62a12.58,12.58,0,0,1-.63,1.21l-.18-.09c-.07,0-.25-.16-.52-.31a9.2,9.2,0,0,0,1.13-2.66l.78.14c0,.16-.11.37-.2.64s-.07.26-.09.32h1.33v-1.45h.81V234h2.34v.75h-2.34v1.61h2.91v.75h-2.91v2.29h-.81v-2.29Z" transform="translate(-84.47 -213)"/><path class="cls-16" d="M152.2,237.87a5.52,5.52,0,0,1-5.7-5,4.93,4.93,0,1,0,8.57,4.34A5.86,5.86,0,0,1,152.2,237.87Z" transform="translate(-84.47 -213)"/></g></g></svg>