<svg xmlns="http://www.w3.org/2000/svg" xmlns:xlink="http://www.w3.org/1999/xlink" viewBox="0 0 139 37.8"><defs><style>.cls-1{isolation:isolate;}.cls-2{fill:#fff;}.cls-3{fill:#bea48a;}.cls-4,.cls-5{fill:#aa8454;}.cls-5{opacity:0.23;}.cls-14,.cls-15,.cls-5,.cls-8{mix-blend-mode:multiply;}.cls-6,.cls-7,.cls-8{fill:#d7b981;}.cls-7{opacity:0.5;mix-blend-mode:screen;}.cls-15,.cls-8{opacity:0.4;}.cls-9{fill:url(#linear-gradient);}.cls-10{fill:url(#linear-gradient-2);}.cls-11{fill:url(#linear-gradient-3);}.cls-12,.cls-14{fill:#db443f;}.cls-13,.cls-15{fill:#fdba48;}.cls-14{opacity:0.19;}.cls-16{fill:#fff8e3;}</style><linearGradient id="linear-gradient" x1="10.1" y1="30.41" x2="37.56" y2="30.41" gradientUnits="userSpaceOnUse"><stop offset="0" stop-color="#e55025"/><stop offset="0.1" stop-color="#e75827"/><stop offset="0.26" stop-color="#ec6e2e"/><stop offset="0.45" stop-color="#f49239"/><stop offset="0.58" stop-color="#faaf42"/><stop offset="1" stop-color="#f9cc10"/></linearGradient><linearGradient id="linear-gradient-2" x1="6.11" y1="27.35" x2="14.94" y2="27.35" xlink:href="#linear-gradient"/><linearGradient id="linear-gradient-3" x1="6.04" y1="34.54" x2="12.66" y2="34.54" xlink:href="#linear-gradient"/></defs><title>150x54</title><g class="cls-1"><g id="Layer_1" data-name="Layer 1"><path class="cls-2" d="M60.36,23.33H56.47l.34-1.15a.49.49,0,0,0,0-.12c0-.17-.13-.26-.39-.26H54.71a.52.52,0,0,0-.57.38l-1.6,5.74a.62.62,0,0,0,0,.13c0,.17.12.25.37.25h1.72a.53.53,0,0,0,.59-.38l.32-1.16h3.88l-.83,3a3,3,0,0,1-1.27,1.84,6.3,6.3,0,0,1-3.18.59H51c-1.51,0-2.46-.2-2.85-.59a1.34,1.34,0,0,1-.39-1,2.9,2.9,0,0,1,.13-.83l2.6-9.47a3.11,3.11,0,0,1,1.27-1.85A6.55,6.55,0,0,1,55,17.87h3.13a4.63,4.63,0,0,1,2.85.59,1.38,1.38,0,0,1,.39,1,3.3,3.3,0,0,1-.13.83Z" transform="translate(-5 -8.04)"/><path class="cls-2" d="M74,23.33H70.15l.33-1.15a.5.5,0,0,0,0-.12c0-.17-.13-.26-.39-.26H68.39a.51.51,0,0,0-.57.38l-1.61,5.74a.62.62,0,0,0,0,.13c0,.17.13.25.38.25H68.3a.52.52,0,0,0,.58-.38l.32-1.16h3.89l-.83,3A3.06,3.06,0,0,1,71,31.62a6.32,6.32,0,0,1-3.19.59H64.67c-1.5,0-2.45-.2-2.85-.59a1.34,1.34,0,0,1-.39-1,3.3,3.3,0,0,1,.13-.83l2.61-9.47a3.1,3.1,0,0,1,1.26-1.85,6.6,6.6,0,0,1,3.19-.59h3.13c1.51,0,2.46.21,2.85.59a1.38,1.38,0,0,1,.39,1,2.9,2.9,0,0,1-.13.83Z" transform="translate(-5 -8.04)"/><path class="cls-2" d="M80.69,17.87h6.59L86.7,32.21H82.55l.15-2.7H78.88l-1.36,2.7H73.37Zm2.16,3.94-2.59,5h2.55Z" transform="translate(-5 -8.04)"/><path class="cls-2" d="M94.05,27.72l-1.2,4.49H88.7l4-14.34h7a4.63,4.63,0,0,1,2.85.59,1.38,1.38,0,0,1,.39,1,3.3,3.3,0,0,1-.13.83l-1,3.47a2.83,2.83,0,0,1-1.92,1.85,1,1,0,0,0-.44.22h0c0,.05.11.12.33.2a1.52,1.52,0,0,1,1.1,1.38,2.14,2.14,0,0,1-.07.47l-1.19,4.3H95.52l1.09-4.11a.74.74,0,0,0,0-.12c0-.18-.13-.26-.39-.26Zm1.64-5.91L95,24.46h2.18a.54.54,0,0,0,.59-.38l.49-1.89a.74.74,0,0,0,0-.12c0-.18-.13-.26-.39-.26Z" transform="translate(-5 -8.04)"/><path class="cls-2" d="M107.12,28.82l-.93,3.39h-4.41l.94-3.39Z" transform="translate(-5 -8.04)"/><path class="cls-2" d="M115.63,32.21,115,22.32l-2.72,9.89H108.4l3.95-14.34h5.57l.61,10.23,6.23-10.23h5.57l-4,14.34h-3.89l2.72-9.89-5.93,9.89Z" transform="translate(-5 -8.04)"/><path class="cls-2" d="M130.67,17.87h4.15l.84,6.08,4.2-6.08H144l-7.26,9.71-1.29,4.63h-4.14l1.28-4.65Z" transform="translate(-5 -8.04)"/><path class="cls-2" d="M50.47,38.48h1l.27-1.41h1.09l-.27,1.41h.6v1h-.79l-.2,1h1v1H52l-.27,1.42H50.6l.27-1.42h-1l-.27,1.42H48.55l.27-1.42h-.6v-1H49l.2-1h-1v-1h1.16l.28-1.41h1.08Zm-.38,2h1l.2-1h-1Z" transform="translate(-5 -8.04)"/><path class="cls-2" d="M54.51,38.27c.16-.07.33-.14.5-.23l.52-.28c.16-.11.32-.21.47-.33a2.94,2.94,0,0,0,.42-.36h.86v5.77H56V38.68a3,3,0,0,1-.56.31l-.6.24Z" transform="translate(-5 -8.04)"/><path class="cls-2" d="M64.65,43a2.8,2.8,0,0,1-2.14-.79A3.07,3.07,0,0,1,61.77,40,3.44,3.44,0,0,1,62,38.67a2.85,2.85,0,0,1,.62-1,2.62,2.62,0,0,1,.93-.58,3.21,3.21,0,0,1,1.18-.2,3.41,3.41,0,0,1,.66.05,4.58,4.58,0,0,1,.53.13,1.92,1.92,0,0,1,.37.14l.22.12-.38,1a3,3,0,0,0-.62-.25,3.2,3.2,0,0,0-.8-.09,2,2,0,0,0-.59.09,1.4,1.4,0,0,0-.51.33,1.58,1.58,0,0,0-.35.57,2.34,2.34,0,0,0-.13.85,3.5,3.5,0,0,0,.08.74,1.68,1.68,0,0,0,.29.6,1.44,1.44,0,0,0,.51.39,1.79,1.79,0,0,0,.77.15,2.6,2.6,0,0,0,.5,0l.4-.08a1.89,1.89,0,0,0,.31-.1l.24-.11.36,1a3.08,3.08,0,0,1-.77.3A4.5,4.5,0,0,1,64.65,43Z" transform="translate(-5 -8.04)"/><path class="cls-2" d="M69.34,38.34a2.66,2.66,0,0,1,.91.13,1.34,1.34,0,0,1,.59.36,1.23,1.23,0,0,1,.31.56,2.83,2.83,0,0,1,.09.74v2.58c-.18,0-.42.09-.74.14a7.39,7.39,0,0,1-1.15.08,3.67,3.67,0,0,1-.77-.07,1.67,1.67,0,0,1-.59-.25,1.07,1.07,0,0,1-.39-.45,1.63,1.63,0,0,1-.13-.67,1.21,1.21,0,0,1,.16-.65,1.1,1.1,0,0,1,.41-.42,1.62,1.62,0,0,1,.59-.23,3.11,3.11,0,0,1,.69-.07,2.89,2.89,0,0,1,.43,0,1.86,1.86,0,0,1,.3,0v-.11a.66.66,0,0,0-.19-.51.93.93,0,0,0-.67-.19,4.3,4.3,0,0,0-.62,0,2.28,2.28,0,0,0-.53.13l-.16-1,.27-.07.35-.07.41,0Zm.1,3.63h.35l.26,0V41l-.22,0a1.37,1.37,0,0,0-.28,0l-.33,0a.77.77,0,0,0-.27.08.44.44,0,0,0-.25.41.42.42,0,0,0,.2.4A1,1,0,0,0,69.44,42Z" transform="translate(-5 -8.04)"/><path class="cls-2" d="M75.35,39.56,75,39.47a2.45,2.45,0,0,0-.48,0,1.47,1.47,0,0,0-.28,0l-.24,0v3.35H72.72V38.69c.22-.07.48-.15.78-.22a4.49,4.49,0,0,1,1-.1h.25l.28,0,.28.05.24.07Z" transform="translate(-5 -8.04)"/><path class="cls-2" d="M80.58,41.85A1.89,1.89,0,0,0,81,41.8a.81.81,0,0,0,.28-.12.37.37,0,0,0,.15-.19.6.6,0,0,0,0-.24.55.55,0,0,0-.27-.47,3.75,3.75,0,0,0-.92-.41c-.19-.06-.37-.14-.56-.22a2.23,2.23,0,0,1-.51-.33,1.71,1.71,0,0,1-.37-.47,1.59,1.59,0,0,1-.14-.68A1.66,1.66,0,0,1,78.9,38a1.45,1.45,0,0,1,.43-.55,1.87,1.87,0,0,1,.66-.34,3,3,0,0,1,.88-.12,3.73,3.73,0,0,1,1,.12,3.39,3.39,0,0,1,.7.28l-.37,1a3.8,3.8,0,0,0-.54-.22A2.48,2.48,0,0,0,81,38a1.36,1.36,0,0,0-.67.13.44.44,0,0,0-.21.4.45.45,0,0,0,.08.26.67.67,0,0,0,.21.2,1.91,1.91,0,0,0,.32.16l.39.14c.3.12.56.22.78.33a2.2,2.2,0,0,1,.56.38,1.54,1.54,0,0,1,.33.51,2.08,2.08,0,0,1,.11.71,1.49,1.49,0,0,1-.57,1.25,2.73,2.73,0,0,1-1.71.45,4.86,4.86,0,0,1-.69-.05,5.1,5.1,0,0,1-.54-.11,3.85,3.85,0,0,1-.41-.14,1.92,1.92,0,0,1-.29-.15l.37-1a3.15,3.15,0,0,0,.63.26A3.59,3.59,0,0,0,80.58,41.85Z" transform="translate(-5 -8.04)"/><path class="cls-2" d="M88.22,40.64a2.87,2.87,0,0,1-.15,1,2.07,2.07,0,0,1-.44.73,2,2,0,0,1-.67.47,2.31,2.31,0,0,1-.89.17,2.26,2.26,0,0,1-.88-.17,2,2,0,0,1-.68-.47,2.22,2.22,0,0,1-.44-.73,2.87,2.87,0,0,1-.16-1,2.81,2.81,0,0,1,.16-.94,2.2,2.2,0,0,1,.45-.72,2.06,2.06,0,0,1,.69-.47,2.2,2.2,0,0,1,.86-.17,2.29,2.29,0,0,1,.87.17,2,2,0,0,1,.68.47,2.18,2.18,0,0,1,.44.72A2.81,2.81,0,0,1,88.22,40.64Zm-1.27,0a1.58,1.58,0,0,0-.23-.9.74.74,0,0,0-.65-.33.77.77,0,0,0-.66.33,1.58,1.58,0,0,0-.23.9,1.61,1.61,0,0,0,.23.91.76.76,0,0,0,.66.34.73.73,0,0,0,.65-.34A1.61,1.61,0,0,0,87,40.64Z" transform="translate(-5 -8.04)"/><path class="cls-2" d="M89.32,40.65a2.66,2.66,0,0,1,.15-.9,2.16,2.16,0,0,1,.44-.73,2.1,2.1,0,0,1,.71-.49,2.24,2.24,0,0,1,.95-.19,2.56,2.56,0,0,1,.64.07,3.43,3.43,0,0,1,.57.17l-.26,1a2.11,2.11,0,0,0-.38-.12,2.26,2.26,0,0,0-.47-.05,1,1,0,0,0-.82.34,1.71,1.71,0,0,0,0,1.81,1.07,1.07,0,0,0,.89.33,2.74,2.74,0,0,0,.48,0,1.79,1.79,0,0,0,.48-.14l.17,1a3.25,3.25,0,0,1-.54.16,3.79,3.79,0,0,1-.71.07,2.73,2.73,0,0,1-1-.18,2.14,2.14,0,0,1-.71-.49,2.09,2.09,0,0,1-.41-.73A3.28,3.28,0,0,1,89.32,40.65Z" transform="translate(-5 -8.04)"/><path class="cls-2" d="M95.39,37.19a.67.67,0,0,1-.22.54.78.78,0,0,1-1,0,.67.67,0,0,1-.22-.54.67.67,0,0,1,.22-.53.78.78,0,0,1,1,0A.67.67,0,0,1,95.39,37.19Zm-.11,5.65H94V38.46h1.24Z" transform="translate(-5 -8.04)"/><path class="cls-2" d="M98.36,38.34a2.68,2.68,0,0,1,.92.13,1.4,1.4,0,0,1,.59.36,1.33,1.33,0,0,1,.31.56,2.83,2.83,0,0,1,.09.74v2.58c-.18,0-.42.09-.74.14a7.48,7.48,0,0,1-1.15.08,3.67,3.67,0,0,1-.77-.07,1.67,1.67,0,0,1-.59-.25,1.07,1.07,0,0,1-.39-.45,1.48,1.48,0,0,1-.13-.67,1.3,1.3,0,0,1,.15-.65,1.13,1.13,0,0,1,.42-.42,1.55,1.55,0,0,1,.59-.23,3.11,3.11,0,0,1,.69-.07,2.89,2.89,0,0,1,.43,0,1.86,1.86,0,0,1,.3,0v-.11a.66.66,0,0,0-.19-.51.93.93,0,0,0-.67-.19,4.21,4.21,0,0,0-.62,0,2.28,2.28,0,0,0-.53.13l-.16-1,.27-.07.35-.07.41,0Zm.1,3.63h.35l.27,0V41l-.22,0a1.42,1.42,0,0,0-.28,0l-.33,0a.77.77,0,0,0-.27.08.4.4,0,0,0-.18.16.39.39,0,0,0-.07.25.42.42,0,0,0,.2.4A1,1,0,0,0,98.46,42Z" transform="translate(-5 -8.04)"/><path class="cls-2" d="M103.49,42.92a3,3,0,0,1-.88-.11,1.43,1.43,0,0,1-.53-.31,1.06,1.06,0,0,1-.27-.47,3,3,0,0,1-.07-.63V36.58l1.24-.2v4.77a1.39,1.39,0,0,0,0,.3.63.63,0,0,0,.09.22.57.57,0,0,0,.21.15,1.07,1.07,0,0,0,.36.08Z" transform="translate(-5 -8.04)"/><path class="cls-2" d="M108.89,37a3.54,3.54,0,0,1,2,.46,1.63,1.63,0,0,1,.69,1.48,1.67,1.67,0,0,1-.7,1.51,3.7,3.7,0,0,1-2,.46h-.41v1.93h-1.3V37.15a8.51,8.51,0,0,1,.9-.11C108.37,37,108.65,37,108.89,37Zm.08,1.11h-.28l-.24,0V39.8h.41a2.27,2.27,0,0,0,1-.18.73.73,0,0,0,.34-.69.82.82,0,0,0-.09-.4.67.67,0,0,0-.25-.25,1.12,1.12,0,0,0-.39-.13A2.82,2.82,0,0,0,109,38.11Z" transform="translate(-5 -8.04)"/><path class="cls-2" d="M114.53,42.92a3,3,0,0,1-.88-.11,1.43,1.43,0,0,1-.53-.31,1.06,1.06,0,0,1-.27-.47,3,3,0,0,1-.07-.63V36.58l1.24-.2v4.77a1.39,1.39,0,0,0,0,.3.49.49,0,0,0,.09.22.57.57,0,0,0,.21.15,1.07,1.07,0,0,0,.36.08Z" transform="translate(-5 -8.04)"/><path class="cls-2" d="M117.46,38.34a2.72,2.72,0,0,1,.92.13,1.31,1.31,0,0,1,.58.36,1.35,1.35,0,0,1,.32.56,2.83,2.83,0,0,1,.09.74v2.58l-.74.14a7.48,7.48,0,0,1-1.15.08,3.61,3.61,0,0,1-.77-.07,1.81,1.81,0,0,1-.6-.25,1.12,1.12,0,0,1-.38-.45,1.48,1.48,0,0,1-.13-.67,1.3,1.3,0,0,1,.15-.65,1.1,1.1,0,0,1,.41-.42,1.62,1.62,0,0,1,.59-.23,3.17,3.17,0,0,1,.69-.07,2.82,2.82,0,0,1,.43,0,1.82,1.82,0,0,1,.31,0v-.11a.69.69,0,0,0-.19-.51.93.93,0,0,0-.67-.19,4.44,4.44,0,0,0-.63,0,2.42,2.42,0,0,0-.53.13l-.16-1,.27-.07.36-.07.4,0Zm.1,3.63h.35l.27,0V41L118,41a1.32,1.32,0,0,0-.27,0l-.33,0a.77.77,0,0,0-.27.08.49.49,0,0,0-.19.16.46.46,0,0,0-.06.25.42.42,0,0,0,.19.4A1,1,0,0,0,117.56,42Z" transform="translate(-5 -8.04)"/><path class="cls-2" d="M120.8,37.37l1.24-.2v1.29h1.49v1H122V41a1.18,1.18,0,0,0,.14.63.59.59,0,0,0,.55.23,2,2,0,0,0,.41,0,2.22,2.22,0,0,0,.39-.1l.17,1a2.26,2.26,0,0,1-.5.16,2.55,2.55,0,0,1-.67.07,2.23,2.23,0,0,1-.84-.14,1.32,1.32,0,0,1-.53-.38,1.33,1.33,0,0,1-.28-.6,3.09,3.09,0,0,1-.08-.77Z" transform="translate(-5 -8.04)"/><path class="cls-2" d="M126.78,36.38a2.64,2.64,0,0,1,.65.07,2.56,2.56,0,0,1,.44.14l-.24,1a1.37,1.37,0,0,0-.36-.11,1.59,1.59,0,0,0-.36,0,1,1,0,0,0-.38.06.61.61,0,0,0-.24.17.71.71,0,0,0-.13.26,1.66,1.66,0,0,0,0,.32v.22h1.53v1h-1.53v3.35h-1.24V38.23a1.7,1.7,0,0,1,1.89-1.85Z" transform="translate(-5 -8.04)"/><path class="cls-2" d="M132.78,40.64a2.87,2.87,0,0,1-.15,1,2.2,2.2,0,0,1-.43.73,2,2,0,0,1-.68.47,2.39,2.39,0,0,1-1.77,0,2,2,0,0,1-.68-.47,2.22,2.22,0,0,1-.44-.73,2.87,2.87,0,0,1-.16-1,2.58,2.58,0,0,1,.17-.94,1.91,1.91,0,0,1,.45-.72,2,2,0,0,1,.68-.47,2.29,2.29,0,0,1,1.73,0,2,2,0,0,1,.68.47,2.18,2.18,0,0,1,.44.72A2.58,2.58,0,0,1,132.78,40.64Zm-1.27,0a1.5,1.5,0,0,0-.23-.9.74.74,0,0,0-.65-.33.77.77,0,0,0-.66.33,1.58,1.58,0,0,0-.23.9,1.61,1.61,0,0,0,.23.91.76.76,0,0,0,.66.34.73.73,0,0,0,.65-.34A1.54,1.54,0,0,0,131.51,40.64Z" transform="translate(-5 -8.04)"/><path class="cls-2" d="M136.72,39.56l-.39-.09a2.45,2.45,0,0,0-.48,0,1.47,1.47,0,0,0-.28,0l-.24,0v3.35h-1.24V38.69c.22-.07.48-.15.78-.22a4.49,4.49,0,0,1,1-.1h.24l.29,0,.28.05.24.07Z" transform="translate(-5 -8.04)"/><path class="cls-2" d="M140.35,40.52a1.74,1.74,0,0,0-.15-.85.56.56,0,0,0-.53-.25h-.24l-.24,0v3.38H138V38.61l.37-.09.45-.08a3.93,3.93,0,0,1,.48-.06l.5,0a2.11,2.11,0,0,1,.77.12,1.7,1.7,0,0,1,.48.29,2,2,0,0,1,.61-.3,2.32,2.32,0,0,1,.64-.11,2.11,2.11,0,0,1,.86.15,1.18,1.18,0,0,1,.54.41,1.63,1.63,0,0,1,.27.63,4.07,4.07,0,0,1,.08.82v2.47h-1.24V40.52a1.74,1.74,0,0,0-.15-.85.57.57,0,0,0-.53-.25.87.87,0,0,0-.28,0,1,1,0,0,0-.3.12,1.75,1.75,0,0,1,.08.41c0,.14,0,.29,0,.45v2.39h-1.24Z" transform="translate(-5 -8.04)"/><path class="cls-3" d="M39.41,18.58c.57.16.79,3.31-1.27,4.1-3.25,1.25-4.06-2.31-4.06-2.31S37.83,18.13,39.41,18.58Z" transform="translate(-5 -8.04)"/><path class="cls-4" d="M38.91,19.42c.44-1.05,1,1.33-.18,2.3a2,2,0,0,1-3.1-.1S38.19,21.16,38.91,19.42Z" transform="translate(-5 -8.04)"/><path class="cls-5" d="M36,21.94a1.94,1.94,0,0,1-.32-.32s2.56-.46,3.28-2.2c.28-.67.59,0,.48.92A5.82,5.82,0,0,1,36,21.94Z" transform="translate(-5 -8.04)"/><path class="cls-6" d="M34.28,11.85c-1.22-.72,4.17,5-3.5,6.1-.85.13-.21,3.26,2,2.75C35.68,20.5,40.45,15.47,34.28,11.85Z" transform="translate(-5 -8.04)"/><path class="cls-7" d="M30.49,19.14c-.15-.59,0-1.14.29-1.19,6.71-1,3.42-5.46,3.31-6.09C36.22,14.39,36.59,18,30.49,19.14Z" transform="translate(-5 -8.04)"/><path class="cls-8" d="M33.32,20c1.58-.87,5.76-4.44,1-8.13,6.09,3.62,1.35,8.62-1.54,8.82a1.78,1.78,0,0,1-1.06,0A10.49,10.49,0,0,0,33.32,20Z" transform="translate(-5 -8.04)"/><path class="cls-8" d="M31.87,17.74l.39-.1A2.5,2.5,0,0,1,33,20.12,2.93,2.93,0,0,0,31.87,17.74Zm2.76-4.64.06.17a1.05,1.05,0,0,1,.85-.34A.78.78,0,0,0,34.63,13.1Zm-.7,3.75-.29.2a3,3,0,0,1,1.52,1.88A2.55,2.55,0,0,0,33.93,16.85Zm2.7-.43a1.92,1.92,0,0,0-1.76-.84,3.05,3.05,0,0,1-.13.32A2.36,2.36,0,0,1,36.63,16.42Zm-.22-1.92A1.18,1.18,0,0,0,35,14.36c0,.07,0,.14,0,.21A1.54,1.54,0,0,1,36.41,14.5Z" transform="translate(-5 -8.04)"/><path class="cls-3" d="M5.39,18.75c-.57.16-.78,3.31,1.27,4.1,3.26,1.25,4.06-2.31,4.06-2.31S7,18.3,5.39,18.75Z" transform="translate(-5 -8.04)"/><path class="cls-4" d="M5.89,19.59c-.43-1.05-.95,1.33.19,2.29a2,2,0,0,0,3.1-.09S6.61,21.33,5.89,19.59Z" transform="translate(-5 -8.04)"/><path class="cls-5" d="M8.85,22.1a2,2,0,0,0,.33-.31s-2.57-.46-3.29-2.2c-.27-.67-.58.05-.48.91A5.7,5.7,0,0,0,8.85,22.1Z" transform="translate(-5 -8.04)"/><path class="cls-6" d="M9.74,11.68c1.23-.71-4.16,5,3.51,6.11.84.12.21,3.26-2,2.75C8.34,20.34,3.58,15.31,9.74,11.68Z" transform="translate(-5 -8.04)"/><path class="cls-7" d="M13.54,19c.15-.59.05-1.13-.29-1.18-6.71-1-3.43-5.47-3.32-6.09C7.8,14.22,7.43,17.84,13.54,19Z" transform="translate(-5 -8.04)"/><path class="cls-8" d="M10.7,19.84c-1.57-.87-5.76-4.44-1-8.13-6.1,3.62-1.35,8.63,1.53,8.83a1.9,1.9,0,0,0,1.07-.05A11,11,0,0,1,10.7,19.84Z" transform="translate(-5 -8.04)"/><path class="cls-8" d="M11,20a2.51,2.51,0,0,1,.73-2.48l.4.11A2.91,2.91,0,0,0,11,20ZM8.49,12.76a1.07,1.07,0,0,1,.84.34c0-.06.05-.11.07-.17A.79.79,0,0,0,8.49,12.76Zm.37,6a3.1,3.1,0,0,1,1.53-1.88,3.13,3.13,0,0,1-.3-.2A2.6,2.6,0,0,0,8.86,18.76Zm.42-3a2.56,2.56,0,0,1-.12-.32,1.9,1.9,0,0,0-1.76.83A2.32,2.32,0,0,1,9.28,15.74ZM9,14.4a1.23,1.23,0,0,1,0-.2,1.15,1.15,0,0,0-1.44.14A1.53,1.53,0,0,1,9,14.4Z" transform="translate(-5 -8.04)"/><path d="M37.57,29.88a16.4,16.4,0,0,1-15.73,16c-9.42.22-16.4-6.77-16-15.41a16,16,0,0,1,4.54-10.29,15.55,15.55,0,0,1,11.42-4.89C30.28,15.15,37.57,21.43,37.57,29.88Z" transform="translate(-5 -8.04)"/><path class="cls-9" d="M15.83,16.39a15.14,15.14,0,0,0-5.69,4.09s.29,0,.32,0l2.68,0,4.34,0,4.73,0,3.85,0h.53a9.23,9.23,0,0,1,3.62.48,3.58,3.58,0,0,1,2.14,2.63,7.22,7.22,0,0,1-.18,3.1c0,.12-.35,1.49-.49,1.49H26.05c.32-.82.59-2-.27-2.6a2.59,2.59,0,0,0-1.44-.37,6.87,6.87,0,0,0-2.22.21,1.6,1.6,0,0,0-.66.34,2.93,2.93,0,0,0-.58.53,3.6,3.6,0,0,0-.64,1.39c-.37,1.36-.78,2.7-1.17,4.06-.2.69-.4,1.38-.61,2.08s-.48,1.62.14,2.26a2.31,2.31,0,0,0,1.71.54,6.51,6.51,0,0,0,2.19-.33,3,3,0,0,0,1.76-2.12s.25-.86.22-.86h5.84c-.55,3.21-2.3,6.25-5.43,7.53a12.31,12.31,0,0,1-4.9.66H10.1A13.68,13.68,0,0,0,13,43.76a16.54,16.54,0,0,0,12.21,1.55l.57-.16a17,17,0,0,0,9.94-8A15.46,15.46,0,0,0,36,23a14.53,14.53,0,0,0-4.09-4.86,16.36,16.36,0,0,0-5.62-2.67A15.32,15.32,0,0,0,22.62,15a17.33,17.33,0,0,0-6.79,1.4" transform="translate(-5 -8.04)"/><path class="cls-10" d="M6.76,26.14a10.13,10.13,0,0,0-.65,2.42h8a9.17,9.17,0,0,1,.85-2.42Z" transform="translate(-5 -8.04)"/><path class="cls-11" d="M6,33.4a13.69,13.69,0,0,0,.5,2.28h5.63a7.82,7.82,0,0,1,.49-2.28Z" transform="translate(-5 -8.04)"/><rect class="cls-12" x="9.02" y="5.88" width="5.16" height="0.49"/><path class="cls-12" d="M15.89,15.18l-3.6.6a.46.46,0,0,1-.54-.46V13a.46.46,0,0,1,.54-.46l3.6.61a.45.45,0,0,1,.39.46v1.09A.47.47,0,0,1,15.89,15.18Z" transform="translate(-5 -8.04)"/><path class="cls-13" d="M12.21,15.53a.2.2,0,0,1-.2-.21V13a.2.2,0,0,1,.24-.2l3.6.61a.2.2,0,0,1,.17.2v1.09a.2.2,0,0,1-.17.2l-3.6.6Zm0-2.54s0,0,0,0v2.3a0,0,0,0,0,0,0h0l3.6-.6,0,0V13.63a0,0,0,0,0,0,0L12.22,13Z" transform="translate(-5 -8.04)"/><path class="cls-14" d="M15.89,13.17l-.68-.12a8.37,8.37,0,0,1-3.46,2v.27a.46.46,0,0,0,.54.46l3.6-.6a.47.47,0,0,0,.39-.46V13.63A.45.45,0,0,0,15.89,13.17Z" transform="translate(-5 -8.04)"/><rect class="cls-12" x="24.47" y="13.92" width="5.16" height="0.49" transform="translate(49.11 20.29) rotate(180)"/><path class="cls-12" d="M27.76,15.18l3.6.6a.47.47,0,0,0,.55-.46V13a.47.47,0,0,0-.55-.46l-3.6.61a.45.45,0,0,0-.39.46v1.09A.47.47,0,0,0,27.76,15.18Z" transform="translate(-5 -8.04)"/><path class="cls-13" d="M31.4,15.52l-3.6-.6a.2.2,0,0,1-.17-.2V13.63a.2.2,0,0,1,.17-.2l3.6-.61a.2.2,0,0,1,.24.2v2.3a.2.2,0,0,1-.2.21Zm0-2.53-3.6.61s0,0,0,0v1.09l0,0,3.6.6h0s0,0,0,0V13a0,0,0,0,0,0,0Z" transform="translate(-5 -8.04)"/><path class="cls-14" d="M27.76,13.17l.68-.12a8.47,8.47,0,0,0,3.47,2v.27a.47.47,0,0,1-.55.46l-3.6-.6a.47.47,0,0,1-.39-.46V13.63A.45.45,0,0,1,27.76,13.17Z" transform="translate(-5 -8.04)"/><circle class="cls-13" cx="16.84" cy="1.22" r="1.22"/><path class="cls-15" d="M21,8.4a1.22,1.22,0,1,0,2.07,1A3,3,0,0,1,21,8.4Z" transform="translate(-5 -8.04)"/><ellipse class="cls-12" cx="16.83" cy="3.87" rx="3.75" ry="2.39"/><path class="cls-14" d="M23.13,10.78A7.8,7.8,0,0,1,20,9.85c-1.12.41-1.87,1.18-1.87,2.07,0,1.31,1.68,2.38,3.75,2.38s3.74-1.07,3.74-2.38a1.63,1.63,0,0,0-.24-.85C24.59,11,23.84,10.88,23.13,10.78Z" transform="translate(-5 -8.04)"/><path class="cls-12" d="M21.83,10.92c-4.16,0-5.29,1.62-5.29,1.62l.72,3.38s1.16.55,4.57.55,4.56-.55,4.56-.55l.72-3.38S26,10.92,21.83,10.92Z" transform="translate(-5 -8.04)"/><path class="cls-12" d="M21.83,10.92c-4.16,0-5.29,1.62-5.29,1.62l.72,3.38s1.16.55,4.57.55,4.56-.55,4.56-.55l.72-3.38S26,10.92,21.83,10.92Z" transform="translate(-5 -8.04)"/><path class="cls-13" d="M16.62,12.89l.09.43a9.54,9.54,0,0,1,5.12-1.14,9.52,9.52,0,0,1,5.11,1.14l.09-.43a9.44,9.44,0,0,0-5.2-1.19A9.48,9.48,0,0,0,16.62,12.89Z" transform="translate(-5 -8.04)"/><path class="cls-13" d="M17.16,15.45l.06.28a20.42,20.42,0,0,0,4.61.42,20.39,20.39,0,0,0,4.6-.42l.06-.28a20.45,20.45,0,0,1-4.66.42A20.56,20.56,0,0,1,17.16,15.45Z" transform="translate(-5 -8.04)"/><path class="cls-14" d="M21.1,13.91a7.61,7.61,0,0,1-3.74-2,2.85,2.85,0,0,0-.82.67l.72,3.38s1.16.55,4.57.55,4.56-.55,4.56-.55l.29-1.35A18.83,18.83,0,0,1,21.1,13.91Z" transform="translate(-5 -8.04)"/><circle class="cls-13" cx="21.84" cy="13.92" r="1.41" transform="translate(-0.39 25.22) rotate(-80.82)"/><path class="cls-16" d="M21,14.22V14h.8v-.41h-.41c-.05.11-.11.21-.16.31l-.05,0L21,13.82a2.63,2.63,0,0,0,.29-.68l.2,0a1.2,1.2,0,0,1-.06.17.45.45,0,0,1,0,.08h.34v-.37H22v.37h.6v.19H22V14h.75v.2H22v.58h-.21v-.58Z" transform="translate(-5 -8.04)"/><path class="cls-15" d="M22.33,14.41a1.42,1.42,0,0,1-1.46-1.29,1.26,1.26,0,1,0,2.2,1.11A1.56,1.56,0,0,1,22.33,14.41Z" transform="translate(-5 -8.04)"/></g></g></svg>