<svg xmlns="http://www.w3.org/2000/svg" xmlns:xlink="http://www.w3.org/1999/xlink" viewBox="0 0 765 208.03"><defs><style>.cls-1{isolation:isolate;}.cls-2{fill:#fff;}.cls-3{fill:#bea48a;}.cls-4,.cls-5{fill:#aa8454;}.cls-5{opacity:0.23;}.cls-14,.cls-15,.cls-5,.cls-8{mix-blend-mode:multiply;}.cls-6,.cls-7,.cls-8{fill:#d7b981;}.cls-7{opacity:0.5;mix-blend-mode:screen;}.cls-15,.cls-8{opacity:0.4;}.cls-9{fill:url(#linear-gradient);}.cls-10{fill:url(#linear-gradient-2);}.cls-11{fill:url(#linear-gradient-3);}.cls-12,.cls-14{fill:#db443f;}.cls-13,.cls-15{fill:#fdba48;}.cls-14{opacity:0.19;}.cls-16{fill:#fff8e3;}</style><linearGradient id="linear-gradient" x1="71.08" y1="137.05" x2="222.19" y2="137.05" gradientUnits="userSpaceOnUse"><stop offset="0" stop-color="#e55025"/><stop offset="0.1" stop-color="#e75827"/><stop offset="0.26" stop-color="#ec6e2e"/><stop offset="0.45" stop-color="#f49239"/><stop offset="0.58" stop-color="#faaf42"/><stop offset="1" stop-color="#f9cc10"/></linearGradient><linearGradient id="linear-gradient-2" x1="49.13" y1="120.18" x2="97.72" y2="120.18" xlink:href="#linear-gradient"/><linearGradient id="linear-gradient-3" x1="48.74" y1="159.76" x2="85.18" y2="159.76" xlink:href="#linear-gradient"/></defs><title>842x236</title><g class="cls-1"><g id="Layer_1" data-name="Layer 1"><path class="cls-2" d="M347.67,98.07H326.29l1.84-6.31a3.53,3.53,0,0,0,.07-.66c0-.95-.71-1.43-2.14-1.43h-9.47c-1.71,0-2.76.7-3.14,2.09l-8.82,31.58a3.63,3.63,0,0,0-.07.71c0,.92.69,1.38,2.06,1.38h9.48c1.76,0,2.83-.7,3.21-2.09l1.78-6.41h21.38l-4.57,16.61q-1.92,6.89-7,10.18T313.39,147H296.14q-12.4,0-15.68-3.24a7.53,7.53,0,0,1-2.14-5.61,16.88,16.88,0,0,1,.72-4.57l14.32-52.08a17,17,0,0,1,7-10.17q5.13-3.2,17.53-3.25h17.25q12.39.06,15.68,3.25a7.49,7.49,0,0,1,2.13,5.61,17.17,17.17,0,0,1-.71,4.56Z" transform="translate(-43 -13.93)"/><path class="cls-2" d="M422.93,98.07H401.55l1.84-6.31a3.53,3.53,0,0,0,.07-.66c0-.95-.71-1.43-2.13-1.43h-9.48c-1.71,0-2.76.7-3.14,2.09l-8.82,31.58a3.63,3.63,0,0,0-.07.71q0,1.38,2.07,1.38h9.48c1.75,0,2.82-.7,3.2-2.09l1.78-6.41h21.38l-4.56,16.61q-1.94,6.89-7,10.18T388.65,147H371.4q-12.39,0-15.68-3.24a7.52,7.52,0,0,1-2.13-5.61,16.84,16.84,0,0,1,.71-4.57l14.32-52.08c1.29-4.58,3.61-8,7-10.17s9.26-3.21,17.53-3.25h17.25q12.41.06,15.68,3.25a7.49,7.49,0,0,1,2.13,5.61,16.77,16.77,0,0,1-.71,4.56Z" transform="translate(-43 -13.93)"/><path class="cls-2" d="M459.56,68h36.28L492.63,147h-22.8l.78-14.9h-21L442.1,147H419.3Zm11.92,21.65-14.27,27.24h14Z" transform="translate(-43 -13.93)"/><path class="cls-2" d="M533.09,122.22,526.48,147h-22.8L525.42,68h38.77q12.39.06,15.68,3.25A7.49,7.49,0,0,1,582,76.9a17.17,17.17,0,0,1-.71,4.56L576,100.54q-1.86,6.88-10.55,10.18c-1.47.51-2.28.92-2.42,1.21v0c0,.3.59.66,1.78,1.1q6,2.64,6,7.59a10.7,10.7,0,0,1-.35,2.59L564,147H541.16l6-22.65a3.53,3.53,0,0,0,.07-.66c0-1-.71-1.43-2.14-1.43Zm9-32.53-3.87,14.59h12c1.75,0,2.83-.69,3.2-2.08l2.74-10.42a4.65,4.65,0,0,0,.07-.66c0-1-.72-1.43-2.14-1.43Z" transform="translate(-43 -13.93)"/><path class="cls-2" d="M605,128.26,599.89,147H575.66l5.13-18.7Z" transform="translate(-43 -13.93)"/><path class="cls-2" d="M651.85,147l-3.42-54.44-15,54.44H612.08L633.82,68h30.64l3.36,56.26L702.09,68h30.65L711,147H689.62l15-54.44L672,147Z" transform="translate(-43 -13.93)"/><path class="cls-2" d="M734.66,68h22.81l4.63,33.44L785.19,68H808l-40,53.4L761,147H738.15l7.06-25.63Z" transform="translate(-43 -13.93)"/><path class="cls-2" d="M293.23,181.47h5.32l1.49-7.79h6l-1.5,7.79h3.33v5.27h-4.34l-1.08,5.64h5.42v5.27H301.4l-1.5,7.78H294l1.49-7.78h-5.31l-1.5,7.78h-5.95l1.49-7.78h-3.32v-5.27h4.33l1.09-5.64h-5.42v-5.27h6.43l1.49-7.79h6Zm-2.09,10.91h5.32l1.08-5.64h-5.32Z" transform="translate(-43 -13.93)"/><path class="cls-2" d="M315.48,180.28c.89-.37,1.81-.78,2.77-1.26a31,31,0,0,0,2.82-1.56c.92-.56,1.8-1.16,2.64-1.78a17.62,17.62,0,0,0,2.26-2h4.77v31.75h-6.83V182.57a21.13,21.13,0,0,1-3.07,1.68c-1.13.5-2.23.93-3.3,1.3Z" transform="translate(-43 -13.93)"/><path class="cls-2" d="M371.29,206.08q-7.76,0-11.8-4.31t-4.06-12.23a18.93,18.93,0,0,1,1.24-7,15.17,15.17,0,0,1,3.39-5.22,14.22,14.22,0,0,1,5.13-3.23,18.6,18.6,0,0,1,6.46-1.1,20.57,20.57,0,0,1,3.67.3,23.58,23.58,0,0,1,2.88.69,13.65,13.65,0,0,1,2.07.8c.55.27.94.49,1.19.64l-2.07,5.77a17.2,17.2,0,0,0-3.41-1.33,16.55,16.55,0,0,0-4.42-.55,9.92,9.92,0,0,0-3.23.55,7.29,7.29,0,0,0-2.79,1.77,8.79,8.79,0,0,0-2,3.13,13.22,13.22,0,0,0-.73,4.68,16.76,16.76,0,0,0,.48,4.1,8.7,8.7,0,0,0,1.55,3.27,7.44,7.44,0,0,0,2.82,2.18,10.12,10.12,0,0,0,4.22.8,19,19,0,0,0,5-.62,10.24,10.24,0,0,0,1.7-.57l1.32-.59,2,5.72a15.88,15.88,0,0,1-4.26,1.65A24.69,24.69,0,0,1,371.29,206.08Z" transform="translate(-43 -13.93)"/><path class="cls-2" d="M397.08,180.69a15.8,15.8,0,0,1,5,.69,7.93,7.93,0,0,1,3.23,2,7.33,7.33,0,0,1,1.72,3.12,15.61,15.61,0,0,1,.5,4.08v14.2q-1.47.31-4.08.75a39.14,39.14,0,0,1-6.32.44,20.4,20.4,0,0,1-4.24-.41,9.13,9.13,0,0,1-3.27-1.36,6.11,6.11,0,0,1-2.11-2.45,8.4,8.4,0,0,1-.73-3.71,7.09,7.09,0,0,1,.84-3.57,6.53,6.53,0,0,1,2.27-2.34,10.29,10.29,0,0,1,3.25-1.26,18.3,18.3,0,0,1,3.81-.39,20.73,20.73,0,0,1,2.36.12,10.31,10.31,0,0,1,1.67.29v-.64a3.77,3.77,0,0,0-1-2.79,5.14,5.14,0,0,0-3.67-1.06,23.13,23.13,0,0,0-3.44.26,14.63,14.63,0,0,0-2.93.71l-.87-5.5c.4-.12.89-.25,1.49-.39s1.24-.26,1.95-.37,1.44-.19,2.22-.27A23,23,0,0,1,397.08,180.69Zm.55,20c.67,0,1.31,0,1.92,0a11.46,11.46,0,0,0,1.47-.14v-5.17c-.28-.06-.69-.12-1.24-.19a14,14,0,0,0-1.51-.09,12.89,12.89,0,0,0-1.81.12,4.65,4.65,0,0,0-1.49.43,2.69,2.69,0,0,0-1,.87,2.49,2.49,0,0,0-.36,1.38,2.35,2.35,0,0,0,1.07,2.22A6,6,0,0,0,397.63,200.67Z" transform="translate(-43 -13.93)"/><path class="cls-2" d="M430.2,187.38c-.61-.15-1.32-.31-2.15-.48a13.14,13.14,0,0,0-2.66-.25,13.52,13.52,0,0,0-1.53.11,8.06,8.06,0,0,0-1.35.26v18.41h-6.83V182.62A41.84,41.84,0,0,1,420,181.4a25,25,0,0,1,5.57-.57c.36,0,.81,0,1.32.07s1,.11,1.56.18,1,.17,1.56.28a7.08,7.08,0,0,1,1.33.39Z" transform="translate(-43 -13.93)"/><path class="cls-2" d="M459,200a10.11,10.11,0,0,0,2.49-.25,4.55,4.55,0,0,0,1.58-.69,2.26,2.26,0,0,0,.83-1,3.71,3.71,0,0,0,.23-1.33,3.05,3.05,0,0,0-1.47-2.58,20.93,20.93,0,0,0-5-2.23,32.66,32.66,0,0,1-3.11-1.26,11.14,11.14,0,0,1-2.8-1.79,8.29,8.29,0,0,1-2-2.61,8.13,8.13,0,0,1-.78-3.73,9.2,9.2,0,0,1,.82-4,8.37,8.37,0,0,1,2.34-3,10.78,10.78,0,0,1,3.66-1.91,16.61,16.61,0,0,1,4.86-.66,19.5,19.5,0,0,1,9.39,2.2l-2.06,5.64a19.51,19.51,0,0,0-3-1.22A12.86,12.86,0,0,0,461,179a7.24,7.24,0,0,0-3.69.71,2.4,2.4,0,0,0-1.12,2.18,2.57,2.57,0,0,0,.41,1.47,4,4,0,0,0,1.17,1.07,10.08,10.08,0,0,0,1.74.87c.66.26,1.38.53,2.18.81,1.64.61,3.08,1.21,4.3,1.81a11.52,11.52,0,0,1,3.05,2.08,7.6,7.6,0,0,1,1.81,2.79,11.23,11.23,0,0,1,.59,3.9,8.25,8.25,0,0,1-3.11,6.89q-3.12,2.46-9.39,2.46a25.73,25.73,0,0,1-3.81-.26,23.94,23.94,0,0,1-3-.61,18.47,18.47,0,0,1-2.24-.78c-.63-.28-1.15-.54-1.58-.78l2-5.68a18.58,18.58,0,0,0,3.51,1.39A17.89,17.89,0,0,0,459,200Z" transform="translate(-43 -13.93)"/><path class="cls-2" d="M501,193.34a15.67,15.67,0,0,1-.83,5.2,11.25,11.25,0,0,1-2.38,4,10.65,10.65,0,0,1-3.73,2.59,13.3,13.3,0,0,1-9.72,0,10.65,10.65,0,0,1-3.73-2.59,11.8,11.8,0,0,1-2.43-4,14.93,14.93,0,0,1-.87-5.2,14.33,14.33,0,0,1,.9-5.18,11.7,11.7,0,0,1,2.47-4,11.21,11.21,0,0,1,3.76-2.56,12.1,12.1,0,0,1,4.74-.92,12.24,12.24,0,0,1,4.79.92,11,11,0,0,1,3.73,2.56,11.62,11.62,0,0,1,2.43,4A14.78,14.78,0,0,1,501,193.34Zm-7,0a8.48,8.48,0,0,0-1.27-5,4.09,4.09,0,0,0-3.59-1.81,4.16,4.16,0,0,0-3.62,1.81,8.41,8.41,0,0,0-1.28,5,8.66,8.66,0,0,0,1.28,5,4.15,4.15,0,0,0,3.62,1.85,4.07,4.07,0,0,0,3.59-1.85A8.74,8.74,0,0,0,494,193.34Z" transform="translate(-43 -13.93)"/><path class="cls-2" d="M507,193.38a14.29,14.29,0,0,1,.84-4.92,11.82,11.82,0,0,1,2.46-4,11.48,11.48,0,0,1,3.89-2.73,12.89,12.89,0,0,1,5.22-1A16.83,16.83,0,0,1,523,181a17.93,17.93,0,0,1,3.12,1l-1.42,5.45a20.31,20.31,0,0,0-2.11-.64,11.27,11.27,0,0,0-2.57-.27,5.39,5.39,0,0,0-4.51,1.88,7.73,7.73,0,0,0-1.49,4.94,8,8,0,0,0,1.4,5c.93,1.2,2.56,1.79,4.88,1.79a17,17,0,0,0,2.65-.23,11.57,11.57,0,0,0,2.62-.73l1,5.59a17.17,17.17,0,0,1-3,.87,19.91,19.91,0,0,1-3.94.37,14.76,14.76,0,0,1-5.68-1,10.71,10.71,0,0,1-3.92-2.68,10.47,10.47,0,0,1-2.24-4A16.78,16.78,0,0,1,507,193.38Z" transform="translate(-43 -13.93)"/><path class="cls-2" d="M540.48,174.37a3.76,3.76,0,0,1-1.21,3,4.37,4.37,0,0,1-5.73,0,4.23,4.23,0,0,1,0-5.92,4.37,4.37,0,0,1,5.73,0A3.76,3.76,0,0,1,540.48,174.37Zm-.64,31.06H533V181.34h6.83Z" transform="translate(-43 -13.93)"/><path class="cls-2" d="M556.84,180.69a15.8,15.8,0,0,1,5,.69,7.93,7.93,0,0,1,3.23,2,7.33,7.33,0,0,1,1.72,3.12,15.61,15.61,0,0,1,.5,4.08v14.2q-1.47.31-4.08.75a39.14,39.14,0,0,1-6.32.44,20.4,20.4,0,0,1-4.24-.41,9.13,9.13,0,0,1-3.27-1.36,6.11,6.11,0,0,1-2.11-2.45,8.4,8.4,0,0,1-.74-3.71,7.09,7.09,0,0,1,.85-3.57,6.53,6.53,0,0,1,2.27-2.34,10.29,10.29,0,0,1,3.25-1.26,18.23,18.23,0,0,1,3.81-.39,20.73,20.73,0,0,1,2.36.12,10.31,10.31,0,0,1,1.67.29v-.64a3.74,3.74,0,0,0-1.06-2.79,5.1,5.1,0,0,0-3.66-1.06,23.13,23.13,0,0,0-3.44.26,14.63,14.63,0,0,0-2.93.71l-.87-5.5c.4-.12.89-.25,1.49-.39s1.24-.26,2-.37,1.44-.19,2.22-.27A23,23,0,0,1,556.84,180.69Zm.55,20c.67,0,1.31,0,1.92,0a11.46,11.46,0,0,0,1.47-.14v-5.17c-.28-.06-.69-.12-1.24-.19A14,14,0,0,0,558,195a12.89,12.89,0,0,0-1.81.12,4.65,4.65,0,0,0-1.49.43,2.69,2.69,0,0,0-1,.87,2.49,2.49,0,0,0-.36,1.38,2.33,2.33,0,0,0,1.07,2.22A6,6,0,0,0,557.39,200.67Z" transform="translate(-43 -13.93)"/><path class="cls-2" d="M585.06,205.89a16.85,16.85,0,0,1-4.83-.64,7.08,7.08,0,0,1-2.94-1.67,5.63,5.63,0,0,1-1.46-2.61,14.13,14.13,0,0,1-.39-3.46V171l6.82-1.1v26.25a9.07,9.07,0,0,0,.14,1.65,2.85,2.85,0,0,0,.53,1.24,2.81,2.81,0,0,0,1.12.83,6.27,6.27,0,0,0,2,.41Z" transform="translate(-43 -13.93)"/><path class="cls-2" d="M614.75,173.32q7.1,0,10.9,2.49t3.81,8.18q0,5.73-3.85,8.27t-11,2.55h-2.24v10.62h-7.15V174.14a41.21,41.21,0,0,1,4.95-.64C611.91,173.38,613.43,173.32,614.75,173.32Zm.46,6.09c-.52,0-1,0-1.54.05l-1.3.09v9.16h2.24a12.2,12.2,0,0,0,5.59-1,3.87,3.87,0,0,0,1.88-3.75,4.51,4.51,0,0,0-.48-2.2,3.64,3.64,0,0,0-1.38-1.4,6,6,0,0,0-2.17-.73A17.76,17.76,0,0,0,615.21,179.41Z" transform="translate(-43 -13.93)"/><path class="cls-2" d="M645.81,205.89a17,17,0,0,1-4.83-.64,7,7,0,0,1-2.93-1.67,5.56,5.56,0,0,1-1.47-2.61,14.13,14.13,0,0,1-.39-3.46V171l6.83-1.1v26.25a9.13,9.13,0,0,0,.13,1.65,3,3,0,0,0,.53,1.24,2.88,2.88,0,0,0,1.12.83,6.28,6.28,0,0,0,2,.41Z" transform="translate(-43 -13.93)"/><path class="cls-2" d="M661.94,180.69a15.8,15.8,0,0,1,5,.69,7.93,7.93,0,0,1,3.23,2,7.33,7.33,0,0,1,1.72,3.12,15.61,15.61,0,0,1,.5,4.08v14.2q-1.47.31-4.08.75a39.14,39.14,0,0,1-6.32.44,20.4,20.4,0,0,1-4.24-.41,9.21,9.21,0,0,1-3.27-1.36,6.11,6.11,0,0,1-2.11-2.45,8.4,8.4,0,0,1-.73-3.71,7.09,7.09,0,0,1,.84-3.57,6.53,6.53,0,0,1,2.27-2.34,10.29,10.29,0,0,1,3.25-1.26,18.23,18.23,0,0,1,3.81-.39,20.73,20.73,0,0,1,2.36.12,10.31,10.31,0,0,1,1.67.29v-.64a3.74,3.74,0,0,0-1.06-2.79,5.1,5.1,0,0,0-3.66-1.06,23.13,23.13,0,0,0-3.44.26,14.63,14.63,0,0,0-2.93.71l-.87-5.5c.4-.12.89-.25,1.49-.39s1.24-.26,2-.37,1.44-.19,2.22-.27A23,23,0,0,1,661.94,180.69Zm.55,20c.67,0,1.31,0,1.92,0a11.46,11.46,0,0,0,1.47-.14v-5.17c-.28-.06-.69-.12-1.24-.19a14,14,0,0,0-1.51-.09,13,13,0,0,0-1.81.12,4.65,4.65,0,0,0-1.49.43,2.69,2.69,0,0,0-1,.87,2.49,2.49,0,0,0-.36,1.38,2.33,2.33,0,0,0,1.07,2.22A6,6,0,0,0,662.49,200.67Z" transform="translate(-43 -13.93)"/><path class="cls-2" d="M680.31,175.33l6.83-1.1v7.11h8.2V187h-8.2v8.47a6.8,6.8,0,0,0,.75,3.44c.51.85,1.52,1.28,3.05,1.28a13.85,13.85,0,0,0,2.27-.2,11.38,11.38,0,0,0,2.13-.58l1,5.32a21.23,21.23,0,0,1-2.75.87,16.28,16.28,0,0,1-3.71.36,12.32,12.32,0,0,1-4.63-.75,7.31,7.31,0,0,1-2.93-2.11,7.86,7.86,0,0,1-1.53-3.27,18.86,18.86,0,0,1-.44-4.27Z" transform="translate(-43 -13.93)"/><path class="cls-2" d="M713.25,169.88a15,15,0,0,1,3.53.39,16.26,16.26,0,0,1,2.47.76l-1.32,5.45a9,9,0,0,0-2-.62,10.37,10.37,0,0,0-2-.21,5.6,5.6,0,0,0-2.09.35,3.2,3.2,0,0,0-1.32.94,3.62,3.62,0,0,0-.69,1.42,7.18,7.18,0,0,0-.21,1.78v1.2h8.43V187h-8.43v18.41h-6.82V180.05a10.26,10.26,0,0,1,2.63-7.42Q708.08,169.89,713.25,169.88Z" transform="translate(-43 -13.93)"/><path class="cls-2" d="M746.24,193.34a15.67,15.67,0,0,1-.83,5.2,11.25,11.25,0,0,1-2.38,4,10.65,10.65,0,0,1-3.73,2.59,12.48,12.48,0,0,1-4.88.92,12.34,12.34,0,0,1-4.83-.92,10.6,10.6,0,0,1-3.74-2.59,11.8,11.8,0,0,1-2.43-4,14.93,14.93,0,0,1-.87-5.2,14.55,14.55,0,0,1,.89-5.18,11.88,11.88,0,0,1,2.48-4,11.21,11.21,0,0,1,3.76-2.56,12.1,12.1,0,0,1,4.74-.92,12.28,12.28,0,0,1,4.79.92,11,11,0,0,1,3.73,2.56,11.62,11.62,0,0,1,2.43,4A14.78,14.78,0,0,1,746.24,193.34Zm-7,0a8.56,8.56,0,0,0-1.27-5,4.09,4.09,0,0,0-3.59-1.81,4.16,4.16,0,0,0-3.62,1.81,8.41,8.41,0,0,0-1.28,5,8.66,8.66,0,0,0,1.28,5,4.15,4.15,0,0,0,3.62,1.85,4.07,4.07,0,0,0,3.59-1.85A8.82,8.82,0,0,0,739.28,193.34Z" transform="translate(-43 -13.93)"/><path class="cls-2" d="M768,187.38q-.91-.23-2.16-.48a13.11,13.11,0,0,0-2.65-.25,13.68,13.68,0,0,0-1.54.11,8.06,8.06,0,0,0-1.35.26v18.41h-6.83V182.62a42.57,42.57,0,0,1,4.33-1.22,25,25,0,0,1,5.57-.57c.37,0,.81,0,1.33.07s1,.11,1.55.18,1,.17,1.56.28a7.08,7.08,0,0,1,1.33.39Z" transform="translate(-43 -13.93)"/><path class="cls-2" d="M787.93,192.65a9.35,9.35,0,0,0-.85-4.67,3.12,3.12,0,0,0-2.9-1.38c-.43,0-.88,0-1.33.07l-1.33.16v18.6h-6.83V182.16q.87-.22,2-.48c.78-.17,1.6-.32,2.47-.46s1.77-.24,2.68-.32,1.82-.11,2.71-.11a11.46,11.46,0,0,1,4.24.66A9.47,9.47,0,0,1,791.5,183a11.89,11.89,0,0,1,3.37-1.65,11.72,11.72,0,0,1,3.51-.59,12,12,0,0,1,4.74.8,7.2,7.2,0,0,1,3,2.26,8.7,8.7,0,0,1,1.51,3.49,22.81,22.81,0,0,1,.41,4.49v13.6h-6.83V192.65a9.48,9.48,0,0,0-.84-4.67,3.15,3.15,0,0,0-2.91-1.38,6.4,6.4,0,0,0-1.54.28,5.75,5.75,0,0,0-1.63.69,10.51,10.51,0,0,1,.42,2.22q.09,1.17.09,2.49v13.15h-6.83Z" transform="translate(-43 -13.93)"/><path class="cls-3" d="M232.4,71.92c3.13.89,4.31,18.22-7,22.56-17.93,6.88-22.36-12.68-22.36-12.68S223.69,69.46,232.4,71.92Z" transform="translate(-43 -13.93)"/><path class="cls-4" d="M229.63,76.54c2.4-5.78,5.23,7.34-1,12.65-10.11,8.6-17.07-.53-17.07-.53S225.67,86.12,229.63,76.54Z" transform="translate(-43 -13.93)"/><path class="cls-5" d="M213.33,90.4a11.6,11.6,0,0,1-1.77-1.74s14.11-2.54,18.07-12.12c1.53-3.68,3.23.3,2.65,5C226.82,88,217.08,89.89,213.33,90.4Z" transform="translate(-43 -13.93)"/><path class="cls-6" d="M204.15,34.89c-6.74-3.95,22.93,27.47-19.29,33.59-4.64.67-1.13,17.94,11.1,15.12C211.87,82.5,238.1,54.83,204.15,34.89Z" transform="translate(-43 -13.93)"/><path class="cls-7" d="M183.27,75c-.83-3.27-.28-6.26,1.59-6.53,36.93-5.36,18.86-30.07,18.26-33.53C214.84,48.85,216.88,68.76,183.27,75Z" transform="translate(-43 -13.93)"/><path class="cls-8" d="M198.89,79.8c8.65-4.81,31.69-24.46,5.51-44.75C238,55,211.83,82.51,196,83.6a10.11,10.11,0,0,1-5.86-.25A61.12,61.12,0,0,0,198.89,79.8Z" transform="translate(-43 -13.93)"/><path class="cls-8" d="M190.87,67.32c.76-.18,1.48-.38,2.18-.58,2.28,2,5.39,6.19,4,13.64C197.1,80.38,197.31,71.24,190.87,67.32Zm15.2-25.55c.11.3.23.61.34.92a5.82,5.82,0,0,1,4.65-1.86A4.3,4.3,0,0,0,206.07,41.77Zm-3.85,20.64c-.5.38-1,.74-1.62,1.1,6.29,2.55,8.39,10.34,8.39,10.34C208.27,67.17,204.9,63.94,202.22,62.41ZM217.07,60a10.53,10.53,0,0,0-9.68-4.59,12.46,12.46,0,0,1-.71,1.76C212,55.74,217.07,60,217.07,60Zm-1.22-10.54c-3.65-2.66-6.36-1.83-7.92-.76,0,.37.07.74.1,1.11C211.09,47.38,215.85,49.48,215.85,49.48Z" transform="translate(-43 -13.93)"/><path class="cls-3" d="M45.15,72.84c-3.14.89-4.31,18.22,7,22.56C70.06,102.28,74.5,82.71,74.5,82.71S53.86,70.38,45.15,72.84Z" transform="translate(-43 -13.93)"/><path class="cls-4" d="M47.91,77.46c-2.39-5.78-5.22,7.34,1,12.64C59,98.71,66,89.58,66,89.58S51.88,87,47.91,77.46Z" transform="translate(-43 -13.93)"/><path class="cls-5" d="M64.21,91.32A11.43,11.43,0,0,0,66,89.58S51.88,87,47.91,77.46c-1.52-3.68-3.22.3-2.64,5.05C50.72,88.91,60.47,90.81,64.21,91.32Z" transform="translate(-43 -13.93)"/><path class="cls-6" d="M69.11,34c6.74-4-22.93,27.46,19.29,33.58,4.64.67,1.14,17.94-11.1,15.13C61.39,81.58,35.16,53.91,69.11,34Z" transform="translate(-43 -13.93)"/><path class="cls-7" d="M90,74.09c.83-3.27.29-6.26-1.59-6.53C51.47,62.2,69.54,37.5,70.14,34,58.43,47.93,56.38,67.84,90,74.09Z" transform="translate(-43 -13.93)"/><path class="cls-8" d="M74.38,78.88c-8.65-4.8-31.7-24.46-5.52-44.75C35.3,54.05,61.43,81.59,77.3,82.69a10.19,10.19,0,0,0,5.86-.26A60.6,60.6,0,0,1,74.38,78.88Z" transform="translate(-43 -13.93)"/><path class="cls-8" d="M76.16,79.46c-1.34-7.45,1.77-11.64,4-13.64.7.2,1.43.4,2.18.59C76,70.32,76.16,79.46,76.16,79.46Zm-14-39.55a5.81,5.81,0,0,1,4.65,1.86c.11-.31.23-.62.35-.92A4.32,4.32,0,0,0,62.2,39.91Zm2.07,33s2.1-7.79,8.39-10.34A18.33,18.33,0,0,1,71,61.49C68.37,63,65,66.25,64.27,72.93Zm2.31-16.66a12.46,12.46,0,0,1-.71-1.76,10.56,10.56,0,0,0-9.68,4.59S61.25,54.82,66.58,56.27Zm-1.34-7.36c0-.37.05-.74.1-1.11-1.57-1.07-4.27-1.9-7.93.76C57.41,48.56,62.18,46.46,65.24,48.91Z" transform="translate(-43 -13.93)"/><path d="M222.23,134.09c0,46.49-40.12,86.74-86.57,87.84-51.83,1.22-90.24-37.21-87.8-84.79,1.14-22.32,10.78-41.78,25-56.63,15.35-16.05,36.21-26.62,62.81-26.94C182.12,53,222.23,87.6,222.23,134.09Z" transform="translate(-43 -13.93)"/><path class="cls-9" d="M102.59,59.86c-11.51,5-23.31,12.63-31.32,22.51.14-.17,1.6,0,1.8,0l14.75.09,23.88.14,26,.16,21.17.13h2.92c6.75,0,13.65,0,19.94,2.64A19.56,19.56,0,0,1,193.5,100c1.14,5.64.43,11.56-1,17.1-.17.64-1.95,8.2-2.73,8.2H158.86c1.78-4.54,3.22-11-1.51-14.33-2.26-1.58-5.19-2-7.9-2-3.89-.05-8.52-.09-12.23,1.18-1.11,0-2.77,1.24-3.64,1.84a16.39,16.39,0,0,0-3.19,2.92c-1.93,2.31-2.71,4.83-3.49,7.67-2.06,7.46-4.32,14.88-6.48,22.31q-1.65,5.75-3.32,11.47c-1.2,4.12-2.68,8.92.77,12.45,2.39,2.44,6.12,3,9.38,3a35.86,35.86,0,0,0,12-1.84c5.32-2,8.18-6.37,9.7-11.67.08-.25,1.4-4.73,1.25-4.73h32.12c-3.06,17.69-12.68,34.37-29.9,41.44-8.86,3.63-17.49,3.63-26.95,3.63H71.08A74.2,74.2,0,0,0,86.77,210.5C107,222.06,131.51,224.77,154,219c1.05-.27,2.09-.55,3.12-.86A93.6,93.6,0,0,0,211.79,174c12.8-23.27,14.27-54.38,1.71-78.06-5.4-10.2-13.16-19.87-22.51-26.74a88.63,88.63,0,0,0-31-14.7A83,83,0,0,0,140,52.16a95.38,95.38,0,0,0-37.39,7.7" transform="translate(-43 -13.93)"/><path class="cls-10" d="M52.66,113.52c-2,3.14-3.53,13.33-3.53,13.33H93a51.12,51.12,0,0,1,4.7-13.33Z" transform="translate(-43 -13.93)"/><path class="cls-11" d="M48.74,153.49A70,70,0,0,0,51.49,166H82.44c0-5.48,2.74-12.54,2.74-12.54Z" transform="translate(-43 -13.93)"/><rect class="cls-12" x="49.62" y="32.37" width="28.42" height="2.68"/><path class="cls-12" d="M103,53.2,83.13,56.52a2.57,2.57,0,0,1-3-2.53V41.34a2.57,2.57,0,0,1,3-2.53L103,42.13a2.58,2.58,0,0,1,2.14,2.54v6A2.58,2.58,0,0,1,103,53.2Z" transform="translate(-43 -13.93)"/><path class="cls-13" d="M82.69,55.12A1.12,1.12,0,0,1,81.58,54V41.34a1.12,1.12,0,0,1,1.31-1.11l19.83,3.33a1.13,1.13,0,0,1,.94,1.11v6a1.13,1.13,0,0,1-.94,1.11L82.89,55.1Zm0-13.94a.16.16,0,0,0-.18.16V54a.16.16,0,0,0,.15.16h0l19.83-3.33a.15.15,0,0,0,.13-.16v-6a.15.15,0,0,0-.13-.16L82.73,41.18Z" transform="translate(-43 -13.93)"/><path class="cls-14" d="M103,42.13l-3.78-.63a46.13,46.13,0,0,1-19.05,11V54a2.57,2.57,0,0,0,3,2.53L103,53.2a2.58,2.58,0,0,0,2.14-2.54v-6A2.58,2.58,0,0,0,103,42.13Z" transform="translate(-43 -13.93)"/><rect class="cls-12" x="150.18" y="46.3" width="28.42" height="2.68" transform="translate(285.77 81.35) rotate(180)"/><path class="cls-12" d="M168.25,53.2l19.83,3.32a2.57,2.57,0,0,0,3-2.53V41.34a2.57,2.57,0,0,0-3-2.53l-19.83,3.32a2.58,2.58,0,0,0-2.14,2.54v6A2.58,2.58,0,0,0,168.25,53.2Z" transform="translate(-43 -13.93)"/><path class="cls-13" d="M188.32,55.1l-19.83-3.33a1.13,1.13,0,0,1-.94-1.11v-6a1.13,1.13,0,0,1,.94-1.11l19.83-3.33a1.12,1.12,0,0,1,1.31,1.11V54a1.13,1.13,0,0,1-1.12,1.13Zm.16-13.92-19.83,3.33a.15.15,0,0,0-.13.16v6a.15.15,0,0,0,.13.16l19.83,3.33h0a.16.16,0,0,0,.16-.16V41.34a.16.16,0,0,0-.18-.16Z" transform="translate(-43 -13.93)"/><path class="cls-14" d="M168.25,42.13,172,41.5a46.13,46.13,0,0,0,19.05,11V54a2.57,2.57,0,0,1-3,2.53L168.25,53.2a2.58,2.58,0,0,1-2.14-2.54v-6A2.58,2.58,0,0,1,168.25,42.13Z" transform="translate(-43 -13.93)"/><circle class="cls-13" cx="92.7" cy="6.7" r="6.7"/><path class="cls-15" d="M130.94,15.92a6.69,6.69,0,1,0,11.39,5.65C138,21,133.29,19.22,130.94,15.92Z" transform="translate(-43 -13.93)"/><ellipse class="cls-12" cx="92.6" cy="21.32" rx="20.62" ry="13.13"/><path class="cls-14" d="M142.8,29c-5.94-.9-12.77-1.81-17.5-5.11C119.13,26.14,115,30.38,115,35.25c0,7.25,9.23,13.13,20.62,13.13s20.63-5.88,20.63-13.13a9,9,0,0,0-1.32-4.63C150.79,30.26,146.69,29.57,142.8,29Z" transform="translate(-43 -13.93)"/><path class="cls-12" d="M135.6,29.77c-22.88,0-29.07,8.93-29.07,8.93l4,18.57s6.39,3,25.12,3,25.13-3,25.13-3l4-18.57S158.49,29.77,135.6,29.77Z" transform="translate(-43 -13.93)"/><path class="cls-12" d="M135.6,29.77c-22.88,0-29.07,8.93-29.07,8.93l4,18.57s6.39,3,25.12,3,25.13-3,25.13-3l4-18.57S158.49,29.77,135.6,29.77Z" transform="translate(-43 -13.93)"/><path class="cls-13" d="M106.94,40.62l.5,2.35c4.58-2.84,13.19-6.24,28.16-6.24s23.59,3.4,28.17,6.24l.5-2.35c-4.45-2.9-13.13-6.56-28.67-6.56S111.39,37.72,106.94,40.62Z" transform="translate(-43 -13.93)"/><path class="cls-13" d="M109.93,54.69l.33,1.53c4.22,1,12.16,2.32,25.34,2.32s21.13-1.29,25.35-2.32l.33-1.53c-4.35,1-12.41,2.32-25.68,2.32S114.28,55.73,109.93,54.69Z" transform="translate(-43 -13.93)"/><path class="cls-14" d="M131.63,46.23C124,44.12,116.37,40.94,111.05,35a15.1,15.1,0,0,0-4.52,3.68l4,18.57s6.39,3,25.12,3,25.13-3,25.13-3l1.58-7.42A103.23,103.23,0,0,1,131.63,46.23Z" transform="translate(-43 -13.93)"/><circle class="cls-13" cx="135.7" cy="46.3" r="7.79" transform="translate(25.33 158.95) rotate(-80.82)"/><path class="cls-16" d="M130.76,47.91V46.85h4.44V44.57h-2.28a17.2,17.2,0,0,1-.89,1.71l-.25-.12c-.11-.08-.35-.23-.73-.45A13,13,0,0,0,132.64,42l1.09.2c0,.22-.15.52-.28.9-.06.21-.1.36-.12.44h1.87v-2h1.14v2h3.29v1.06h-3.29v2.28h4.1v1.06h-4.1v3.21H135.2V47.91Z" transform="translate(-43 -13.93)"/><path class="cls-15" d="M138.39,49a7.78,7.78,0,0,1-8-7.1,6.87,6.87,0,0,0-1.62,4.44A6.94,6.94,0,0,0,142.43,48,8.32,8.32,0,0,1,138.39,49Z" transform="translate(-43 -13.93)"/></g></g></svg>