<svg xmlns="http://www.w3.org/2000/svg" xmlns:xlink="http://www.w3.org/1999/xlink" viewBox="0 0 257.72 77"><defs><style>.cls-1{isolation:isolate;}.cls-2{fill:#fff;}.cls-3{fill:#bea48a;}.cls-4,.cls-5{fill:#aa8454;}.cls-5{opacity:0.23;}.cls-14,.cls-15,.cls-5,.cls-8{mix-blend-mode:multiply;}.cls-6,.cls-7,.cls-8{fill:#d7b981;}.cls-7{opacity:0.5;mix-blend-mode:screen;}.cls-15,.cls-8{opacity:0.4;}.cls-9{fill:url(#linear-gradient);}.cls-10{fill:url(#linear-gradient-2);}.cls-11{fill:url(#linear-gradient-3);}.cls-12,.cls-14{fill:#db443f;}.cls-13,.cls-15{fill:#fdba48;}.cls-14{opacity:0.19;}.cls-16{fill:#fff8e3;}</style><linearGradient id="linear-gradient" x1="20.51" y1="48.78" x2="76.32" y2="48.78" gradientUnits="userSpaceOnUse"><stop offset="0" stop-color="#e55025"/><stop offset="0.1" stop-color="#e75827"/><stop offset="0.26" stop-color="#ec6e2e"/><stop offset="0.45" stop-color="#f49239"/><stop offset="0.58" stop-color="#faaf42"/><stop offset="1" stop-color="#f9cc10"/></linearGradient><linearGradient id="linear-gradient-2" x1="12.4" y1="42.55" x2="30.35" y2="42.55" xlink:href="#linear-gradient"/><linearGradient id="linear-gradient-3" x1="12.26" y1="57.17" x2="25.72" y2="57.17" xlink:href="#linear-gradient"/></defs><title>logo banner</title><g class="cls-1"><g id="Layer_1" data-name="Layer 1"><path class="cls-2" d="M116,36.32h-7l.6-2.08a1,1,0,0,0,0-.22c0-.31-.24-.47-.71-.47h-3.12a.94.94,0,0,0-1,.69l-2.91,10.42a1,1,0,0,0,0,.24c0,.3.22.45.68.45h3.13a.94.94,0,0,0,1-.69l.59-2.11h7L112.75,48a5.57,5.57,0,0,1-2.31,3.35c-1.12.71-3,1.06-5.78,1.08H99c-2.73,0-4.45-.37-5.17-1.08a2.46,2.46,0,0,1-.71-1.85,5.47,5.47,0,0,1,.24-1.5l4.72-17.19a5.57,5.57,0,0,1,2.31-3.35c1.12-.71,3-1.06,5.78-1.07h5.69c2.73,0,4.45.36,5.18,1.07a2.5,2.5,0,0,1,.7,1.85,5.47,5.47,0,0,1-.24,1.5Z" transform="translate(-10.14 -3.14)"/><path class="cls-2" d="M140.8,36.32h-7.05l.61-2.08a2,2,0,0,0,0-.22c0-.31-.23-.47-.7-.47h-3.13a.94.94,0,0,0-1,.69L126.6,44.66a2.12,2.12,0,0,0,0,.24c0,.3.23.45.68.45h3.13a1,1,0,0,0,1.06-.69l.58-2.11h7.06L137.58,48a5.6,5.6,0,0,1-2.3,3.35c-1.13.71-3.06,1.06-5.79,1.08H123.8c-2.73,0-4.45-.37-5.17-1.08a2.46,2.46,0,0,1-.71-1.85,5.47,5.47,0,0,1,.24-1.5l4.72-17.19a5.65,5.65,0,0,1,2.31-3.35c1.13-.71,3.06-1.06,5.78-1.07h5.7c2.72,0,4.45.36,5.17,1.07a2.46,2.46,0,0,1,.7,1.85,5.43,5.43,0,0,1-.23,1.5Z" transform="translate(-10.14 -3.14)"/><path class="cls-2" d="M152.89,26.42h12l-1.06,26h-7.52l.26-4.92H149.6l-2.47,4.92H139.6Zm3.93,7.14-4.7,9h4.63Z" transform="translate(-10.14 -3.14)"/><path class="cls-2" d="M177.15,44.29,175,52.46h-7.52l7.17-26h12.79c2.73,0,4.45.36,5.18,1.07a2.46,2.46,0,0,1,.7,1.85,5.83,5.83,0,0,1-.23,1.5l-1.74,6.3a5.13,5.13,0,0,1-3.49,3.36c-.48.17-.75.3-.79.4h0c0,.1.19.22.58.37a2.74,2.74,0,0,1,2,2.5,3.74,3.74,0,0,1-.11.85l-2.17,7.83h-7.52l2-7.48a2,2,0,0,0,0-.22c0-.31-.23-.47-.71-.47Zm3-10.73-1.28,4.81h4a.94.94,0,0,0,1-.69l.91-3.43c0-.09,0-.16,0-.22,0-.31-.24-.47-.71-.47Z" transform="translate(-10.14 -3.14)"/><path class="cls-2" d="M200.89,46.29l-1.7,6.17h-8l1.69-6.17Z" transform="translate(-10.14 -3.14)"/><path class="cls-2" d="M216.34,52.46l-1.13-18-4.94,18h-7.05l7.17-26H220.5L221.61,45l11.31-18.56H243l-7.17,26H228.8l4.94-18L223,52.46Z" transform="translate(-10.14 -3.14)"/><path class="cls-2" d="M243.66,26.42h7.53l1.53,11,7.62-11h7.52L254.67,44l-2.33,8.42h-7.53L247.14,44Z" transform="translate(-10.14 -3.14)"/><path class="cls-2" d="M98,63.84h1.75l.5-2.57h2l-.49,2.57h1.1v1.74h-1.44L101,67.44h1.79v1.74H100.7l-.49,2.57h-2l.49-2.57H97l-.5,2.57h-2L95,69.18h-1.1V67.44h1.43l.36-1.86H93.92V63.84H96l.5-2.57h2Zm-.69,3.6h1.75l.36-1.86H97.68Z" transform="translate(-10.14 -3.14)"/><path class="cls-2" d="M105.35,63.45c.29-.12.6-.26.91-.42a8.4,8.4,0,0,0,.93-.51,9.45,9.45,0,0,0,.87-.59,6.09,6.09,0,0,0,.75-.66h1.57V71.75h-2.25V64.2a6.46,6.46,0,0,1-1,.56c-.37.16-.74.31-1.09.43Z" transform="translate(-10.14 -3.14)"/><path class="cls-2" d="M123.76,72a5.08,5.08,0,0,1-3.89-1.42,5.68,5.68,0,0,1-1.34-4,6.27,6.27,0,0,1,.41-2.32,5,5,0,0,1,1.12-1.72,4.64,4.64,0,0,1,1.69-1.07,6.19,6.19,0,0,1,2.13-.36,6.36,6.36,0,0,1,1.21.1,6.46,6.46,0,0,1,1,.23,4.64,4.64,0,0,1,.68.26l.39.21-.68,1.91a5.12,5.12,0,0,0-1.13-.44,5.4,5.4,0,0,0-1.46-.18,3.23,3.23,0,0,0-1.06.18,2.29,2.29,0,0,0-.92.58,2.84,2.84,0,0,0-.65,1,4.33,4.33,0,0,0-.24,1.54,5.32,5.32,0,0,0,.16,1.35,3,3,0,0,0,.51,1.08,2.59,2.59,0,0,0,.93.72,3.29,3.29,0,0,0,1.39.26,6.51,6.51,0,0,0,.93-.06,5.76,5.76,0,0,0,.72-.14,4.56,4.56,0,0,0,.56-.19l.44-.2.65,1.89a5.1,5.1,0,0,1-1.41.55A8.2,8.2,0,0,1,123.76,72Z" transform="translate(-10.14 -3.14)"/><path class="cls-2" d="M132.27,63.58a5.3,5.3,0,0,1,1.67.23,2.55,2.55,0,0,1,1.06.65,2.37,2.37,0,0,1,.57,1,5.09,5.09,0,0,1,.17,1.35v4.68c-.33.07-.78.16-1.35.25a12.48,12.48,0,0,1-2.09.14,6.57,6.57,0,0,1-1.39-.13,2.93,2.93,0,0,1-1.08-.45,1.9,1.9,0,0,1-.7-.81,2.79,2.79,0,0,1-.24-1.22,2.29,2.29,0,0,1,.28-1.18,2.05,2.05,0,0,1,.75-.77,3.52,3.52,0,0,1,1.07-.42,6.39,6.39,0,0,1,1.25-.12q.45,0,.78,0a4,4,0,0,1,.55.1v-.21a1.25,1.25,0,0,0-.34-.92,1.71,1.71,0,0,0-1.21-.35,8.62,8.62,0,0,0-1.14.08,5.17,5.17,0,0,0-1,.24L129.63,64l.49-.13.64-.12.74-.09C131.75,63.6,132,63.58,132.27,63.58Zm.19,6.6.63,0,.48,0V68.41l-.4-.06-.5,0a5.74,5.74,0,0,0-.6,0,1.66,1.66,0,0,0-.49.15.78.78,0,0,0-.33.29.8.8,0,0,0-.13.45.76.76,0,0,0,.36.73A1.93,1.93,0,0,0,132.46,70.18Z" transform="translate(-10.14 -3.14)"/><path class="cls-2" d="M143.2,65.79l-.71-.16a4.77,4.77,0,0,0-.87-.08,3.44,3.44,0,0,0-.51,0,2.49,2.49,0,0,0-.45.08v6.08h-2.25V64.22a14.62,14.62,0,0,1,1.43-.4,8,8,0,0,1,1.84-.19l.44,0,.51.06.51.09a2.94,2.94,0,0,1,.44.13Z" transform="translate(-10.14 -3.14)"/><path class="cls-2" d="M152.7,70a3.72,3.72,0,0,0,.82-.08,1.48,1.48,0,0,0,.52-.23.9.9,0,0,0,.28-.34,1.23,1.23,0,0,0,.07-.44,1,1,0,0,0-.48-.85,7.22,7.22,0,0,0-1.67-.74c-.34-.12-.68-.26-1-.41a3.87,3.87,0,0,1-.93-.59,3,3,0,0,1-.66-.86,2.72,2.72,0,0,1-.26-1.23,3,3,0,0,1,.27-1.31,2.88,2.88,0,0,1,.77-1,3.75,3.75,0,0,1,1.21-.63,5.36,5.36,0,0,1,1.61-.22,6.62,6.62,0,0,1,1.83.23,6.22,6.22,0,0,1,1.27.5l-.68,1.86a6.27,6.27,0,0,0-1-.41,4.43,4.43,0,0,0-1.29-.17,2.45,2.45,0,0,0-1.22.23.79.79,0,0,0-.37.72.86.86,0,0,0,.14.49,1.29,1.29,0,0,0,.38.35,3.48,3.48,0,0,0,.58.29c.21.09.45.17.71.26.55.21,1,.4,1.43.6a4,4,0,0,1,1,.69,2.45,2.45,0,0,1,.6.92,3.74,3.74,0,0,1,.19,1.29,2.74,2.74,0,0,1-1,2.27,5,5,0,0,1-3.1.81,9.54,9.54,0,0,1-1.26-.08,9.42,9.42,0,0,1-1-.21,6.36,6.36,0,0,1-.74-.25c-.2-.09-.38-.18-.52-.26l.67-1.88a5.47,5.47,0,0,0,1.15.47A6.26,6.26,0,0,0,152.7,70Z" transform="translate(-10.14 -3.14)"/><path class="cls-2" d="M166.56,67.76a5.2,5.2,0,0,1-.27,1.71,3.68,3.68,0,0,1-.79,1.33,3.46,3.46,0,0,1-1.23.86,4.44,4.44,0,0,1-3.21,0,3.65,3.65,0,0,1-1.23-.86,3.84,3.84,0,0,1-.8-1.33,5,5,0,0,1-.29-1.71,4.65,4.65,0,0,1,.3-1.71,4,4,0,0,1,.82-1.32,3.64,3.64,0,0,1,1.23-.84,4.16,4.16,0,0,1,3.15,0,3.54,3.54,0,0,1,1.23.84,4,4,0,0,1,.8,1.32A4.87,4.87,0,0,1,166.56,67.76Zm-2.3,0a2.88,2.88,0,0,0-.41-1.64,1.48,1.48,0,0,0-2.38,0,2.73,2.73,0,0,0-.43,1.64,2.78,2.78,0,0,0,.43,1.65,1.47,1.47,0,0,0,2.38,0A2.94,2.94,0,0,0,164.26,67.76Z" transform="translate(-10.14 -3.14)"/><path class="cls-2" d="M168.56,67.77a4.83,4.83,0,0,1,.27-1.62,4,4,0,0,1,.81-1.33,3.84,3.84,0,0,1,1.29-.9,4.26,4.26,0,0,1,1.72-.34,5.32,5.32,0,0,1,1.17.12,5.25,5.25,0,0,1,1,.32l-.46,1.8a6.41,6.41,0,0,0-.7-.21,3.63,3.63,0,0,0-.85-.09,1.81,1.81,0,0,0-1.49.62,2.59,2.59,0,0,0-.49,1.63,2.72,2.72,0,0,0,.46,1.67,2,2,0,0,0,1.61.58,5.48,5.48,0,0,0,.88-.07,3.74,3.74,0,0,0,.86-.24l.32,1.84a5.28,5.28,0,0,1-1,.29,6.61,6.61,0,0,1-1.3.12,5.06,5.06,0,0,1-1.88-.32,3.67,3.67,0,0,1-1.29-.89,3.43,3.43,0,0,1-.74-1.32A5.51,5.51,0,0,1,168.56,67.77Z" transform="translate(-10.14 -3.14)"/><path class="cls-2" d="M179.59,61.5a1.21,1.21,0,0,1-.4,1,1.42,1.42,0,0,1-1.89,0,1.21,1.21,0,0,1-.4-1,1.25,1.25,0,0,1,.4-1,1.45,1.45,0,0,1,1.89,0A1.25,1.25,0,0,1,179.59,61.5Zm-.21,10.25h-2.25v-8h2.25Z" transform="translate(-10.14 -3.14)"/><path class="cls-2" d="M185,63.58a5.23,5.23,0,0,1,1.66.23,2.65,2.65,0,0,1,1.07.65,2.46,2.46,0,0,1,.56,1,5.09,5.09,0,0,1,.17,1.35v4.68c-.32.07-.77.16-1.35.25a12.43,12.43,0,0,1-2.08.14,6.67,6.67,0,0,1-1.4-.13,2.93,2.93,0,0,1-1.08-.45,2,2,0,0,1-.7-.81,2.79,2.79,0,0,1-.24-1.22,2.29,2.29,0,0,1,.28-1.18,2.21,2.21,0,0,1,.75-.77,3.52,3.52,0,0,1,1.07-.42,6.49,6.49,0,0,1,1.26-.12q.43,0,.78,0a4.27,4.27,0,0,1,.55.1v-.21a1.25,1.25,0,0,0-.35-.92,1.7,1.7,0,0,0-1.21-.35,8.47,8.47,0,0,0-1.13.08,5.09,5.09,0,0,0-1,.24L182.34,64l.49-.13.65-.12.73-.09C184.47,63.6,184.73,63.58,185,63.58Zm.18,6.6.63,0a4.58,4.58,0,0,0,.49,0V68.41l-.41-.06-.5,0a5.74,5.74,0,0,0-.6,0,1.76,1.76,0,0,0-.49.15.78.78,0,0,0-.33.29.79.79,0,0,0-.12.45.77.77,0,0,0,.35.73A2,2,0,0,0,185.17,70.18Z" transform="translate(-10.14 -3.14)"/><path class="cls-2" d="M194.3,71.9a5.69,5.69,0,0,1-1.6-.21,2.4,2.4,0,0,1-1-.55,1.88,1.88,0,0,1-.49-.87,4.83,4.83,0,0,1-.13-1.14V60.38l2.26-.36v8.66a3,3,0,0,0,0,.54.9.9,0,0,0,.18.41.89.89,0,0,0,.37.27,2,2,0,0,0,.65.14Z" transform="translate(-10.14 -3.14)"/><path class="cls-2" d="M204.1,61.15a6.51,6.51,0,0,1,3.59.83A3,3,0,0,1,209,64.67a3,3,0,0,1-1.27,2.73,6.59,6.59,0,0,1-3.63.84h-.74v3.51H201V61.42a13.41,13.41,0,0,1,1.63-.21C203.16,61.17,203.66,61.15,204.1,61.15Zm.15,2-.51,0-.43,0v3h.74a4,4,0,0,0,1.84-.33,1.27,1.27,0,0,0,.62-1.24,1.58,1.58,0,0,0-.15-.73,1.27,1.27,0,0,0-.46-.46,2,2,0,0,0-.72-.24A5.33,5.33,0,0,0,204.25,63.16Z" transform="translate(-10.14 -3.14)"/><path class="cls-2" d="M214.34,71.9a5.67,5.67,0,0,1-1.59-.21,2.45,2.45,0,0,1-1-.55,1.87,1.87,0,0,1-.48-.87,4.36,4.36,0,0,1-.13-1.14V60.38l2.25-.36v8.66a2.92,2.92,0,0,0,.05.54,1,1,0,0,0,.17.41,1,1,0,0,0,.37.27,2,2,0,0,0,.65.14Z" transform="translate(-10.14 -3.14)"/><path class="cls-2" d="M219.67,63.58a5.23,5.23,0,0,1,1.66.23,2.55,2.55,0,0,1,1.06.65,2.37,2.37,0,0,1,.57,1,5.09,5.09,0,0,1,.17,1.35v4.68c-.32.07-.77.16-1.35.25a12.43,12.43,0,0,1-2.08.14,6.67,6.67,0,0,1-1.4-.13,2.93,2.93,0,0,1-1.08-.45,1.9,1.9,0,0,1-.7-.81,2.79,2.79,0,0,1-.24-1.22,2.29,2.29,0,0,1,.28-1.18,2.21,2.21,0,0,1,.75-.77,3.52,3.52,0,0,1,1.07-.42,6.41,6.41,0,0,1,1.26-.12c.29,0,.55,0,.77,0a4.47,4.47,0,0,1,.56.1v-.21a1.25,1.25,0,0,0-.35-.92,1.7,1.7,0,0,0-1.21-.35,8.74,8.74,0,0,0-1.14.08,5.17,5.17,0,0,0-1,.24L217,64l.49-.13.64-.12.74-.09C219.14,63.6,219.4,63.58,219.67,63.58Zm.18,6.6.63,0,.49,0V68.41l-.41-.06-.5,0a5.74,5.74,0,0,0-.6,0,1.76,1.76,0,0,0-.49.15.78.78,0,0,0-.33.29.79.79,0,0,0-.12.45.77.77,0,0,0,.35.73A1.93,1.93,0,0,0,219.85,70.18Z" transform="translate(-10.14 -3.14)"/><path class="cls-2" d="M225.73,61.82l2.25-.37V63.8h2.71v1.87H228v2.8a2.18,2.18,0,0,0,.25,1.13,1.07,1.07,0,0,0,1,.42A4.74,4.74,0,0,0,230,70a4.58,4.58,0,0,0,.71-.19l.31,1.75a6.35,6.35,0,0,1-.9.29,5.38,5.38,0,0,1-1.23.12,3.93,3.93,0,0,1-1.52-.25,2.36,2.36,0,0,1-1-.7,2.58,2.58,0,0,1-.51-1.08,6.7,6.7,0,0,1-.14-1.4Z" transform="translate(-10.14 -3.14)"/><path class="cls-2" d="M236.6,60a4.68,4.68,0,0,1,1.16.13,4.29,4.29,0,0,1,.82.25l-.44,1.79a3.18,3.18,0,0,0-.66-.2,3.09,3.09,0,0,0-.66-.07,1.69,1.69,0,0,0-.68.12.9.9,0,0,0-.44.31,1.17,1.17,0,0,0-.23.46,2.8,2.8,0,0,0-.07.59v.4h2.78v1.87H235.4v6.08h-2.25V63.37A3.08,3.08,0,0,1,236.6,60Z" transform="translate(-10.14 -3.14)"/><path class="cls-2" d="M247.48,67.76a5.2,5.2,0,0,1-.27,1.71,3.54,3.54,0,0,1-.79,1.33,3.46,3.46,0,0,1-1.23.86,4.42,4.42,0,0,1-3.2,0,3.59,3.59,0,0,1-1.24-.86,3.84,3.84,0,0,1-.8-1.33,5,5,0,0,1-.28-1.71,4.65,4.65,0,0,1,.29-1.71,4,4,0,0,1,.82-1.32,3.58,3.58,0,0,1,1.24-.84,4.13,4.13,0,0,1,3.14,0,3.54,3.54,0,0,1,1.23.84,3.83,3.83,0,0,1,.8,1.32A4.65,4.65,0,0,1,247.48,67.76Zm-2.3,0a2.8,2.8,0,0,0-.41-1.64,1.48,1.48,0,0,0-2.38,0,2.73,2.73,0,0,0-.43,1.64,2.78,2.78,0,0,0,.43,1.65,1.47,1.47,0,0,0,2.38,0A2.86,2.86,0,0,0,245.18,67.76Z" transform="translate(-10.14 -3.14)"/><path class="cls-2" d="M254.65,65.79l-.71-.16a5,5,0,0,0-.88-.08,3.44,3.44,0,0,0-.51,0,2.52,2.52,0,0,0-.44.08v6.08h-2.26V64.22c.41-.14.88-.27,1.43-.4a8.06,8.06,0,0,1,1.84-.19l.44,0,.51.06.52.09a3.35,3.35,0,0,1,.44.13Z" transform="translate(-10.14 -3.14)"/><path class="cls-2" d="M261.24,67.53A3.18,3.18,0,0,0,261,66a1,1,0,0,0-1-.45,3.31,3.31,0,0,0-.44,0l-.44,0v6.14h-2.25V64.07l.67-.16c.26-.06.53-.11.82-.15s.58-.08.88-.11l.89,0a3.86,3.86,0,0,1,1.4.21,3,3,0,0,1,.89.53,3.6,3.6,0,0,1,1.11-.55,4.23,4.23,0,0,1,2.72.07,2.47,2.47,0,0,1,1,.75,2.79,2.79,0,0,1,.49,1.15,7.37,7.37,0,0,1,.14,1.48v4.49h-2.25V67.53a3.18,3.18,0,0,0-.28-1.54,1,1,0,0,0-1-.45,2.6,2.6,0,0,0-1.05.31,3,3,0,0,1,.14.74c0,.25,0,.53,0,.82v4.34h-2.25Z" transform="translate(-10.14 -3.14)"/><path class="cls-3" d="M80.09,24.56c1.16.33,1.59,6.73-2.58,8.33-6.62,2.54-8.26-4.68-8.26-4.68S76.87,23.65,80.09,24.56Z" transform="translate(-10.14 -3.14)"/><path class="cls-4" d="M79.07,26.26C80,24.13,81,29,78.7,30.94c-3.74,3.17-6.31-.2-6.31-.2S77.6,29.8,79.07,26.26Z" transform="translate(-10.14 -3.14)"/><path class="cls-5" d="M73.05,31.38a3.66,3.66,0,0,1-.66-.64s5.21-.94,6.68-4.48c.56-1.35,1.19.12,1,1.87C78,30.49,74.43,31.2,73.05,31.38Z" transform="translate(-10.14 -3.14)"/><path class="cls-6" d="M69.66,10.88C67.17,9.42,78.13,21,62.53,23.29c-1.71.25-.42,6.62,4.1,5.58C72.51,28.47,82.2,18.25,69.66,10.88Z" transform="translate(-10.14 -3.14)"/><path class="cls-7" d="M61.94,25.7c-.3-1.21-.1-2.31.59-2.41,13.64-2,7-11.1,6.75-12.38C73.6,16,74.36,23.39,61.94,25.7Z" transform="translate(-10.14 -3.14)"/><path class="cls-8" d="M67.71,27.47c3.2-1.78,11.71-9,2-16.53,12.4,7.36,2.74,17.53-3.12,17.93a3.62,3.62,0,0,1-2.16-.09A22.4,22.4,0,0,0,67.71,27.47Z" transform="translate(-10.14 -3.14)"/><path class="cls-8" d="M64.75,22.86l.81-.21a5.07,5.07,0,0,1,1.49,5S67.13,24.31,64.75,22.86Zm5.61-9.43c0,.11.09.22.13.33a2.14,2.14,0,0,1,1.72-.68A1.59,1.59,0,0,0,70.36,13.43ZM69,21.05c-.19.14-.39.27-.6.4,2.32.95,3.1,3.82,3.1,3.82A5.19,5.19,0,0,0,69,21.05Zm5.48-.89a3.9,3.9,0,0,0-3.58-1.69,4,4,0,0,1-.26.65A4.77,4.77,0,0,1,74.43,20.16ZM74,16.27A2.37,2.37,0,0,0,71.05,16c0,.14,0,.27,0,.41C72.22,15.5,74,16.27,74,16.27Z" transform="translate(-10.14 -3.14)"/><path class="cls-3" d="M10.93,24.9c-1.15.33-1.59,6.73,2.59,8.33,6.61,2.54,8.25-4.68,8.25-4.68S14.15,24,10.93,24.9Z" transform="translate(-10.14 -3.14)"/><path class="cls-4" d="M12,26.6c-.88-2.13-1.93,2.72.38,4.68,3.73,3.17,6.3-.2,6.3-.2S13.42,30.14,12,26.6Z" transform="translate(-10.14 -3.14)"/><path class="cls-5" d="M18,31.72a4.27,4.27,0,0,0,.65-.64S13.42,30.14,12,26.6c-.56-1.36-1.19.12-1,1.87C13,30.83,16.59,31.54,18,31.72Z" transform="translate(-10.14 -3.14)"/><path class="cls-6" d="M19.78,10.55c2.49-1.47-8.47,10.14,7.13,12.4,1.71.25.42,6.62-4.1,5.59C16.93,28.13,7.24,17.91,19.78,10.55Z" transform="translate(-10.14 -3.14)"/><path class="cls-7" d="M27.5,25.36c.3-1.21.1-2.31-.59-2.41-13.64-2-7-11.1-6.75-12.38C15.84,15.7,15.08,23.05,27.5,25.36Z" transform="translate(-10.14 -3.14)"/><path class="cls-8" d="M21.73,27.13c-3.2-1.77-11.71-9-2-16.53C7.3,18,17,28.13,22.81,28.54a3.69,3.69,0,0,0,2.16-.1A22.4,22.4,0,0,1,21.73,27.13Z" transform="translate(-10.14 -3.14)"/><path class="cls-8" d="M22.39,27.35a5.08,5.08,0,0,1,1.49-5l.81.21C22.31,24,22.39,27.35,22.39,27.35ZM17.23,12.74a2.14,2.14,0,0,1,1.72.68c0-.11.08-.22.13-.33A1.59,1.59,0,0,0,17.23,12.74ZM18,24.93s.78-2.87,3.1-3.82a6.75,6.75,0,0,1-.59-.4A5.17,5.17,0,0,0,18,24.93Zm.86-6.15a4,4,0,0,1-.26-.65A3.9,3.9,0,0,0,15,19.82,4.77,4.77,0,0,1,18.85,18.78Zm-.5-2.72c0-.14,0-.27,0-.41a2.39,2.39,0,0,0-2.93.28S17.22,15.16,18.35,16.06Z" transform="translate(-10.14 -3.14)"/><path d="M76.34,47.69c0,17.17-14.82,32-32,32.44C25.22,80.58,11,66.39,11.94,48.82A32.54,32.54,0,0,1,21.16,27.9,31.7,31.7,0,0,1,44.36,18C61.52,17.75,76.34,30.52,76.34,47.69Z" transform="translate(-10.14 -3.14)"/><path class="cls-9" d="M32.15,20.27a31,31,0,0,0-11.57,8.32c.05-.07.59,0,.67,0l5.44,0,8.82.06,9.61.06,7.82,0H54c2.49,0,5,0,7.36,1a7.19,7.19,0,0,1,4.34,5.33,14.53,14.53,0,0,1-.35,6.32c-.06.23-.72,3-1,3H52.93c.66-1.68,1.19-4.08-.56-5.3a5.21,5.21,0,0,0-2.92-.75,14,14,0,0,0-4.51.43,3.32,3.32,0,0,0-1.35.68,6,6,0,0,0-1.17,1.08,6.91,6.91,0,0,0-1.3,2.83c-.75,2.76-1.59,5.5-2.39,8.24-.4,1.41-.81,2.83-1.22,4.24s-1,3.29.28,4.6a4.78,4.78,0,0,0,3.46,1.1,13.14,13.14,0,0,0,4.45-.68,6,6,0,0,0,3.59-4.31c0-.09.51-1.74.45-1.74H61.61c-1.13,6.53-4.68,12.69-11,15.3-3.28,1.34-6.46,1.34-10,1.34H20.51a27.62,27.62,0,0,0,5.79,4.41,33.59,33.59,0,0,0,24.82,3.15l1.15-.32a34.56,34.56,0,0,0,20.21-16.3c4.72-8.59,5.27-20.08.63-28.83a29.52,29.52,0,0,0-8.31-9.87,32.6,32.6,0,0,0-11.44-5.43,30.34,30.34,0,0,0-7.4-.88,35.24,35.24,0,0,0-13.81,2.84" transform="translate(-10.14 -3.14)"/><path class="cls-10" d="M13.71,40.09C13,41.25,12.4,45,12.4,45H28.61a19,19,0,0,1,1.74-4.92Z" transform="translate(-10.14 -3.14)"/><path class="cls-11" d="M12.26,54.86a26.4,26.4,0,0,0,1,4.63H24.71a15.7,15.7,0,0,1,1-4.63Z" transform="translate(-10.14 -3.14)"/><rect class="cls-12" x="18.32" y="11.96" width="10.5" height="0.99"/><path class="cls-12" d="M32.28,17.64,25,18.87a1,1,0,0,1-1.11-.93V13.26A1,1,0,0,1,25,12.33l7.32,1.23a1,1,0,0,1,.8.93v2.22A.94.94,0,0,1,32.28,17.64Z" transform="translate(-10.14 -3.14)"/><path class="cls-13" d="M24.8,18.35a.41.41,0,0,1-.41-.41V13.26a.41.41,0,0,1,.48-.4l7.32,1.22a.42.42,0,0,1,.35.41v2.22a.42.42,0,0,1-.35.41l-7.32,1.23Zm0-5.14s-.07,0-.07,0v4.68a.06.06,0,0,0,.06.06h0l7.33-1.23a.06.06,0,0,0,0-.06V14.49a0,0,0,0,0,0-.05l-7.33-1.23Z" transform="translate(-10.14 -3.14)"/><path class="cls-14" d="M32.28,13.56l-1.39-.24a17,17,0,0,1-7,4.07v.55a1,1,0,0,0,1.11.93l7.32-1.23a.94.94,0,0,0,.8-.93V14.49A1,1,0,0,0,32.28,13.56Z" transform="translate(-10.14 -3.14)"/><rect class="cls-12" x="49.72" y="15.1" width="10.5" height="0.99" transform="translate(99.8 28.04) rotate(180)"/><path class="cls-12" d="M56.4,17.64l7.32,1.23a1,1,0,0,0,1.11-.93V13.26a1,1,0,0,0-1.11-.93L56.4,13.56a.94.94,0,0,0-.79.93v2.22A.94.94,0,0,0,56.4,17.64Z" transform="translate(-10.14 -3.14)"/><path class="cls-13" d="M63.81,18.35l-7.32-1.23a.43.43,0,0,1-.35-.41V14.49a.43.43,0,0,1,.35-.41l7.32-1.22a.41.41,0,0,1,.49.4v4.68a.42.42,0,0,1-.42.41Zm.06-5.14-7.32,1.23a0,0,0,0,0,0,.05v2.22a.06.06,0,0,0,0,.06L63.87,18h0a.06.06,0,0,0,.06-.06V13.26s0,0-.07,0Z" transform="translate(-10.14 -3.14)"/><path class="cls-14" d="M56.4,13.56l1.39-.24a17.09,17.09,0,0,0,7,4.07v.55a1,1,0,0,1-1.11.93L56.4,17.64a.94.94,0,0,1-.79-.93V14.49A.94.94,0,0,1,56.4,13.56Z" transform="translate(-10.14 -3.14)"/><circle class="cls-13" cx="34.24" cy="2.47" r="2.47"/><path class="cls-15" d="M42.62,3.88A2.47,2.47,0,1,0,46.82,6,6.16,6.16,0,0,1,42.62,3.88Z" transform="translate(-10.14 -3.14)"/><ellipse class="cls-12" cx="34.2" cy="7.87" rx="7.62" ry="4.85"/><path class="cls-14" d="M47,8.7c-2.2-.33-4.72-.67-6.46-1.89-2.28.84-3.82,2.41-3.82,4.2,0,2.68,3.41,4.85,7.62,4.85S52,13.69,52,11a3.35,3.35,0,0,0-.49-1.7C50,9.17,48.44,8.92,47,8.7Z" transform="translate(-10.14 -3.14)"/><path class="cls-12" d="M44.34,9c-8.45,0-10.74,3.3-10.74,3.3l1.46,6.86s2.36,1.12,9.28,1.12,9.28-1.12,9.28-1.12l1.46-6.86S52.79,9,44.34,9Z" transform="translate(-10.14 -3.14)"/><path class="cls-12" d="M44.34,9c-8.45,0-10.74,3.3-10.74,3.3l1.46,6.86s2.36,1.12,9.28,1.12,9.28-1.12,9.28-1.12l1.46-6.86S52.79,9,44.34,9Z" transform="translate(-10.14 -3.14)"/><path class="cls-13" d="M33.75,13l.19.87c1.69-1,4.87-2.31,10.4-2.31s8.71,1.26,10.4,2.31l.19-.87c-1.64-1.07-4.85-2.42-10.59-2.42S35.4,11.93,33.75,13Z" transform="translate(-10.14 -3.14)"/><path class="cls-13" d="M34.86,18.2l.12.56a40.45,40.45,0,0,0,9.36.86,40.45,40.45,0,0,0,9.36-.86l.12-.56a42.05,42.05,0,0,1-9.48.85A42.13,42.13,0,0,1,34.86,18.2Z" transform="translate(-10.14 -3.14)"/><path class="cls-14" d="M42.87,15.07a15.53,15.53,0,0,1-7.6-4.14,5.62,5.62,0,0,0-1.67,1.36l1.46,6.86s2.36,1.12,9.28,1.12,9.28-1.12,9.28-1.12l.58-2.74A38.52,38.52,0,0,1,42.87,15.07Z" transform="translate(-10.14 -3.14)"/><circle class="cls-13" cx="44.38" cy="15.1" r="2.88" transform="translate(12.25 53.35) rotate(-80.82)"/><path class="cls-16" d="M42.55,15.69V15.3h1.64v-.84h-.84a6.25,6.25,0,0,1-.33.63L42.93,15l-.27-.16a4.82,4.82,0,0,0,.58-1.38l.41.07a3.43,3.43,0,0,1-.1.33c0,.08,0,.14,0,.17h.69v-.75h.42v.75h1.22v.39H44.61v.84h1.52v.39H44.61v1.19h-.42V15.69Z" transform="translate(-10.14 -3.14)"/><path class="cls-15" d="M45.37,16.08a2.87,2.87,0,0,1-3-2.62,2.54,2.54,0,0,0-.6,1.64,2.56,2.56,0,0,0,5,.62A3.12,3.12,0,0,1,45.37,16.08Z" transform="translate(-10.14 -3.14)"/></g></g></svg>