<?xml version="1.0" encoding="utf-8"?>
<!-- Generator: Adobe Illustrator 24.2.1, SVG Export Plug-In . SVG Version: 6.00 Build 0)  -->
<svg version="1.1" id="Layer_1" xmlns="http://www.w3.org/2000/svg" xmlns:xlink="http://www.w3.org/1999/xlink" x="0px" y="0px"
	 viewBox="0 0 50 50" style="enable-background:new 0 0 50 50;" xml:space="preserve">
<style type="text/css">
	.st0{fill:#6A6A6A;}
	.st1{fill:#FFFFFF;}
</style>
<g id="Group_899" transform="translate(611.62 -816.604)">
	<path id="Path_200" class="st0" d="M-608.31,818.85c-0.91,0.08-1.61,0.84-1.6,1.75v40.23c0,0.85,0.61,1.58,1.45,1.73l18.37,3.27
		c0.51,0.09,1.04-0.05,1.44-0.38c0.4-0.33,0.63-0.83,0.63-1.35v-45.15c0-0.49-0.21-0.96-0.57-1.3c-0.36-0.33-0.85-0.5-1.34-0.45
		L-608.31,818.85z M-592.85,843.95c-0.75,0-1.37-1.08-1.37-2.41s0.61-2.41,1.37-2.41s1.37,1.08,1.37,2.41s-0.62,2.38-1.38,2.38
		L-592.85,843.95z"/>
	<path id="Path_201" class="st0" d="M-561.37,840.58l-14.35-10.65v5.53h-11.15v10.19h11.15v5.53L-561.37,840.58z"/>
	<path id="Path_202" class="st1" d="M-594.22,841.51c0,1.33,0.61,2.41,1.37,2.41c0.75,0,1.37-1.08,1.37-2.41s-0.61-2.41-1.37-2.41
		C-593.61,839.1-594.22,840.19-594.22,841.51z"/>
	<path id="Path_203" class="st0" d="M-576.98,833.88v-13.76c0-0.37-0.15-0.72-0.42-0.97c-0.25-0.26-0.6-0.41-0.97-0.42h-8.53v2.74
		h7.16v12.38L-576.98,833.88z"/>
	<path id="Path_204" class="st0" d="M-586.88,861.54v2.74h8.53c0.36,0,0.71-0.15,0.97-0.42c0.26-0.25,0.41-0.6,0.42-0.97v-15.79
		h-2.74v14.42L-586.88,861.54z"/>
</g>
</svg>
