<?xml version="1.0" encoding="UTF-8"?>
<svg width="95px" height="36px" viewBox="0 0 95 36" version="1.1" xmlns="http://www.w3.org/2000/svg" xmlns:xlink="http://www.w3.org/1999/xlink">
    <!-- Generator: Sketch 47.1 (45422) - http://www.bohemiancoding.com/sketch -->
    <title>logo-w-tagline</title>
    <desc>Created with Sketch.</desc>
    <defs></defs>
    <g id="Page-1" stroke="none" stroke-width="1" fill="none" fill-rule="evenodd">
        <g id="logo-w-tagline" fill-rule="nonzero">
            <path d="M6.84,17.44 C5.942,17.44 5.242,17.81 4.74,18.552 C4.237,19.295 3.986,20.319 3.986,21.624 C3.986,24.338 5.006,25.694 7.049,25.694 C7.659,25.694 8.259,25.609 8.839,25.434 C9.419,25.261 9.999,25.051 10.579,24.807 L10.579,28.029 C9.409,28.549 8.099,28.809 6.629,28.809 C4.519,28.809 2.909,28.189 1.779,26.949 C0.66,25.72 0.1,23.93 0.1,21.6 C0.1,20.14 0.373,18.86 0.917,17.75 C1.461,16.64 2.244,15.79 3.267,15.2 C4.287,14.6 5.487,14.31 6.867,14.31 C8.377,14.31 9.817,14.64 11.191,15.3 L10.041,18.3 C9.531,18.052 9.011,17.85 8.501,17.68 C7.991,17.51 7.431,17.43 6.841,17.43 L6.84,17.44 Z M19.341,28.81 L18.651,27.384 L18.581,27.384 C18.101,28.004 17.601,28.427 17.101,28.654 C16.601,28.884 15.951,28.997 15.151,28.997 C14.171,28.997 13.401,28.694 12.831,28.087 C12.271,27.48 11.991,26.627 11.991,25.527 C11.991,24.381 12.381,23.527 13.151,22.967 C13.931,22.407 15.041,22.097 16.511,22.027 L18.251,21.967 L18.251,21.817 C18.251,20.93 17.831,20.487 16.981,20.487 C16.221,20.487 15.261,20.753 14.081,21.287 L13.041,18.837 C14.261,18.191 15.791,17.869 17.651,17.869 C18.991,17.869 20.021,18.209 20.761,18.889 C21.501,19.569 21.861,20.529 21.861,21.749 L21.861,28.799 L19.371,28.799 L19.341,28.81 Z M16.671,26.38 C17.111,26.38 17.481,26.24 17.791,25.95 C18.101,25.666 18.261,25.295 18.261,24.84 L18.261,24.005 L17.441,24.042 C16.261,24.086 15.671,24.535 15.671,25.392 C15.671,26.048 16.011,26.376 16.691,26.376 L16.671,26.38 Z M29.721,17.71 C30.041,17.71 30.331,17.733 30.621,17.784 L30.831,17.824 L30.511,21.376 C30.221,21.296 29.811,21.256 29.291,21.256 C28.511,21.256 27.941,21.444 27.581,21.819 C27.231,22.189 27.051,22.729 27.051,23.439 L27.051,28.799 L23.451,28.799 L23.451,17.9 L26.131,17.9 L26.691,19.644 L26.871,19.644 C27.171,19.064 27.591,18.598 28.131,18.244 C28.671,17.886 29.211,17.708 29.751,17.708 L29.721,17.71 Z M31.831,14.332 L35.431,14.332 L35.431,28.812 L31.831,28.812 L31.831,14.332 Z M37.381,15.95 C37.381,15.404 37.531,14.998 37.831,14.73 C38.141,14.465 38.621,14.332 39.291,14.332 C39.961,14.332 40.451,14.468 40.761,14.742 C41.071,15.014 41.221,15.417 41.221,15.95 C41.221,17.017 40.581,17.55 39.301,17.55 C38.031,17.55 37.391,17.017 37.391,15.95 L37.381,15.95 Z M37.481,17.894 L41.081,17.894 L41.081,28.814 L37.481,28.814 L37.481,17.9 L37.481,17.894 Z M51.171,25.384 C51.171,26.516 50.791,27.374 50.031,27.95 C49.271,28.52 48.181,28.81 46.761,28.81 C45.991,28.81 45.311,28.77 44.741,28.68 C44.171,28.597 43.591,28.443 42.991,28.22 L42.991,25.3 C43.551,25.548 44.161,25.75 44.831,25.914 C45.501,26.077 46.091,26.158 46.611,26.158 C47.391,26.158 47.781,25.978 47.781,25.618 C47.781,25.432 47.671,25.265 47.451,25.118 C47.231,24.974 46.601,24.688 45.551,24.266 C44.591,23.866 43.921,23.416 43.541,22.906 C43.161,22.4 42.971,21.756 42.971,20.98 C42.971,20 43.341,19.235 44.091,18.688 C44.841,18.142 45.901,17.868 47.271,17.868 C47.961,17.868 48.611,17.944 49.211,18.096 C49.821,18.249 50.451,18.471 51.101,18.764 L50.121,21.114 C49.641,20.896 49.141,20.711 48.601,20.558 C48.071,20.408 47.631,20.328 47.301,20.328 C46.711,20.328 46.411,20.473 46.411,20.768 C46.411,20.948 46.519,21.1 46.721,21.228 C46.931,21.358 47.521,21.618 48.501,22.008 C49.231,22.311 49.781,22.61 50.139,22.903 C50.499,23.196 50.759,23.54 50.929,23.933 C51.099,24.33 51.184,24.81 51.184,25.376 L51.171,25.384 Z M57.824,26.024 C58.309,26.024 58.889,25.894 59.564,25.644 L59.564,28.394 C59.079,28.61 58.618,28.766 58.179,28.859 C57.739,28.949 57.222,28.999 56.633,28.999 C55.423,28.999 54.553,28.689 54.019,28.069 C53.479,27.449 53.219,26.499 53.219,25.219 L53.219,20.719 L51.919,20.719 L51.919,19.189 L53.5,18 L54.43,15.708 L56.785,15.708 L56.785,17.898 L59.342,17.898 L59.342,20.72 L56.79,20.72 L56.79,24.965 C56.79,25.669 57.115,26.025 57.764,26.025 L57.824,26.024 Z" id="Shape" fill="#FFFFFF"></path>
            <path d="M60.404,27.04 C60.404,26.47 60.571,26.03 60.904,25.72 C61.24,25.41 61.726,25.255 62.364,25.255 C62.971,25.255 63.438,25.41 63.764,25.719 C64.088,26.029 64.251,26.469 64.251,27.039 C64.251,27.589 64.091,28.029 63.751,28.339 C63.421,28.649 62.961,28.809 62.371,28.809 C61.771,28.809 61.291,28.649 60.941,28.339 C60.591,28.029 60.421,27.589 60.421,27.029 M78.651,28.809 L78.651,22.879 C78.651,22.139 78.561,21.589 78.361,21.219 C78.171,20.849 77.861,20.659 77.451,20.659 C76.901,20.659 76.501,20.899 76.241,21.399 C75.991,21.889 75.861,22.669 75.861,23.719 L75.861,28.799 L72.251,28.799 L72.251,22.869 C72.251,22.129 72.161,21.579 71.981,21.209 C71.801,20.839 71.501,20.659 71.091,20.659 C70.531,20.659 70.121,20.919 69.861,21.449 C69.611,21.969 69.481,22.829 69.481,24.029 L69.481,28.799 L65.881,28.799 L65.881,17.9 L68.601,17.9 L69.051,19.25 L69.261,19.25 C69.541,18.75 69.941,18.37 70.461,18.105 C70.991,17.842 71.581,17.711 72.251,17.711 C73.751,17.711 74.811,18.191 75.421,19.151 L75.711,19.151 C76.011,18.701 76.421,18.351 76.941,18.101 C77.471,17.851 78.041,17.721 78.681,17.721 C79.921,17.721 80.831,18.051 81.421,18.711 C82.011,19.371 82.301,20.381 82.301,21.731 L82.301,28.831 L78.691,28.831 M83,17.92 L86.79,17.92 L88.56,24.18 C88.642,24.51 88.7,24.91 88.73,25.37 L88.8,25.37 C88.85,24.92 88.925,24.54 89.02,24.2 L90.836,17.93 L94.506,17.93 L90.38,29.53 C89.85,31.01 89.2,32.05 88.43,32.66 C87.66,33.27 86.66,33.58 85.42,33.58 C84.95,33.58 84.45,33.53 83.95,33.42 L83.95,30.46 C84.28,30.54 84.65,30.58 85.07,30.58 C85.39,30.58 85.67,30.517 85.904,30.39 C86.144,30.265 86.354,30.084 86.534,29.85 C86.714,29.615 86.904,29.23 87.104,28.7 L83,17.937" id="Shape" fill="#FFC700"></path>
            <path d="M0.1,14.34 C0.1,14.34 9.923,5.318 30.454,6.96 C30.454,6.96 42.312,-0.17 48.808,0.013 C48.808,0.013 85.468,1.028 94.462,14.34 C94.462,14.34 69.348,7.332 57.436,10.774 C57.436,10.774 65.183,6.059 80.416,8.306 C80.416,8.306 69.288,2.589 46.832,1.923 C46.832,1.923 39.08,2.705 31.682,9.013 C31.577,9.103 16.246,6.073 0.1,14.34 L0.1,14.34 Z M17.88,35.856 L17.053,33.132 L17.033,33.132 C17.063,33.686 17.077,34.056 17.077,34.242 L17.077,35.856 L16.427,35.856 L16.427,32.384 L17.417,32.384 L18.23,35.039 L18.245,35.039 L19.107,32.379 L20.099,32.379 L20.099,35.849 L19.419,35.849 L19.419,33.939 C19.419,33.839 19.429,33.569 19.449,33.129 L19.429,33.129 L18.539,35.849 L17.869,35.849 L17.88,35.856 Z M23.049,35.849 L22.799,35.019 L21.549,35.019 L21.299,35.839 L20.509,35.839 L21.719,32.349 L22.609,32.349 L23.829,35.829 L23.039,35.829 L23.049,35.849 Z M22.629,34.399 L22.239,33.129 C22.209,33.029 22.189,32.949 22.179,32.889 C22.119,33.089 21.979,33.589 21.729,34.389 L22.619,34.389 L22.629,34.399 Z M24.269,35.839 L24.269,32.369 L25,32.369 L25,35.229 L26.39,35.229 L26.39,35.839 L24.27,35.839 L24.269,35.839 Z M29.093,35.839 L28.843,35.009 L27.6,35.009 L27.35,35.829 L26.566,35.829 L27.776,32.339 L28.666,32.339 L29.884,35.819 L29.1,35.819 L29.093,35.839 Z M28.67,34.399 L28.28,33.129 C28.25,33.029 28.23,32.949 28.22,32.889 C28.162,33.089 28.02,33.589 27.77,34.389 L28.667,34.389 L28.67,34.399 Z M31.38,33.799 L32.09,32.369 L32.877,32.369 L31.737,34.489 L31.737,35.839 L31.014,35.839 L31.014,34.519 L29.874,32.369 L30.664,32.369 L31.374,33.799 L31.38,33.799 Z M35.334,34.869 C35.334,35.179 35.224,35.429 35,35.609 C34.78,35.789 34.47,35.879 34.07,35.879 C33.704,35.879 33.38,35.809 33.098,35.669 L33.098,35 C33.334,35.11 33.528,35.18 33.688,35.23 C33.853,35.27 33.998,35.3 34.133,35.3 C34.293,35.3 34.415,35.27 34.5,35.207 C34.59,35.147 34.63,35.057 34.63,34.937 C34.63,34.867 34.61,34.807 34.575,34.757 C34.539,34.704 34.485,34.653 34.411,34.604 C34.341,34.554 34.191,34.477 33.971,34.37 C33.761,34.27 33.611,34.176 33.501,34.08 C33.401,33.99 33.311,33.886 33.251,33.76 C33.191,33.64 33.161,33.5 33.161,33.337 C33.161,33.027 33.261,32.787 33.471,32.607 C33.681,32.427 33.961,32.342 34.321,32.342 C34.501,32.342 34.671,32.365 34.831,32.408 C35.001,32.448 35.171,32.508 35.341,32.588 L35.111,33.158 C34.931,33.084 34.781,33.028 34.661,32.998 C34.541,32.968 34.421,32.956 34.311,32.956 C34.171,32.956 34.071,32.986 33.991,33.048 C33.921,33.115 33.881,33.198 33.881,33.304 C33.881,33.37 33.901,33.427 33.931,33.474 C33.961,33.524 34.011,33.57 34.071,33.614 C34.141,33.661 34.291,33.744 34.531,33.859 C34.861,34.009 35.081,34.169 35.201,34.329 C35.321,34.479 35.381,34.669 35.381,34.899 L35.334,34.869 Z M36.001,32.389 L36.731,32.389 L36.731,35.859 L36,35.859 L36.001,32.389 Z M39.7,35.859 L39.45,35.029 L38.2,35.029 L37.95,35.849 L37.165,35.849 L38.378,32.359 L39.268,32.359 L40.484,35.839 L39.704,35.839 L39.7,35.859 Z M39.276,34.409 L38.886,33.139 C38.856,33.039 38.836,32.959 38.826,32.909 C38.772,33.109 38.626,33.609 38.38,34.409 L39.27,34.409 L39.276,34.409 Z M41.436,32.379 L41.466,32.429 C41.386,32.739 41.246,33.119 41.05,33.569 L40.53,33.569 C40.64,33.099 40.715,32.699 40.763,32.379 L41.423,32.379 L41.436,32.379 Z M43.976,34.889 C43.976,35.199 43.861,35.449 43.636,35.629 C43.416,35.809 43.106,35.899 42.706,35.899 C42.336,35.899 42.016,35.829 41.736,35.689 L41.736,35.009 C41.966,35.109 42.166,35.189 42.326,35.229 C42.486,35.269 42.636,35.289 42.766,35.289 C42.926,35.289 43.049,35.259 43.136,35.189 C43.22,35.129 43.266,35.029 43.266,34.909 C43.266,34.839 43.246,34.779 43.206,34.729 C43.17,34.679 43.116,34.629 43.042,34.579 C42.969,34.529 42.822,34.449 42.596,34.349 C42.386,34.249 42.229,34.149 42.126,34.059 C42.02,33.969 41.936,33.859 41.876,33.739 C41.811,33.619 41.78,33.469 41.78,33.309 C41.78,32.999 41.88,32.759 42.09,32.589 C42.29,32.409 42.58,32.319 42.94,32.319 C43.12,32.319 43.29,32.349 43.45,32.389 C43.61,32.429 43.78,32.489 43.96,32.569 L43.724,33.139 C43.534,33.062 43.384,33.009 43.264,32.979 C43.144,32.949 43.028,32.929 42.914,32.929 C42.774,32.929 42.664,32.959 42.594,33.024 C42.518,33.084 42.484,33.174 42.484,33.274 C42.484,33.339 42.494,33.396 42.524,33.444 C42.554,33.494 42.604,33.539 42.668,33.584 C42.733,33.63 42.888,33.714 43.128,33.828 C43.448,33.98 43.668,34.138 43.788,34.291 C43.908,34.451 43.968,34.641 43.968,34.864 L43.976,34.889 Z" id="Shape" fill="#FFFFFF"></path>
            <path d="M48.88,35.856 L47.953,35.856 L46.46,33.23 L46.438,33.23 C46.468,33.694 46.482,34.025 46.482,34.223 L46.482,35.856 L45.832,35.856 L45.832,32.386 L46.75,32.386 L48.242,34.986 L48.258,34.986 C48.235,34.534 48.223,34.216 48.223,34.028 L48.223,32.385 L48.879,32.385 L48.879,35.855 L48.88,35.856 Z M52.739,34.115 C52.739,34.69 52.599,35.132 52.309,35.441 C52.029,35.751 51.619,35.911 51.099,35.911 C50.569,35.911 50.169,35.761 49.889,35.451 C49.609,35.141 49.459,34.701 49.459,34.121 C49.459,33.551 49.599,33.101 49.879,32.801 C50.159,32.501 50.569,32.351 51.089,32.351 C51.619,32.351 52.019,32.511 52.299,32.811 C52.579,33.121 52.719,33.561 52.719,34.141 L52.739,34.115 Z M50.229,34.115 C50.229,34.505 50.299,34.795 50.449,34.992 C50.589,35.188 50.809,35.286 51.099,35.286 C51.679,35.286 51.969,34.896 51.969,34.116 C51.969,33.334 51.679,32.943 51.099,32.943 C50.809,32.943 50.589,33.041 50.439,33.238 C50.289,33.435 50.219,33.728 50.219,34.116 L50.229,34.115 Z M53.169,35.517 C53.169,35.384 53.199,35.283 53.269,35.215 C53.339,35.147 53.439,35.113 53.579,35.113 C53.709,35.113 53.809,35.148 53.879,35.218 C53.949,35.288 53.989,35.388 53.989,35.518 C53.989,35.642 53.949,35.74 53.879,35.812 C53.809,35.884 53.699,35.92 53.579,35.92 C53.449,35.92 53.339,35.885 53.269,35.815 C53.189,35.745 53.159,35.645 53.159,35.517 L53.169,35.517 Z M56.119,35.857 L55.399,35.857 L55.399,33.517 L55.409,33.157 C55.289,33.277 55.199,33.357 55.159,33.397 L54.759,33.717 L54.409,33.277 L55.509,32.387 L56.099,32.387 L56.099,35.857 L56.119,35.857 Z" id="Shape" fill="#FFC700"></path>
            <path d="M59.92,32.947 C59.646,32.947 59.434,33.051 59.284,33.259 C59.134,33.459 59.058,33.749 59.058,34.129 C59.058,34.899 59.346,35.289 59.921,35.289 C60.171,35.289 60.461,35.229 60.801,35.099 L60.801,35.719 C60.521,35.839 60.211,35.899 59.861,35.899 C59.361,35.899 58.981,35.739 58.721,35.439 C58.461,35.129 58.331,34.689 58.331,34.119 C58.331,33.759 58.401,33.439 58.531,33.169 C58.661,32.899 58.851,32.689 59.091,32.539 C59.341,32.389 59.621,32.319 59.951,32.319 C60.291,32.319 60.621,32.399 60.961,32.559 L60.731,33.159 C60.611,33.099 60.481,33.039 60.351,32.999 C60.221,32.949 60.091,32.929 59.971,32.929 L59.92,32.947 Z M63.681,35.839 L63.431,35.009 L62.181,35.009 L61.931,35.829 L61.131,35.829 L62.341,32.339 L63.231,32.339 L64.451,35.819 L63.671,35.819 L63.681,35.839 Z M63.251,34.399 L62.861,33.129 C62.841,33.029 62.811,32.949 62.801,32.889 C62.751,33.089 62.601,33.589 62.361,34.389 L63.261,34.389 L63.251,34.399 Z M65.621,34.509 L65.621,35.839 L64.891,35.839 L64.891,32.369 L65.891,32.369 C66.361,32.369 66.711,32.449 66.931,32.629 C67.161,32.799 67.271,33.059 67.271,33.409 C67.271,33.609 67.221,33.789 67.111,33.949 C67.001,34.109 66.841,34.229 66.641,34.319 C67.161,35.099 67.501,35.599 67.651,35.829 L66.841,35.829 L66.021,34.499 L65.631,34.499 L65.621,34.509 Z M65.621,33.909 L65.861,33.909 C66.091,33.909 66.261,33.869 66.371,33.789 C66.481,33.709 66.541,33.589 66.541,33.419 C66.541,33.249 66.491,33.139 66.371,33.069 C66.261,32.999 66.091,32.959 65.851,32.959 L65.631,32.959 L65.631,33.899 L65.621,33.909 Z M71.351,34.879 C71.351,35.189 71.241,35.439 71.021,35.619 C70.801,35.799 70.491,35.889 70.091,35.889 C69.721,35.889 69.401,35.819 69.121,35.679 L69.121,35 C69.361,35.105 69.551,35.18 69.711,35.22 C69.871,35.264 70.021,35.286 70.151,35.286 C70.311,35.286 70.431,35.256 70.521,35.193 C70.611,35.133 70.651,35.038 70.651,34.916 C70.651,34.846 70.631,34.786 70.601,34.733 C70.561,34.683 70.511,34.63 70.441,34.583 C70.371,34.533 70.221,34.453 69.991,34.347 C69.781,34.247 69.631,34.147 69.521,34.057 C69.421,33.967 69.331,33.857 69.271,33.737 C69.211,33.617 69.181,33.473 69.181,33.31 C69.181,33.003 69.281,32.76 69.491,32.586 C69.695,32.41 69.981,32.322 70.341,32.322 C70.521,32.322 70.691,32.344 70.851,32.387 C71.011,32.427 71.181,32.487 71.361,32.567 L71.128,33.137 C70.944,33.063 70.793,33.01 70.673,32.98 C70.553,32.95 70.433,32.934 70.313,32.934 C70.173,32.934 70.063,32.964 69.993,33.029 C69.923,33.089 69.883,33.179 69.883,33.279 C69.883,33.349 69.893,33.399 69.923,33.449 C69.953,33.499 70.003,33.549 70.068,33.589 C70.132,33.639 70.288,33.719 70.528,33.829 C70.848,33.979 71.068,34.139 71.188,34.289 C71.308,34.449 71.368,34.639 71.368,34.859 L71.351,34.879 Z M71.988,32.349 L72.718,32.349 L72.718,35.819 L71.988,35.819 L71.988,32.349 Z M74.908,35.819 L74.178,35.819 L74.178,32.959 L73.248,32.959 L73.248,32.339 L75.838,32.339 L75.838,32.949 L74.908,32.949 L74.908,35.809 L74.908,35.819 Z M78.348,35.809 L76.368,35.809 L76.368,32.339 L78.348,32.339 L78.348,32.939 L77.098,32.939 L77.098,33.699 L78.258,33.699 L78.258,34.299 L77.098,34.299 L77.098,35.189 L78.348,35.189 L78.348,35.799 L78.348,35.809 Z" id="Shape" fill="#FFFFFF"></path>
        </g>
    </g>
</svg>